G04 MADE WITH FRITZING*
G04 WWW.FRITZING.ORG*
G04 SINGLE SIDED*
G04 HOLES NOT PLATED*
G04 CONTOUR ON CENTER OF CONTOUR VECTOR*
%ASAXBY*%
%FSLAX23Y23*%
%MOIN*%
%OFA0B0*%
%SFA1.0B1.0*%
%ADD10R,0.001000X0.001000*%
%LNSILK0*%
G90*
G70*
G54D10*
X0Y2362D02*
X2361Y2362D01*
X0Y2361D02*
X2361Y2361D01*
X0Y2360D02*
X2361Y2360D01*
X0Y2359D02*
X2361Y2359D01*
X0Y2358D02*
X2361Y2358D01*
X0Y2357D02*
X2361Y2357D01*
X0Y2356D02*
X2361Y2356D01*
X0Y2355D02*
X2361Y2355D01*
X0Y2354D02*
X7Y2354D01*
X2354Y2354D02*
X2361Y2354D01*
X0Y2353D02*
X7Y2353D01*
X2354Y2353D02*
X2361Y2353D01*
X0Y2352D02*
X7Y2352D01*
X2354Y2352D02*
X2361Y2352D01*
X0Y2351D02*
X7Y2351D01*
X2354Y2351D02*
X2361Y2351D01*
X0Y2350D02*
X7Y2350D01*
X2354Y2350D02*
X2361Y2350D01*
X0Y2349D02*
X7Y2349D01*
X2354Y2349D02*
X2361Y2349D01*
X0Y2348D02*
X7Y2348D01*
X2354Y2348D02*
X2361Y2348D01*
X0Y2347D02*
X7Y2347D01*
X2354Y2347D02*
X2361Y2347D01*
X0Y2346D02*
X7Y2346D01*
X2354Y2346D02*
X2361Y2346D01*
X0Y2345D02*
X7Y2345D01*
X2354Y2345D02*
X2361Y2345D01*
X0Y2344D02*
X7Y2344D01*
X2354Y2344D02*
X2361Y2344D01*
X0Y2343D02*
X7Y2343D01*
X2354Y2343D02*
X2361Y2343D01*
X0Y2342D02*
X7Y2342D01*
X2354Y2342D02*
X2361Y2342D01*
X0Y2341D02*
X7Y2341D01*
X2354Y2341D02*
X2361Y2341D01*
X0Y2340D02*
X7Y2340D01*
X2354Y2340D02*
X2361Y2340D01*
X0Y2339D02*
X7Y2339D01*
X2354Y2339D02*
X2361Y2339D01*
X0Y2338D02*
X7Y2338D01*
X2354Y2338D02*
X2361Y2338D01*
X0Y2337D02*
X7Y2337D01*
X2354Y2337D02*
X2361Y2337D01*
X0Y2336D02*
X7Y2336D01*
X2354Y2336D02*
X2361Y2336D01*
X0Y2335D02*
X7Y2335D01*
X2354Y2335D02*
X2361Y2335D01*
X0Y2334D02*
X7Y2334D01*
X2354Y2334D02*
X2361Y2334D01*
X0Y2333D02*
X7Y2333D01*
X2354Y2333D02*
X2361Y2333D01*
X0Y2332D02*
X7Y2332D01*
X2354Y2332D02*
X2361Y2332D01*
X0Y2331D02*
X7Y2331D01*
X2354Y2331D02*
X2361Y2331D01*
X0Y2330D02*
X7Y2330D01*
X2354Y2330D02*
X2361Y2330D01*
X0Y2329D02*
X7Y2329D01*
X2354Y2329D02*
X2361Y2329D01*
X0Y2328D02*
X7Y2328D01*
X2354Y2328D02*
X2361Y2328D01*
X0Y2327D02*
X7Y2327D01*
X2354Y2327D02*
X2361Y2327D01*
X0Y2326D02*
X7Y2326D01*
X2354Y2326D02*
X2361Y2326D01*
X0Y2325D02*
X7Y2325D01*
X2354Y2325D02*
X2361Y2325D01*
X0Y2324D02*
X7Y2324D01*
X2354Y2324D02*
X2361Y2324D01*
X0Y2323D02*
X7Y2323D01*
X2354Y2323D02*
X2361Y2323D01*
X0Y2322D02*
X7Y2322D01*
X2354Y2322D02*
X2361Y2322D01*
X0Y2321D02*
X7Y2321D01*
X2354Y2321D02*
X2361Y2321D01*
X0Y2320D02*
X7Y2320D01*
X2354Y2320D02*
X2361Y2320D01*
X0Y2319D02*
X7Y2319D01*
X2354Y2319D02*
X2361Y2319D01*
X0Y2318D02*
X7Y2318D01*
X2354Y2318D02*
X2361Y2318D01*
X0Y2317D02*
X7Y2317D01*
X2354Y2317D02*
X2361Y2317D01*
X0Y2316D02*
X7Y2316D01*
X2354Y2316D02*
X2361Y2316D01*
X0Y2315D02*
X7Y2315D01*
X2354Y2315D02*
X2361Y2315D01*
X0Y2314D02*
X7Y2314D01*
X2354Y2314D02*
X2361Y2314D01*
X0Y2313D02*
X7Y2313D01*
X2354Y2313D02*
X2361Y2313D01*
X0Y2312D02*
X7Y2312D01*
X2354Y2312D02*
X2361Y2312D01*
X0Y2311D02*
X7Y2311D01*
X2354Y2311D02*
X2361Y2311D01*
X0Y2310D02*
X7Y2310D01*
X2354Y2310D02*
X2361Y2310D01*
X0Y2309D02*
X7Y2309D01*
X2354Y2309D02*
X2361Y2309D01*
X0Y2308D02*
X7Y2308D01*
X2354Y2308D02*
X2361Y2308D01*
X0Y2307D02*
X7Y2307D01*
X2354Y2307D02*
X2361Y2307D01*
X0Y2306D02*
X7Y2306D01*
X2354Y2306D02*
X2361Y2306D01*
X0Y2305D02*
X7Y2305D01*
X2354Y2305D02*
X2361Y2305D01*
X0Y2304D02*
X7Y2304D01*
X2354Y2304D02*
X2361Y2304D01*
X0Y2303D02*
X7Y2303D01*
X2354Y2303D02*
X2361Y2303D01*
X0Y2302D02*
X7Y2302D01*
X2354Y2302D02*
X2361Y2302D01*
X0Y2301D02*
X7Y2301D01*
X2354Y2301D02*
X2361Y2301D01*
X0Y2300D02*
X7Y2300D01*
X2354Y2300D02*
X2361Y2300D01*
X0Y2299D02*
X7Y2299D01*
X2354Y2299D02*
X2361Y2299D01*
X0Y2298D02*
X7Y2298D01*
X2354Y2298D02*
X2361Y2298D01*
X0Y2297D02*
X7Y2297D01*
X2354Y2297D02*
X2361Y2297D01*
X0Y2296D02*
X7Y2296D01*
X2354Y2296D02*
X2361Y2296D01*
X0Y2295D02*
X7Y2295D01*
X2354Y2295D02*
X2361Y2295D01*
X0Y2294D02*
X7Y2294D01*
X2354Y2294D02*
X2361Y2294D01*
X0Y2293D02*
X7Y2293D01*
X2354Y2293D02*
X2361Y2293D01*
X0Y2292D02*
X7Y2292D01*
X2354Y2292D02*
X2361Y2292D01*
X0Y2291D02*
X7Y2291D01*
X2354Y2291D02*
X2361Y2291D01*
X0Y2290D02*
X7Y2290D01*
X2354Y2290D02*
X2361Y2290D01*
X0Y2289D02*
X7Y2289D01*
X2354Y2289D02*
X2361Y2289D01*
X0Y2288D02*
X7Y2288D01*
X2354Y2288D02*
X2361Y2288D01*
X0Y2287D02*
X7Y2287D01*
X2354Y2287D02*
X2361Y2287D01*
X0Y2286D02*
X7Y2286D01*
X2354Y2286D02*
X2361Y2286D01*
X0Y2285D02*
X7Y2285D01*
X2354Y2285D02*
X2361Y2285D01*
X0Y2284D02*
X7Y2284D01*
X2354Y2284D02*
X2361Y2284D01*
X0Y2283D02*
X7Y2283D01*
X2354Y2283D02*
X2361Y2283D01*
X0Y2282D02*
X7Y2282D01*
X2354Y2282D02*
X2361Y2282D01*
X0Y2281D02*
X7Y2281D01*
X2354Y2281D02*
X2361Y2281D01*
X0Y2280D02*
X7Y2280D01*
X2354Y2280D02*
X2361Y2280D01*
X0Y2279D02*
X7Y2279D01*
X2354Y2279D02*
X2361Y2279D01*
X0Y2278D02*
X7Y2278D01*
X2354Y2278D02*
X2361Y2278D01*
X0Y2277D02*
X7Y2277D01*
X2354Y2277D02*
X2361Y2277D01*
X0Y2276D02*
X7Y2276D01*
X2354Y2276D02*
X2361Y2276D01*
X0Y2275D02*
X7Y2275D01*
X2354Y2275D02*
X2361Y2275D01*
X0Y2274D02*
X7Y2274D01*
X2354Y2274D02*
X2361Y2274D01*
X0Y2273D02*
X7Y2273D01*
X2354Y2273D02*
X2361Y2273D01*
X0Y2272D02*
X7Y2272D01*
X2354Y2272D02*
X2361Y2272D01*
X0Y2271D02*
X7Y2271D01*
X2354Y2271D02*
X2361Y2271D01*
X0Y2270D02*
X7Y2270D01*
X2354Y2270D02*
X2361Y2270D01*
X0Y2269D02*
X7Y2269D01*
X2354Y2269D02*
X2361Y2269D01*
X0Y2268D02*
X7Y2268D01*
X2354Y2268D02*
X2361Y2268D01*
X0Y2267D02*
X7Y2267D01*
X2354Y2267D02*
X2361Y2267D01*
X0Y2266D02*
X7Y2266D01*
X2354Y2266D02*
X2361Y2266D01*
X0Y2265D02*
X7Y2265D01*
X2354Y2265D02*
X2361Y2265D01*
X0Y2264D02*
X7Y2264D01*
X2354Y2264D02*
X2361Y2264D01*
X0Y2263D02*
X7Y2263D01*
X2354Y2263D02*
X2361Y2263D01*
X0Y2262D02*
X7Y2262D01*
X2354Y2262D02*
X2361Y2262D01*
X0Y2261D02*
X7Y2261D01*
X2354Y2261D02*
X2361Y2261D01*
X0Y2260D02*
X7Y2260D01*
X2354Y2260D02*
X2361Y2260D01*
X0Y2259D02*
X7Y2259D01*
X2354Y2259D02*
X2361Y2259D01*
X0Y2258D02*
X7Y2258D01*
X2354Y2258D02*
X2361Y2258D01*
X0Y2257D02*
X7Y2257D01*
X2354Y2257D02*
X2361Y2257D01*
X0Y2256D02*
X7Y2256D01*
X2354Y2256D02*
X2361Y2256D01*
X0Y2255D02*
X7Y2255D01*
X2354Y2255D02*
X2361Y2255D01*
X0Y2254D02*
X7Y2254D01*
X2354Y2254D02*
X2361Y2254D01*
X0Y2253D02*
X7Y2253D01*
X2354Y2253D02*
X2361Y2253D01*
X0Y2252D02*
X7Y2252D01*
X2354Y2252D02*
X2361Y2252D01*
X0Y2251D02*
X7Y2251D01*
X2354Y2251D02*
X2361Y2251D01*
X0Y2250D02*
X7Y2250D01*
X2354Y2250D02*
X2361Y2250D01*
X0Y2249D02*
X7Y2249D01*
X2354Y2249D02*
X2361Y2249D01*
X0Y2248D02*
X7Y2248D01*
X2354Y2248D02*
X2361Y2248D01*
X0Y2247D02*
X7Y2247D01*
X2354Y2247D02*
X2361Y2247D01*
X0Y2246D02*
X7Y2246D01*
X2354Y2246D02*
X2361Y2246D01*
X0Y2245D02*
X7Y2245D01*
X2354Y2245D02*
X2361Y2245D01*
X0Y2244D02*
X7Y2244D01*
X2354Y2244D02*
X2361Y2244D01*
X0Y2243D02*
X7Y2243D01*
X2354Y2243D02*
X2361Y2243D01*
X0Y2242D02*
X7Y2242D01*
X2354Y2242D02*
X2361Y2242D01*
X0Y2241D02*
X7Y2241D01*
X2354Y2241D02*
X2361Y2241D01*
X0Y2240D02*
X7Y2240D01*
X2354Y2240D02*
X2361Y2240D01*
X0Y2239D02*
X7Y2239D01*
X2354Y2239D02*
X2361Y2239D01*
X0Y2238D02*
X7Y2238D01*
X2354Y2238D02*
X2361Y2238D01*
X0Y2237D02*
X7Y2237D01*
X2354Y2237D02*
X2361Y2237D01*
X0Y2236D02*
X7Y2236D01*
X2354Y2236D02*
X2361Y2236D01*
X0Y2235D02*
X7Y2235D01*
X2354Y2235D02*
X2361Y2235D01*
X0Y2234D02*
X7Y2234D01*
X2354Y2234D02*
X2361Y2234D01*
X0Y2233D02*
X7Y2233D01*
X2354Y2233D02*
X2361Y2233D01*
X0Y2232D02*
X7Y2232D01*
X2354Y2232D02*
X2361Y2232D01*
X0Y2231D02*
X7Y2231D01*
X2354Y2231D02*
X2361Y2231D01*
X0Y2230D02*
X7Y2230D01*
X2354Y2230D02*
X2361Y2230D01*
X0Y2229D02*
X7Y2229D01*
X2354Y2229D02*
X2361Y2229D01*
X0Y2228D02*
X7Y2228D01*
X2354Y2228D02*
X2361Y2228D01*
X0Y2227D02*
X7Y2227D01*
X2354Y2227D02*
X2361Y2227D01*
X0Y2226D02*
X7Y2226D01*
X2354Y2226D02*
X2361Y2226D01*
X0Y2225D02*
X7Y2225D01*
X2354Y2225D02*
X2361Y2225D01*
X0Y2224D02*
X7Y2224D01*
X2354Y2224D02*
X2361Y2224D01*
X0Y2223D02*
X7Y2223D01*
X2354Y2223D02*
X2361Y2223D01*
X0Y2222D02*
X7Y2222D01*
X2354Y2222D02*
X2361Y2222D01*
X0Y2221D02*
X7Y2221D01*
X2354Y2221D02*
X2361Y2221D01*
X0Y2220D02*
X7Y2220D01*
X2354Y2220D02*
X2361Y2220D01*
X0Y2219D02*
X7Y2219D01*
X2354Y2219D02*
X2361Y2219D01*
X0Y2218D02*
X7Y2218D01*
X2354Y2218D02*
X2361Y2218D01*
X0Y2217D02*
X7Y2217D01*
X2354Y2217D02*
X2361Y2217D01*
X0Y2216D02*
X7Y2216D01*
X2354Y2216D02*
X2361Y2216D01*
X0Y2215D02*
X7Y2215D01*
X2354Y2215D02*
X2361Y2215D01*
X0Y2214D02*
X7Y2214D01*
X2354Y2214D02*
X2361Y2214D01*
X0Y2213D02*
X7Y2213D01*
X2354Y2213D02*
X2361Y2213D01*
X0Y2212D02*
X7Y2212D01*
X2354Y2212D02*
X2361Y2212D01*
X0Y2211D02*
X7Y2211D01*
X2354Y2211D02*
X2361Y2211D01*
X0Y2210D02*
X7Y2210D01*
X2354Y2210D02*
X2361Y2210D01*
X0Y2209D02*
X7Y2209D01*
X2354Y2209D02*
X2361Y2209D01*
X0Y2208D02*
X7Y2208D01*
X2354Y2208D02*
X2361Y2208D01*
X0Y2207D02*
X7Y2207D01*
X2354Y2207D02*
X2361Y2207D01*
X0Y2206D02*
X7Y2206D01*
X2354Y2206D02*
X2361Y2206D01*
X0Y2205D02*
X7Y2205D01*
X2354Y2205D02*
X2361Y2205D01*
X0Y2204D02*
X7Y2204D01*
X2354Y2204D02*
X2361Y2204D01*
X0Y2203D02*
X7Y2203D01*
X2354Y2203D02*
X2361Y2203D01*
X0Y2202D02*
X7Y2202D01*
X2354Y2202D02*
X2361Y2202D01*
X0Y2201D02*
X7Y2201D01*
X2354Y2201D02*
X2361Y2201D01*
X0Y2200D02*
X7Y2200D01*
X2354Y2200D02*
X2361Y2200D01*
X0Y2199D02*
X7Y2199D01*
X2354Y2199D02*
X2361Y2199D01*
X0Y2198D02*
X7Y2198D01*
X2354Y2198D02*
X2361Y2198D01*
X0Y2197D02*
X7Y2197D01*
X2354Y2197D02*
X2361Y2197D01*
X0Y2196D02*
X7Y2196D01*
X2354Y2196D02*
X2361Y2196D01*
X0Y2195D02*
X7Y2195D01*
X2354Y2195D02*
X2361Y2195D01*
X0Y2194D02*
X7Y2194D01*
X2354Y2194D02*
X2361Y2194D01*
X0Y2193D02*
X7Y2193D01*
X2354Y2193D02*
X2361Y2193D01*
X0Y2192D02*
X7Y2192D01*
X2354Y2192D02*
X2361Y2192D01*
X0Y2191D02*
X7Y2191D01*
X2354Y2191D02*
X2361Y2191D01*
X0Y2190D02*
X7Y2190D01*
X2354Y2190D02*
X2361Y2190D01*
X0Y2189D02*
X7Y2189D01*
X2354Y2189D02*
X2361Y2189D01*
X0Y2188D02*
X7Y2188D01*
X2354Y2188D02*
X2361Y2188D01*
X0Y2187D02*
X7Y2187D01*
X2354Y2187D02*
X2361Y2187D01*
X0Y2186D02*
X7Y2186D01*
X2354Y2186D02*
X2361Y2186D01*
X0Y2185D02*
X7Y2185D01*
X2354Y2185D02*
X2361Y2185D01*
X0Y2184D02*
X7Y2184D01*
X2354Y2184D02*
X2361Y2184D01*
X0Y2183D02*
X7Y2183D01*
X2354Y2183D02*
X2361Y2183D01*
X0Y2182D02*
X7Y2182D01*
X2354Y2182D02*
X2361Y2182D01*
X0Y2181D02*
X7Y2181D01*
X2354Y2181D02*
X2361Y2181D01*
X0Y2180D02*
X7Y2180D01*
X2354Y2180D02*
X2361Y2180D01*
X0Y2179D02*
X7Y2179D01*
X2354Y2179D02*
X2361Y2179D01*
X0Y2178D02*
X7Y2178D01*
X2354Y2178D02*
X2361Y2178D01*
X0Y2177D02*
X7Y2177D01*
X2354Y2177D02*
X2361Y2177D01*
X0Y2176D02*
X7Y2176D01*
X2354Y2176D02*
X2361Y2176D01*
X0Y2175D02*
X7Y2175D01*
X2354Y2175D02*
X2361Y2175D01*
X0Y2174D02*
X7Y2174D01*
X2354Y2174D02*
X2361Y2174D01*
X0Y2173D02*
X7Y2173D01*
X2354Y2173D02*
X2361Y2173D01*
X0Y2172D02*
X7Y2172D01*
X2354Y2172D02*
X2361Y2172D01*
X0Y2171D02*
X7Y2171D01*
X2354Y2171D02*
X2361Y2171D01*
X0Y2170D02*
X7Y2170D01*
X2354Y2170D02*
X2361Y2170D01*
X0Y2169D02*
X7Y2169D01*
X2354Y2169D02*
X2361Y2169D01*
X0Y2168D02*
X7Y2168D01*
X2354Y2168D02*
X2361Y2168D01*
X0Y2167D02*
X7Y2167D01*
X2354Y2167D02*
X2361Y2167D01*
X0Y2166D02*
X7Y2166D01*
X2354Y2166D02*
X2361Y2166D01*
X0Y2165D02*
X7Y2165D01*
X2354Y2165D02*
X2361Y2165D01*
X0Y2164D02*
X7Y2164D01*
X2354Y2164D02*
X2361Y2164D01*
X0Y2163D02*
X7Y2163D01*
X2354Y2163D02*
X2361Y2163D01*
X0Y2162D02*
X7Y2162D01*
X2354Y2162D02*
X2361Y2162D01*
X0Y2161D02*
X7Y2161D01*
X2354Y2161D02*
X2361Y2161D01*
X0Y2160D02*
X7Y2160D01*
X2354Y2160D02*
X2361Y2160D01*
X0Y2159D02*
X7Y2159D01*
X2354Y2159D02*
X2361Y2159D01*
X0Y2158D02*
X7Y2158D01*
X2354Y2158D02*
X2361Y2158D01*
X0Y2157D02*
X7Y2157D01*
X2354Y2157D02*
X2361Y2157D01*
X0Y2156D02*
X7Y2156D01*
X2354Y2156D02*
X2361Y2156D01*
X0Y2155D02*
X7Y2155D01*
X2354Y2155D02*
X2361Y2155D01*
X0Y2154D02*
X7Y2154D01*
X2354Y2154D02*
X2361Y2154D01*
X0Y2153D02*
X7Y2153D01*
X2354Y2153D02*
X2361Y2153D01*
X0Y2152D02*
X7Y2152D01*
X2354Y2152D02*
X2361Y2152D01*
X0Y2151D02*
X7Y2151D01*
X2354Y2151D02*
X2361Y2151D01*
X0Y2150D02*
X7Y2150D01*
X2354Y2150D02*
X2361Y2150D01*
X0Y2149D02*
X7Y2149D01*
X2354Y2149D02*
X2361Y2149D01*
X0Y2148D02*
X7Y2148D01*
X2354Y2148D02*
X2361Y2148D01*
X0Y2147D02*
X7Y2147D01*
X2354Y2147D02*
X2361Y2147D01*
X0Y2146D02*
X7Y2146D01*
X2354Y2146D02*
X2361Y2146D01*
X0Y2145D02*
X7Y2145D01*
X2354Y2145D02*
X2361Y2145D01*
X0Y2144D02*
X7Y2144D01*
X2354Y2144D02*
X2361Y2144D01*
X0Y2143D02*
X7Y2143D01*
X2354Y2143D02*
X2361Y2143D01*
X0Y2142D02*
X7Y2142D01*
X2354Y2142D02*
X2361Y2142D01*
X0Y2141D02*
X7Y2141D01*
X2354Y2141D02*
X2361Y2141D01*
X0Y2140D02*
X7Y2140D01*
X2354Y2140D02*
X2361Y2140D01*
X0Y2139D02*
X7Y2139D01*
X2354Y2139D02*
X2361Y2139D01*
X0Y2138D02*
X7Y2138D01*
X2354Y2138D02*
X2361Y2138D01*
X0Y2137D02*
X7Y2137D01*
X2354Y2137D02*
X2361Y2137D01*
X0Y2136D02*
X7Y2136D01*
X2354Y2136D02*
X2361Y2136D01*
X0Y2135D02*
X7Y2135D01*
X2354Y2135D02*
X2361Y2135D01*
X0Y2134D02*
X7Y2134D01*
X2354Y2134D02*
X2361Y2134D01*
X0Y2133D02*
X7Y2133D01*
X2354Y2133D02*
X2361Y2133D01*
X0Y2132D02*
X7Y2132D01*
X2354Y2132D02*
X2361Y2132D01*
X0Y2131D02*
X7Y2131D01*
X2354Y2131D02*
X2361Y2131D01*
X0Y2130D02*
X7Y2130D01*
X2354Y2130D02*
X2361Y2130D01*
X0Y2129D02*
X7Y2129D01*
X2354Y2129D02*
X2361Y2129D01*
X0Y2128D02*
X7Y2128D01*
X2354Y2128D02*
X2361Y2128D01*
X0Y2127D02*
X7Y2127D01*
X2354Y2127D02*
X2361Y2127D01*
X0Y2126D02*
X7Y2126D01*
X2354Y2126D02*
X2361Y2126D01*
X0Y2125D02*
X7Y2125D01*
X2354Y2125D02*
X2361Y2125D01*
X0Y2124D02*
X7Y2124D01*
X2354Y2124D02*
X2361Y2124D01*
X0Y2123D02*
X7Y2123D01*
X2354Y2123D02*
X2361Y2123D01*
X0Y2122D02*
X7Y2122D01*
X2354Y2122D02*
X2361Y2122D01*
X0Y2121D02*
X7Y2121D01*
X2354Y2121D02*
X2361Y2121D01*
X0Y2120D02*
X7Y2120D01*
X2354Y2120D02*
X2361Y2120D01*
X0Y2119D02*
X7Y2119D01*
X2354Y2119D02*
X2361Y2119D01*
X0Y2118D02*
X7Y2118D01*
X2354Y2118D02*
X2361Y2118D01*
X0Y2117D02*
X7Y2117D01*
X2354Y2117D02*
X2361Y2117D01*
X0Y2116D02*
X7Y2116D01*
X2354Y2116D02*
X2361Y2116D01*
X0Y2115D02*
X7Y2115D01*
X2354Y2115D02*
X2361Y2115D01*
X0Y2114D02*
X7Y2114D01*
X2354Y2114D02*
X2361Y2114D01*
X0Y2113D02*
X7Y2113D01*
X2354Y2113D02*
X2361Y2113D01*
X0Y2112D02*
X7Y2112D01*
X2354Y2112D02*
X2361Y2112D01*
X0Y2111D02*
X7Y2111D01*
X2354Y2111D02*
X2361Y2111D01*
X0Y2110D02*
X7Y2110D01*
X2354Y2110D02*
X2361Y2110D01*
X0Y2109D02*
X7Y2109D01*
X2354Y2109D02*
X2361Y2109D01*
X0Y2108D02*
X7Y2108D01*
X2354Y2108D02*
X2361Y2108D01*
X0Y2107D02*
X7Y2107D01*
X2354Y2107D02*
X2361Y2107D01*
X0Y2106D02*
X7Y2106D01*
X2354Y2106D02*
X2361Y2106D01*
X0Y2105D02*
X7Y2105D01*
X2354Y2105D02*
X2361Y2105D01*
X0Y2104D02*
X7Y2104D01*
X2354Y2104D02*
X2361Y2104D01*
X0Y2103D02*
X7Y2103D01*
X2354Y2103D02*
X2361Y2103D01*
X0Y2102D02*
X7Y2102D01*
X2354Y2102D02*
X2361Y2102D01*
X0Y2101D02*
X7Y2101D01*
X2354Y2101D02*
X2361Y2101D01*
X0Y2100D02*
X7Y2100D01*
X2354Y2100D02*
X2361Y2100D01*
X0Y2099D02*
X7Y2099D01*
X2354Y2099D02*
X2361Y2099D01*
X0Y2098D02*
X7Y2098D01*
X2354Y2098D02*
X2361Y2098D01*
X0Y2097D02*
X7Y2097D01*
X2354Y2097D02*
X2361Y2097D01*
X0Y2096D02*
X7Y2096D01*
X2354Y2096D02*
X2361Y2096D01*
X0Y2095D02*
X7Y2095D01*
X2354Y2095D02*
X2361Y2095D01*
X0Y2094D02*
X7Y2094D01*
X2354Y2094D02*
X2361Y2094D01*
X0Y2093D02*
X7Y2093D01*
X2354Y2093D02*
X2361Y2093D01*
X0Y2092D02*
X7Y2092D01*
X2354Y2092D02*
X2361Y2092D01*
X0Y2091D02*
X7Y2091D01*
X2354Y2091D02*
X2361Y2091D01*
X0Y2090D02*
X7Y2090D01*
X2354Y2090D02*
X2361Y2090D01*
X0Y2089D02*
X7Y2089D01*
X2354Y2089D02*
X2361Y2089D01*
X0Y2088D02*
X7Y2088D01*
X2354Y2088D02*
X2361Y2088D01*
X0Y2087D02*
X7Y2087D01*
X2354Y2087D02*
X2361Y2087D01*
X0Y2086D02*
X7Y2086D01*
X2354Y2086D02*
X2361Y2086D01*
X0Y2085D02*
X7Y2085D01*
X2354Y2085D02*
X2361Y2085D01*
X0Y2084D02*
X7Y2084D01*
X2354Y2084D02*
X2361Y2084D01*
X0Y2083D02*
X7Y2083D01*
X2354Y2083D02*
X2361Y2083D01*
X0Y2082D02*
X7Y2082D01*
X2354Y2082D02*
X2361Y2082D01*
X0Y2081D02*
X7Y2081D01*
X2354Y2081D02*
X2361Y2081D01*
X0Y2080D02*
X7Y2080D01*
X2354Y2080D02*
X2361Y2080D01*
X0Y2079D02*
X7Y2079D01*
X2354Y2079D02*
X2361Y2079D01*
X0Y2078D02*
X7Y2078D01*
X2354Y2078D02*
X2361Y2078D01*
X0Y2077D02*
X7Y2077D01*
X2354Y2077D02*
X2361Y2077D01*
X0Y2076D02*
X7Y2076D01*
X2354Y2076D02*
X2361Y2076D01*
X0Y2075D02*
X7Y2075D01*
X2354Y2075D02*
X2361Y2075D01*
X0Y2074D02*
X7Y2074D01*
X2354Y2074D02*
X2361Y2074D01*
X0Y2073D02*
X7Y2073D01*
X2354Y2073D02*
X2361Y2073D01*
X0Y2072D02*
X7Y2072D01*
X2354Y2072D02*
X2361Y2072D01*
X0Y2071D02*
X7Y2071D01*
X2354Y2071D02*
X2361Y2071D01*
X0Y2070D02*
X7Y2070D01*
X2354Y2070D02*
X2361Y2070D01*
X0Y2069D02*
X7Y2069D01*
X2354Y2069D02*
X2361Y2069D01*
X0Y2068D02*
X7Y2068D01*
X2354Y2068D02*
X2361Y2068D01*
X0Y2067D02*
X7Y2067D01*
X2354Y2067D02*
X2361Y2067D01*
X0Y2066D02*
X7Y2066D01*
X2354Y2066D02*
X2361Y2066D01*
X0Y2065D02*
X7Y2065D01*
X2354Y2065D02*
X2361Y2065D01*
X0Y2064D02*
X7Y2064D01*
X2354Y2064D02*
X2361Y2064D01*
X0Y2063D02*
X7Y2063D01*
X2354Y2063D02*
X2361Y2063D01*
X0Y2062D02*
X7Y2062D01*
X2354Y2062D02*
X2361Y2062D01*
X0Y2061D02*
X7Y2061D01*
X2354Y2061D02*
X2361Y2061D01*
X0Y2060D02*
X7Y2060D01*
X2354Y2060D02*
X2361Y2060D01*
X0Y2059D02*
X7Y2059D01*
X2354Y2059D02*
X2361Y2059D01*
X0Y2058D02*
X7Y2058D01*
X2354Y2058D02*
X2361Y2058D01*
X0Y2057D02*
X7Y2057D01*
X2354Y2057D02*
X2361Y2057D01*
X0Y2056D02*
X7Y2056D01*
X2354Y2056D02*
X2361Y2056D01*
X0Y2055D02*
X7Y2055D01*
X2354Y2055D02*
X2361Y2055D01*
X0Y2054D02*
X7Y2054D01*
X2354Y2054D02*
X2361Y2054D01*
X0Y2053D02*
X7Y2053D01*
X2354Y2053D02*
X2361Y2053D01*
X0Y2052D02*
X7Y2052D01*
X2354Y2052D02*
X2361Y2052D01*
X0Y2051D02*
X7Y2051D01*
X2354Y2051D02*
X2361Y2051D01*
X0Y2050D02*
X7Y2050D01*
X2354Y2050D02*
X2361Y2050D01*
X0Y2049D02*
X7Y2049D01*
X2354Y2049D02*
X2361Y2049D01*
X0Y2048D02*
X7Y2048D01*
X2354Y2048D02*
X2361Y2048D01*
X0Y2047D02*
X7Y2047D01*
X2354Y2047D02*
X2361Y2047D01*
X0Y2046D02*
X7Y2046D01*
X2354Y2046D02*
X2361Y2046D01*
X0Y2045D02*
X7Y2045D01*
X2354Y2045D02*
X2361Y2045D01*
X0Y2044D02*
X7Y2044D01*
X2354Y2044D02*
X2361Y2044D01*
X0Y2043D02*
X7Y2043D01*
X2354Y2043D02*
X2361Y2043D01*
X0Y2042D02*
X7Y2042D01*
X2354Y2042D02*
X2361Y2042D01*
X0Y2041D02*
X7Y2041D01*
X2354Y2041D02*
X2361Y2041D01*
X0Y2040D02*
X7Y2040D01*
X2354Y2040D02*
X2361Y2040D01*
X0Y2039D02*
X7Y2039D01*
X2354Y2039D02*
X2361Y2039D01*
X0Y2038D02*
X7Y2038D01*
X2354Y2038D02*
X2361Y2038D01*
X0Y2037D02*
X7Y2037D01*
X2354Y2037D02*
X2361Y2037D01*
X0Y2036D02*
X7Y2036D01*
X2354Y2036D02*
X2361Y2036D01*
X0Y2035D02*
X7Y2035D01*
X2354Y2035D02*
X2361Y2035D01*
X0Y2034D02*
X7Y2034D01*
X2354Y2034D02*
X2361Y2034D01*
X0Y2033D02*
X7Y2033D01*
X2354Y2033D02*
X2361Y2033D01*
X0Y2032D02*
X7Y2032D01*
X2354Y2032D02*
X2361Y2032D01*
X0Y2031D02*
X7Y2031D01*
X2354Y2031D02*
X2361Y2031D01*
X0Y2030D02*
X7Y2030D01*
X2354Y2030D02*
X2361Y2030D01*
X0Y2029D02*
X7Y2029D01*
X2354Y2029D02*
X2361Y2029D01*
X0Y2028D02*
X7Y2028D01*
X2354Y2028D02*
X2361Y2028D01*
X0Y2027D02*
X7Y2027D01*
X2354Y2027D02*
X2361Y2027D01*
X0Y2026D02*
X7Y2026D01*
X2354Y2026D02*
X2361Y2026D01*
X0Y2025D02*
X7Y2025D01*
X2354Y2025D02*
X2361Y2025D01*
X0Y2024D02*
X7Y2024D01*
X2354Y2024D02*
X2361Y2024D01*
X0Y2023D02*
X7Y2023D01*
X2354Y2023D02*
X2361Y2023D01*
X0Y2022D02*
X7Y2022D01*
X2354Y2022D02*
X2361Y2022D01*
X0Y2021D02*
X7Y2021D01*
X2354Y2021D02*
X2361Y2021D01*
X0Y2020D02*
X7Y2020D01*
X2354Y2020D02*
X2361Y2020D01*
X0Y2019D02*
X7Y2019D01*
X2354Y2019D02*
X2361Y2019D01*
X0Y2018D02*
X7Y2018D01*
X2354Y2018D02*
X2361Y2018D01*
X0Y2017D02*
X7Y2017D01*
X2354Y2017D02*
X2361Y2017D01*
X0Y2016D02*
X7Y2016D01*
X2354Y2016D02*
X2361Y2016D01*
X0Y2015D02*
X7Y2015D01*
X2354Y2015D02*
X2361Y2015D01*
X0Y2014D02*
X7Y2014D01*
X2354Y2014D02*
X2361Y2014D01*
X0Y2013D02*
X7Y2013D01*
X2354Y2013D02*
X2361Y2013D01*
X0Y2012D02*
X7Y2012D01*
X2354Y2012D02*
X2361Y2012D01*
X0Y2011D02*
X7Y2011D01*
X2354Y2011D02*
X2361Y2011D01*
X0Y2010D02*
X7Y2010D01*
X2354Y2010D02*
X2361Y2010D01*
X0Y2009D02*
X7Y2009D01*
X2354Y2009D02*
X2361Y2009D01*
X0Y2008D02*
X7Y2008D01*
X2354Y2008D02*
X2361Y2008D01*
X0Y2007D02*
X7Y2007D01*
X2354Y2007D02*
X2361Y2007D01*
X0Y2006D02*
X7Y2006D01*
X2354Y2006D02*
X2361Y2006D01*
X0Y2005D02*
X7Y2005D01*
X2354Y2005D02*
X2361Y2005D01*
X0Y2004D02*
X7Y2004D01*
X2354Y2004D02*
X2361Y2004D01*
X0Y2003D02*
X7Y2003D01*
X2354Y2003D02*
X2361Y2003D01*
X0Y2002D02*
X7Y2002D01*
X2354Y2002D02*
X2361Y2002D01*
X0Y2001D02*
X7Y2001D01*
X2354Y2001D02*
X2361Y2001D01*
X0Y2000D02*
X7Y2000D01*
X2354Y2000D02*
X2361Y2000D01*
X0Y1999D02*
X7Y1999D01*
X2354Y1999D02*
X2361Y1999D01*
X0Y1998D02*
X7Y1998D01*
X2354Y1998D02*
X2361Y1998D01*
X0Y1997D02*
X7Y1997D01*
X2354Y1997D02*
X2361Y1997D01*
X0Y1996D02*
X7Y1996D01*
X2354Y1996D02*
X2361Y1996D01*
X0Y1995D02*
X7Y1995D01*
X2354Y1995D02*
X2361Y1995D01*
X0Y1994D02*
X7Y1994D01*
X2354Y1994D02*
X2361Y1994D01*
X0Y1993D02*
X7Y1993D01*
X2354Y1993D02*
X2361Y1993D01*
X0Y1992D02*
X7Y1992D01*
X2354Y1992D02*
X2361Y1992D01*
X0Y1991D02*
X7Y1991D01*
X2354Y1991D02*
X2361Y1991D01*
X0Y1990D02*
X7Y1990D01*
X2354Y1990D02*
X2361Y1990D01*
X0Y1989D02*
X7Y1989D01*
X2354Y1989D02*
X2361Y1989D01*
X0Y1988D02*
X7Y1988D01*
X2354Y1988D02*
X2361Y1988D01*
X0Y1987D02*
X7Y1987D01*
X2354Y1987D02*
X2361Y1987D01*
X0Y1986D02*
X7Y1986D01*
X2354Y1986D02*
X2361Y1986D01*
X0Y1985D02*
X7Y1985D01*
X2354Y1985D02*
X2361Y1985D01*
X0Y1984D02*
X7Y1984D01*
X2354Y1984D02*
X2361Y1984D01*
X0Y1983D02*
X7Y1983D01*
X2354Y1983D02*
X2361Y1983D01*
X0Y1982D02*
X7Y1982D01*
X2354Y1982D02*
X2361Y1982D01*
X0Y1981D02*
X7Y1981D01*
X2354Y1981D02*
X2361Y1981D01*
X0Y1980D02*
X7Y1980D01*
X2354Y1980D02*
X2361Y1980D01*
X0Y1979D02*
X7Y1979D01*
X2354Y1979D02*
X2361Y1979D01*
X0Y1978D02*
X7Y1978D01*
X2354Y1978D02*
X2361Y1978D01*
X0Y1977D02*
X7Y1977D01*
X2354Y1977D02*
X2361Y1977D01*
X0Y1976D02*
X7Y1976D01*
X2354Y1976D02*
X2361Y1976D01*
X0Y1975D02*
X7Y1975D01*
X2354Y1975D02*
X2361Y1975D01*
X0Y1974D02*
X7Y1974D01*
X2354Y1974D02*
X2361Y1974D01*
X0Y1973D02*
X7Y1973D01*
X2354Y1973D02*
X2361Y1973D01*
X0Y1972D02*
X7Y1972D01*
X2354Y1972D02*
X2361Y1972D01*
X0Y1971D02*
X7Y1971D01*
X2354Y1971D02*
X2361Y1971D01*
X0Y1970D02*
X7Y1970D01*
X2354Y1970D02*
X2361Y1970D01*
X0Y1969D02*
X7Y1969D01*
X2354Y1969D02*
X2361Y1969D01*
X0Y1968D02*
X7Y1968D01*
X2354Y1968D02*
X2361Y1968D01*
X0Y1967D02*
X7Y1967D01*
X2354Y1967D02*
X2361Y1967D01*
X0Y1966D02*
X7Y1966D01*
X2354Y1966D02*
X2361Y1966D01*
X0Y1965D02*
X7Y1965D01*
X2354Y1965D02*
X2361Y1965D01*
X0Y1964D02*
X7Y1964D01*
X2354Y1964D02*
X2361Y1964D01*
X0Y1963D02*
X7Y1963D01*
X2354Y1963D02*
X2361Y1963D01*
X0Y1962D02*
X7Y1962D01*
X2354Y1962D02*
X2361Y1962D01*
X0Y1961D02*
X7Y1961D01*
X2354Y1961D02*
X2361Y1961D01*
X0Y1960D02*
X7Y1960D01*
X2354Y1960D02*
X2361Y1960D01*
X0Y1959D02*
X7Y1959D01*
X2354Y1959D02*
X2361Y1959D01*
X0Y1958D02*
X7Y1958D01*
X2354Y1958D02*
X2361Y1958D01*
X0Y1957D02*
X7Y1957D01*
X2354Y1957D02*
X2361Y1957D01*
X0Y1956D02*
X7Y1956D01*
X2354Y1956D02*
X2361Y1956D01*
X0Y1955D02*
X7Y1955D01*
X2354Y1955D02*
X2361Y1955D01*
X0Y1954D02*
X7Y1954D01*
X2354Y1954D02*
X2361Y1954D01*
X0Y1953D02*
X7Y1953D01*
X2354Y1953D02*
X2361Y1953D01*
X0Y1952D02*
X7Y1952D01*
X2354Y1952D02*
X2361Y1952D01*
X0Y1951D02*
X7Y1951D01*
X2354Y1951D02*
X2361Y1951D01*
X0Y1950D02*
X7Y1950D01*
X2354Y1950D02*
X2361Y1950D01*
X0Y1949D02*
X7Y1949D01*
X2354Y1949D02*
X2361Y1949D01*
X0Y1948D02*
X7Y1948D01*
X2354Y1948D02*
X2361Y1948D01*
X0Y1947D02*
X7Y1947D01*
X2354Y1947D02*
X2361Y1947D01*
X0Y1946D02*
X7Y1946D01*
X2354Y1946D02*
X2361Y1946D01*
X0Y1945D02*
X7Y1945D01*
X2354Y1945D02*
X2361Y1945D01*
X0Y1944D02*
X7Y1944D01*
X2354Y1944D02*
X2361Y1944D01*
X0Y1943D02*
X7Y1943D01*
X2354Y1943D02*
X2361Y1943D01*
X0Y1942D02*
X7Y1942D01*
X2354Y1942D02*
X2361Y1942D01*
X0Y1941D02*
X7Y1941D01*
X2354Y1941D02*
X2361Y1941D01*
X0Y1940D02*
X7Y1940D01*
X2354Y1940D02*
X2361Y1940D01*
X0Y1939D02*
X7Y1939D01*
X2354Y1939D02*
X2361Y1939D01*
X0Y1938D02*
X7Y1938D01*
X2354Y1938D02*
X2361Y1938D01*
X0Y1937D02*
X7Y1937D01*
X2354Y1937D02*
X2361Y1937D01*
X0Y1936D02*
X7Y1936D01*
X2354Y1936D02*
X2361Y1936D01*
X0Y1935D02*
X7Y1935D01*
X2354Y1935D02*
X2361Y1935D01*
X0Y1934D02*
X7Y1934D01*
X2354Y1934D02*
X2361Y1934D01*
X0Y1933D02*
X7Y1933D01*
X2354Y1933D02*
X2361Y1933D01*
X0Y1932D02*
X7Y1932D01*
X2354Y1932D02*
X2361Y1932D01*
X0Y1931D02*
X7Y1931D01*
X2354Y1931D02*
X2361Y1931D01*
X0Y1930D02*
X7Y1930D01*
X2354Y1930D02*
X2361Y1930D01*
X0Y1929D02*
X7Y1929D01*
X2354Y1929D02*
X2361Y1929D01*
X0Y1928D02*
X7Y1928D01*
X2354Y1928D02*
X2361Y1928D01*
X0Y1927D02*
X7Y1927D01*
X2354Y1927D02*
X2361Y1927D01*
X0Y1926D02*
X7Y1926D01*
X2354Y1926D02*
X2361Y1926D01*
X0Y1925D02*
X7Y1925D01*
X2354Y1925D02*
X2361Y1925D01*
X0Y1924D02*
X7Y1924D01*
X2354Y1924D02*
X2361Y1924D01*
X0Y1923D02*
X7Y1923D01*
X2354Y1923D02*
X2361Y1923D01*
X0Y1922D02*
X7Y1922D01*
X2354Y1922D02*
X2361Y1922D01*
X0Y1921D02*
X7Y1921D01*
X2354Y1921D02*
X2361Y1921D01*
X0Y1920D02*
X7Y1920D01*
X2354Y1920D02*
X2361Y1920D01*
X0Y1919D02*
X7Y1919D01*
X2354Y1919D02*
X2361Y1919D01*
X0Y1918D02*
X7Y1918D01*
X2354Y1918D02*
X2361Y1918D01*
X0Y1917D02*
X7Y1917D01*
X2354Y1917D02*
X2361Y1917D01*
X0Y1916D02*
X7Y1916D01*
X2354Y1916D02*
X2361Y1916D01*
X0Y1915D02*
X7Y1915D01*
X2354Y1915D02*
X2361Y1915D01*
X0Y1914D02*
X7Y1914D01*
X2354Y1914D02*
X2361Y1914D01*
X0Y1913D02*
X7Y1913D01*
X2354Y1913D02*
X2361Y1913D01*
X0Y1912D02*
X7Y1912D01*
X2354Y1912D02*
X2361Y1912D01*
X0Y1911D02*
X7Y1911D01*
X2354Y1911D02*
X2361Y1911D01*
X0Y1910D02*
X7Y1910D01*
X2354Y1910D02*
X2361Y1910D01*
X0Y1909D02*
X7Y1909D01*
X2354Y1909D02*
X2361Y1909D01*
X0Y1908D02*
X7Y1908D01*
X2354Y1908D02*
X2361Y1908D01*
X0Y1907D02*
X7Y1907D01*
X2354Y1907D02*
X2361Y1907D01*
X0Y1906D02*
X7Y1906D01*
X2354Y1906D02*
X2361Y1906D01*
X0Y1905D02*
X7Y1905D01*
X2354Y1905D02*
X2361Y1905D01*
X0Y1904D02*
X7Y1904D01*
X2354Y1904D02*
X2361Y1904D01*
X0Y1903D02*
X7Y1903D01*
X2354Y1903D02*
X2361Y1903D01*
X0Y1902D02*
X7Y1902D01*
X2354Y1902D02*
X2361Y1902D01*
X0Y1901D02*
X7Y1901D01*
X2354Y1901D02*
X2361Y1901D01*
X0Y1900D02*
X7Y1900D01*
X2354Y1900D02*
X2361Y1900D01*
X0Y1899D02*
X7Y1899D01*
X2354Y1899D02*
X2361Y1899D01*
X0Y1898D02*
X7Y1898D01*
X2354Y1898D02*
X2361Y1898D01*
X0Y1897D02*
X7Y1897D01*
X2354Y1897D02*
X2361Y1897D01*
X0Y1896D02*
X7Y1896D01*
X2354Y1896D02*
X2361Y1896D01*
X0Y1895D02*
X7Y1895D01*
X2354Y1895D02*
X2361Y1895D01*
X0Y1894D02*
X7Y1894D01*
X2354Y1894D02*
X2361Y1894D01*
X0Y1893D02*
X7Y1893D01*
X2354Y1893D02*
X2361Y1893D01*
X0Y1892D02*
X7Y1892D01*
X2354Y1892D02*
X2361Y1892D01*
X0Y1891D02*
X7Y1891D01*
X2354Y1891D02*
X2361Y1891D01*
X0Y1890D02*
X7Y1890D01*
X2354Y1890D02*
X2361Y1890D01*
X0Y1889D02*
X7Y1889D01*
X2354Y1889D02*
X2361Y1889D01*
X0Y1888D02*
X7Y1888D01*
X2354Y1888D02*
X2361Y1888D01*
X0Y1887D02*
X7Y1887D01*
X2354Y1887D02*
X2361Y1887D01*
X0Y1886D02*
X7Y1886D01*
X2354Y1886D02*
X2361Y1886D01*
X0Y1885D02*
X7Y1885D01*
X2354Y1885D02*
X2361Y1885D01*
X0Y1884D02*
X7Y1884D01*
X2354Y1884D02*
X2361Y1884D01*
X0Y1883D02*
X7Y1883D01*
X2354Y1883D02*
X2361Y1883D01*
X0Y1882D02*
X7Y1882D01*
X2354Y1882D02*
X2361Y1882D01*
X0Y1881D02*
X7Y1881D01*
X2354Y1881D02*
X2361Y1881D01*
X0Y1880D02*
X7Y1880D01*
X2354Y1880D02*
X2361Y1880D01*
X0Y1879D02*
X7Y1879D01*
X2354Y1879D02*
X2361Y1879D01*
X0Y1878D02*
X7Y1878D01*
X2354Y1878D02*
X2361Y1878D01*
X0Y1877D02*
X7Y1877D01*
X2354Y1877D02*
X2361Y1877D01*
X0Y1876D02*
X7Y1876D01*
X2354Y1876D02*
X2361Y1876D01*
X0Y1875D02*
X7Y1875D01*
X2354Y1875D02*
X2361Y1875D01*
X0Y1874D02*
X7Y1874D01*
X2354Y1874D02*
X2361Y1874D01*
X0Y1873D02*
X7Y1873D01*
X2354Y1873D02*
X2361Y1873D01*
X0Y1872D02*
X7Y1872D01*
X2354Y1872D02*
X2361Y1872D01*
X0Y1871D02*
X7Y1871D01*
X2354Y1871D02*
X2361Y1871D01*
X0Y1870D02*
X7Y1870D01*
X2354Y1870D02*
X2361Y1870D01*
X0Y1869D02*
X7Y1869D01*
X2354Y1869D02*
X2361Y1869D01*
X0Y1868D02*
X7Y1868D01*
X2354Y1868D02*
X2361Y1868D01*
X0Y1867D02*
X7Y1867D01*
X2354Y1867D02*
X2361Y1867D01*
X0Y1866D02*
X7Y1866D01*
X2354Y1866D02*
X2361Y1866D01*
X0Y1865D02*
X7Y1865D01*
X2354Y1865D02*
X2361Y1865D01*
X0Y1864D02*
X7Y1864D01*
X2354Y1864D02*
X2361Y1864D01*
X0Y1863D02*
X7Y1863D01*
X2354Y1863D02*
X2361Y1863D01*
X0Y1862D02*
X7Y1862D01*
X2354Y1862D02*
X2361Y1862D01*
X0Y1861D02*
X7Y1861D01*
X2354Y1861D02*
X2361Y1861D01*
X0Y1860D02*
X7Y1860D01*
X2354Y1860D02*
X2361Y1860D01*
X0Y1859D02*
X7Y1859D01*
X2354Y1859D02*
X2361Y1859D01*
X0Y1858D02*
X7Y1858D01*
X2354Y1858D02*
X2361Y1858D01*
X0Y1857D02*
X7Y1857D01*
X2354Y1857D02*
X2361Y1857D01*
X0Y1856D02*
X7Y1856D01*
X2354Y1856D02*
X2361Y1856D01*
X0Y1855D02*
X7Y1855D01*
X2354Y1855D02*
X2361Y1855D01*
X0Y1854D02*
X7Y1854D01*
X2354Y1854D02*
X2361Y1854D01*
X0Y1853D02*
X7Y1853D01*
X2354Y1853D02*
X2361Y1853D01*
X0Y1852D02*
X7Y1852D01*
X2354Y1852D02*
X2361Y1852D01*
X0Y1851D02*
X7Y1851D01*
X2354Y1851D02*
X2361Y1851D01*
X0Y1850D02*
X7Y1850D01*
X2354Y1850D02*
X2361Y1850D01*
X0Y1849D02*
X7Y1849D01*
X2354Y1849D02*
X2361Y1849D01*
X0Y1848D02*
X7Y1848D01*
X2354Y1848D02*
X2361Y1848D01*
X0Y1847D02*
X7Y1847D01*
X2354Y1847D02*
X2361Y1847D01*
X0Y1846D02*
X7Y1846D01*
X2354Y1846D02*
X2361Y1846D01*
X0Y1845D02*
X7Y1845D01*
X2354Y1845D02*
X2361Y1845D01*
X0Y1844D02*
X7Y1844D01*
X2354Y1844D02*
X2361Y1844D01*
X0Y1843D02*
X7Y1843D01*
X2354Y1843D02*
X2361Y1843D01*
X0Y1842D02*
X7Y1842D01*
X2354Y1842D02*
X2361Y1842D01*
X0Y1841D02*
X7Y1841D01*
X2354Y1841D02*
X2361Y1841D01*
X0Y1840D02*
X7Y1840D01*
X2354Y1840D02*
X2361Y1840D01*
X0Y1839D02*
X7Y1839D01*
X2354Y1839D02*
X2361Y1839D01*
X0Y1838D02*
X7Y1838D01*
X2354Y1838D02*
X2361Y1838D01*
X0Y1837D02*
X7Y1837D01*
X2354Y1837D02*
X2361Y1837D01*
X0Y1836D02*
X7Y1836D01*
X2354Y1836D02*
X2361Y1836D01*
X0Y1835D02*
X7Y1835D01*
X2354Y1835D02*
X2361Y1835D01*
X0Y1834D02*
X7Y1834D01*
X2354Y1834D02*
X2361Y1834D01*
X0Y1833D02*
X7Y1833D01*
X2354Y1833D02*
X2361Y1833D01*
X0Y1832D02*
X7Y1832D01*
X2354Y1832D02*
X2361Y1832D01*
X0Y1831D02*
X7Y1831D01*
X2354Y1831D02*
X2361Y1831D01*
X0Y1830D02*
X7Y1830D01*
X2354Y1830D02*
X2361Y1830D01*
X0Y1829D02*
X7Y1829D01*
X2354Y1829D02*
X2361Y1829D01*
X0Y1828D02*
X7Y1828D01*
X2354Y1828D02*
X2361Y1828D01*
X0Y1827D02*
X7Y1827D01*
X2354Y1827D02*
X2361Y1827D01*
X0Y1826D02*
X7Y1826D01*
X2354Y1826D02*
X2361Y1826D01*
X0Y1825D02*
X7Y1825D01*
X2354Y1825D02*
X2361Y1825D01*
X0Y1824D02*
X7Y1824D01*
X2354Y1824D02*
X2361Y1824D01*
X0Y1823D02*
X7Y1823D01*
X2354Y1823D02*
X2361Y1823D01*
X0Y1822D02*
X7Y1822D01*
X2354Y1822D02*
X2361Y1822D01*
X0Y1821D02*
X7Y1821D01*
X2354Y1821D02*
X2361Y1821D01*
X0Y1820D02*
X7Y1820D01*
X2354Y1820D02*
X2361Y1820D01*
X0Y1819D02*
X7Y1819D01*
X2354Y1819D02*
X2361Y1819D01*
X0Y1818D02*
X7Y1818D01*
X2354Y1818D02*
X2361Y1818D01*
X0Y1817D02*
X7Y1817D01*
X2354Y1817D02*
X2361Y1817D01*
X0Y1816D02*
X7Y1816D01*
X2354Y1816D02*
X2361Y1816D01*
X0Y1815D02*
X7Y1815D01*
X2354Y1815D02*
X2361Y1815D01*
X0Y1814D02*
X7Y1814D01*
X2354Y1814D02*
X2361Y1814D01*
X0Y1813D02*
X7Y1813D01*
X2354Y1813D02*
X2361Y1813D01*
X0Y1812D02*
X7Y1812D01*
X2354Y1812D02*
X2361Y1812D01*
X0Y1811D02*
X7Y1811D01*
X2354Y1811D02*
X2361Y1811D01*
X0Y1810D02*
X7Y1810D01*
X2354Y1810D02*
X2361Y1810D01*
X0Y1809D02*
X7Y1809D01*
X2354Y1809D02*
X2361Y1809D01*
X0Y1808D02*
X7Y1808D01*
X2354Y1808D02*
X2361Y1808D01*
X0Y1807D02*
X7Y1807D01*
X2354Y1807D02*
X2361Y1807D01*
X0Y1806D02*
X7Y1806D01*
X2354Y1806D02*
X2361Y1806D01*
X0Y1805D02*
X7Y1805D01*
X2354Y1805D02*
X2361Y1805D01*
X0Y1804D02*
X7Y1804D01*
X2354Y1804D02*
X2361Y1804D01*
X0Y1803D02*
X7Y1803D01*
X2354Y1803D02*
X2361Y1803D01*
X0Y1802D02*
X7Y1802D01*
X2354Y1802D02*
X2361Y1802D01*
X0Y1801D02*
X7Y1801D01*
X2354Y1801D02*
X2361Y1801D01*
X0Y1800D02*
X7Y1800D01*
X2354Y1800D02*
X2361Y1800D01*
X0Y1799D02*
X7Y1799D01*
X2354Y1799D02*
X2361Y1799D01*
X0Y1798D02*
X7Y1798D01*
X2354Y1798D02*
X2361Y1798D01*
X0Y1797D02*
X7Y1797D01*
X2354Y1797D02*
X2361Y1797D01*
X0Y1796D02*
X7Y1796D01*
X2354Y1796D02*
X2361Y1796D01*
X0Y1795D02*
X7Y1795D01*
X2354Y1795D02*
X2361Y1795D01*
X0Y1794D02*
X7Y1794D01*
X2354Y1794D02*
X2361Y1794D01*
X0Y1793D02*
X7Y1793D01*
X2354Y1793D02*
X2361Y1793D01*
X0Y1792D02*
X7Y1792D01*
X2354Y1792D02*
X2361Y1792D01*
X0Y1791D02*
X7Y1791D01*
X2354Y1791D02*
X2361Y1791D01*
X0Y1790D02*
X7Y1790D01*
X2354Y1790D02*
X2361Y1790D01*
X0Y1789D02*
X7Y1789D01*
X2354Y1789D02*
X2361Y1789D01*
X0Y1788D02*
X7Y1788D01*
X2354Y1788D02*
X2361Y1788D01*
X0Y1787D02*
X7Y1787D01*
X2354Y1787D02*
X2361Y1787D01*
X0Y1786D02*
X7Y1786D01*
X2354Y1786D02*
X2361Y1786D01*
X0Y1785D02*
X7Y1785D01*
X2354Y1785D02*
X2361Y1785D01*
X0Y1784D02*
X7Y1784D01*
X2354Y1784D02*
X2361Y1784D01*
X0Y1783D02*
X7Y1783D01*
X2354Y1783D02*
X2361Y1783D01*
X0Y1782D02*
X7Y1782D01*
X2354Y1782D02*
X2361Y1782D01*
X0Y1781D02*
X7Y1781D01*
X2354Y1781D02*
X2361Y1781D01*
X0Y1780D02*
X7Y1780D01*
X2354Y1780D02*
X2361Y1780D01*
X0Y1779D02*
X7Y1779D01*
X2354Y1779D02*
X2361Y1779D01*
X0Y1778D02*
X7Y1778D01*
X2354Y1778D02*
X2361Y1778D01*
X0Y1777D02*
X7Y1777D01*
X2354Y1777D02*
X2361Y1777D01*
X0Y1776D02*
X7Y1776D01*
X2354Y1776D02*
X2361Y1776D01*
X0Y1775D02*
X7Y1775D01*
X2354Y1775D02*
X2361Y1775D01*
X0Y1774D02*
X7Y1774D01*
X2354Y1774D02*
X2361Y1774D01*
X0Y1773D02*
X7Y1773D01*
X2354Y1773D02*
X2361Y1773D01*
X0Y1772D02*
X7Y1772D01*
X2354Y1772D02*
X2361Y1772D01*
X0Y1771D02*
X7Y1771D01*
X2354Y1771D02*
X2361Y1771D01*
X0Y1770D02*
X7Y1770D01*
X2354Y1770D02*
X2361Y1770D01*
X0Y1769D02*
X7Y1769D01*
X2354Y1769D02*
X2361Y1769D01*
X0Y1768D02*
X7Y1768D01*
X2354Y1768D02*
X2361Y1768D01*
X0Y1767D02*
X7Y1767D01*
X2354Y1767D02*
X2361Y1767D01*
X0Y1766D02*
X7Y1766D01*
X2354Y1766D02*
X2361Y1766D01*
X0Y1765D02*
X7Y1765D01*
X2354Y1765D02*
X2361Y1765D01*
X0Y1764D02*
X7Y1764D01*
X2354Y1764D02*
X2361Y1764D01*
X0Y1763D02*
X7Y1763D01*
X2354Y1763D02*
X2361Y1763D01*
X0Y1762D02*
X7Y1762D01*
X2354Y1762D02*
X2361Y1762D01*
X0Y1761D02*
X7Y1761D01*
X2354Y1761D02*
X2361Y1761D01*
X0Y1760D02*
X7Y1760D01*
X2354Y1760D02*
X2361Y1760D01*
X0Y1759D02*
X7Y1759D01*
X2354Y1759D02*
X2361Y1759D01*
X0Y1758D02*
X7Y1758D01*
X2354Y1758D02*
X2361Y1758D01*
X0Y1757D02*
X7Y1757D01*
X2354Y1757D02*
X2361Y1757D01*
X0Y1756D02*
X7Y1756D01*
X2354Y1756D02*
X2361Y1756D01*
X0Y1755D02*
X7Y1755D01*
X2354Y1755D02*
X2361Y1755D01*
X0Y1754D02*
X7Y1754D01*
X2354Y1754D02*
X2361Y1754D01*
X0Y1753D02*
X7Y1753D01*
X2354Y1753D02*
X2361Y1753D01*
X0Y1752D02*
X7Y1752D01*
X2354Y1752D02*
X2361Y1752D01*
X0Y1751D02*
X7Y1751D01*
X2354Y1751D02*
X2361Y1751D01*
X0Y1750D02*
X7Y1750D01*
X2354Y1750D02*
X2361Y1750D01*
X0Y1749D02*
X7Y1749D01*
X2354Y1749D02*
X2361Y1749D01*
X0Y1748D02*
X7Y1748D01*
X2354Y1748D02*
X2361Y1748D01*
X0Y1747D02*
X7Y1747D01*
X2354Y1747D02*
X2361Y1747D01*
X0Y1746D02*
X7Y1746D01*
X2354Y1746D02*
X2361Y1746D01*
X0Y1745D02*
X7Y1745D01*
X2354Y1745D02*
X2361Y1745D01*
X0Y1744D02*
X7Y1744D01*
X2354Y1744D02*
X2361Y1744D01*
X0Y1743D02*
X7Y1743D01*
X2354Y1743D02*
X2361Y1743D01*
X0Y1742D02*
X7Y1742D01*
X2354Y1742D02*
X2361Y1742D01*
X0Y1741D02*
X7Y1741D01*
X2354Y1741D02*
X2361Y1741D01*
X0Y1740D02*
X7Y1740D01*
X2354Y1740D02*
X2361Y1740D01*
X0Y1739D02*
X7Y1739D01*
X2354Y1739D02*
X2361Y1739D01*
X0Y1738D02*
X7Y1738D01*
X2354Y1738D02*
X2361Y1738D01*
X0Y1737D02*
X7Y1737D01*
X2354Y1737D02*
X2361Y1737D01*
X0Y1736D02*
X7Y1736D01*
X2354Y1736D02*
X2361Y1736D01*
X0Y1735D02*
X7Y1735D01*
X2354Y1735D02*
X2361Y1735D01*
X0Y1734D02*
X7Y1734D01*
X2354Y1734D02*
X2361Y1734D01*
X0Y1733D02*
X7Y1733D01*
X2354Y1733D02*
X2361Y1733D01*
X0Y1732D02*
X7Y1732D01*
X2354Y1732D02*
X2361Y1732D01*
X0Y1731D02*
X7Y1731D01*
X2354Y1731D02*
X2361Y1731D01*
X0Y1730D02*
X7Y1730D01*
X2354Y1730D02*
X2361Y1730D01*
X0Y1729D02*
X7Y1729D01*
X2354Y1729D02*
X2361Y1729D01*
X0Y1728D02*
X7Y1728D01*
X2354Y1728D02*
X2361Y1728D01*
X0Y1727D02*
X7Y1727D01*
X2354Y1727D02*
X2361Y1727D01*
X0Y1726D02*
X7Y1726D01*
X2354Y1726D02*
X2361Y1726D01*
X0Y1725D02*
X7Y1725D01*
X2354Y1725D02*
X2361Y1725D01*
X0Y1724D02*
X7Y1724D01*
X2354Y1724D02*
X2361Y1724D01*
X0Y1723D02*
X7Y1723D01*
X2354Y1723D02*
X2361Y1723D01*
X0Y1722D02*
X7Y1722D01*
X2354Y1722D02*
X2361Y1722D01*
X0Y1721D02*
X7Y1721D01*
X2354Y1721D02*
X2361Y1721D01*
X0Y1720D02*
X7Y1720D01*
X2354Y1720D02*
X2361Y1720D01*
X0Y1719D02*
X7Y1719D01*
X2354Y1719D02*
X2361Y1719D01*
X0Y1718D02*
X7Y1718D01*
X2354Y1718D02*
X2361Y1718D01*
X0Y1717D02*
X7Y1717D01*
X2354Y1717D02*
X2361Y1717D01*
X0Y1716D02*
X7Y1716D01*
X2354Y1716D02*
X2361Y1716D01*
X0Y1715D02*
X7Y1715D01*
X2354Y1715D02*
X2361Y1715D01*
X0Y1714D02*
X7Y1714D01*
X2354Y1714D02*
X2361Y1714D01*
X0Y1713D02*
X7Y1713D01*
X2354Y1713D02*
X2361Y1713D01*
X0Y1712D02*
X7Y1712D01*
X2354Y1712D02*
X2361Y1712D01*
X0Y1711D02*
X7Y1711D01*
X2354Y1711D02*
X2361Y1711D01*
X0Y1710D02*
X7Y1710D01*
X2354Y1710D02*
X2361Y1710D01*
X0Y1709D02*
X7Y1709D01*
X2354Y1709D02*
X2361Y1709D01*
X0Y1708D02*
X7Y1708D01*
X2354Y1708D02*
X2361Y1708D01*
X0Y1707D02*
X7Y1707D01*
X2354Y1707D02*
X2361Y1707D01*
X0Y1706D02*
X7Y1706D01*
X2354Y1706D02*
X2361Y1706D01*
X0Y1705D02*
X7Y1705D01*
X2354Y1705D02*
X2361Y1705D01*
X0Y1704D02*
X7Y1704D01*
X2354Y1704D02*
X2361Y1704D01*
X0Y1703D02*
X7Y1703D01*
X2354Y1703D02*
X2361Y1703D01*
X0Y1702D02*
X7Y1702D01*
X2354Y1702D02*
X2361Y1702D01*
X0Y1701D02*
X7Y1701D01*
X2354Y1701D02*
X2361Y1701D01*
X0Y1700D02*
X7Y1700D01*
X2354Y1700D02*
X2361Y1700D01*
X0Y1699D02*
X7Y1699D01*
X2354Y1699D02*
X2361Y1699D01*
X0Y1698D02*
X7Y1698D01*
X2354Y1698D02*
X2361Y1698D01*
X0Y1697D02*
X7Y1697D01*
X2354Y1697D02*
X2361Y1697D01*
X0Y1696D02*
X7Y1696D01*
X2354Y1696D02*
X2361Y1696D01*
X0Y1695D02*
X7Y1695D01*
X2354Y1695D02*
X2361Y1695D01*
X0Y1694D02*
X7Y1694D01*
X2354Y1694D02*
X2361Y1694D01*
X0Y1693D02*
X7Y1693D01*
X2354Y1693D02*
X2361Y1693D01*
X0Y1692D02*
X7Y1692D01*
X2354Y1692D02*
X2361Y1692D01*
X0Y1691D02*
X7Y1691D01*
X2354Y1691D02*
X2361Y1691D01*
X0Y1690D02*
X7Y1690D01*
X2354Y1690D02*
X2361Y1690D01*
X0Y1689D02*
X7Y1689D01*
X2354Y1689D02*
X2361Y1689D01*
X0Y1688D02*
X7Y1688D01*
X2354Y1688D02*
X2361Y1688D01*
X0Y1687D02*
X7Y1687D01*
X2354Y1687D02*
X2361Y1687D01*
X0Y1686D02*
X7Y1686D01*
X2354Y1686D02*
X2361Y1686D01*
X0Y1685D02*
X7Y1685D01*
X2354Y1685D02*
X2361Y1685D01*
X0Y1684D02*
X7Y1684D01*
X2354Y1684D02*
X2361Y1684D01*
X0Y1683D02*
X7Y1683D01*
X2354Y1683D02*
X2361Y1683D01*
X0Y1682D02*
X7Y1682D01*
X2354Y1682D02*
X2361Y1682D01*
X0Y1681D02*
X7Y1681D01*
X2354Y1681D02*
X2361Y1681D01*
X0Y1680D02*
X7Y1680D01*
X2354Y1680D02*
X2361Y1680D01*
X0Y1679D02*
X7Y1679D01*
X2354Y1679D02*
X2361Y1679D01*
X0Y1678D02*
X7Y1678D01*
X2354Y1678D02*
X2361Y1678D01*
X0Y1677D02*
X7Y1677D01*
X2354Y1677D02*
X2361Y1677D01*
X0Y1676D02*
X7Y1676D01*
X2354Y1676D02*
X2361Y1676D01*
X0Y1675D02*
X7Y1675D01*
X2354Y1675D02*
X2361Y1675D01*
X0Y1674D02*
X7Y1674D01*
X2354Y1674D02*
X2361Y1674D01*
X0Y1673D02*
X7Y1673D01*
X2354Y1673D02*
X2361Y1673D01*
X0Y1672D02*
X7Y1672D01*
X2354Y1672D02*
X2361Y1672D01*
X0Y1671D02*
X7Y1671D01*
X2354Y1671D02*
X2361Y1671D01*
X0Y1670D02*
X7Y1670D01*
X2354Y1670D02*
X2361Y1670D01*
X0Y1669D02*
X7Y1669D01*
X2354Y1669D02*
X2361Y1669D01*
X0Y1668D02*
X7Y1668D01*
X2354Y1668D02*
X2361Y1668D01*
X0Y1667D02*
X7Y1667D01*
X2354Y1667D02*
X2361Y1667D01*
X0Y1666D02*
X7Y1666D01*
X2354Y1666D02*
X2361Y1666D01*
X0Y1665D02*
X7Y1665D01*
X2354Y1665D02*
X2361Y1665D01*
X0Y1664D02*
X7Y1664D01*
X2354Y1664D02*
X2361Y1664D01*
X0Y1663D02*
X7Y1663D01*
X2354Y1663D02*
X2361Y1663D01*
X0Y1662D02*
X7Y1662D01*
X2354Y1662D02*
X2361Y1662D01*
X0Y1661D02*
X7Y1661D01*
X2354Y1661D02*
X2361Y1661D01*
X0Y1660D02*
X7Y1660D01*
X2354Y1660D02*
X2361Y1660D01*
X0Y1659D02*
X7Y1659D01*
X2354Y1659D02*
X2361Y1659D01*
X0Y1658D02*
X7Y1658D01*
X2354Y1658D02*
X2361Y1658D01*
X0Y1657D02*
X7Y1657D01*
X2354Y1657D02*
X2361Y1657D01*
X0Y1656D02*
X7Y1656D01*
X2354Y1656D02*
X2361Y1656D01*
X0Y1655D02*
X7Y1655D01*
X2354Y1655D02*
X2361Y1655D01*
X0Y1654D02*
X7Y1654D01*
X2354Y1654D02*
X2361Y1654D01*
X0Y1653D02*
X7Y1653D01*
X2354Y1653D02*
X2361Y1653D01*
X0Y1652D02*
X7Y1652D01*
X2354Y1652D02*
X2361Y1652D01*
X0Y1651D02*
X7Y1651D01*
X2354Y1651D02*
X2361Y1651D01*
X0Y1650D02*
X7Y1650D01*
X2354Y1650D02*
X2361Y1650D01*
X0Y1649D02*
X7Y1649D01*
X2354Y1649D02*
X2361Y1649D01*
X0Y1648D02*
X7Y1648D01*
X2354Y1648D02*
X2361Y1648D01*
X0Y1647D02*
X7Y1647D01*
X2354Y1647D02*
X2361Y1647D01*
X0Y1646D02*
X7Y1646D01*
X2354Y1646D02*
X2361Y1646D01*
X0Y1645D02*
X7Y1645D01*
X2354Y1645D02*
X2361Y1645D01*
X0Y1644D02*
X7Y1644D01*
X2354Y1644D02*
X2361Y1644D01*
X0Y1643D02*
X7Y1643D01*
X2354Y1643D02*
X2361Y1643D01*
X0Y1642D02*
X7Y1642D01*
X2354Y1642D02*
X2361Y1642D01*
X0Y1641D02*
X7Y1641D01*
X2354Y1641D02*
X2361Y1641D01*
X0Y1640D02*
X7Y1640D01*
X2354Y1640D02*
X2361Y1640D01*
X0Y1639D02*
X7Y1639D01*
X2354Y1639D02*
X2361Y1639D01*
X0Y1638D02*
X7Y1638D01*
X2354Y1638D02*
X2361Y1638D01*
X0Y1637D02*
X7Y1637D01*
X2354Y1637D02*
X2361Y1637D01*
X0Y1636D02*
X7Y1636D01*
X2354Y1636D02*
X2361Y1636D01*
X0Y1635D02*
X7Y1635D01*
X2354Y1635D02*
X2361Y1635D01*
X0Y1634D02*
X7Y1634D01*
X2354Y1634D02*
X2361Y1634D01*
X0Y1633D02*
X7Y1633D01*
X2354Y1633D02*
X2361Y1633D01*
X0Y1632D02*
X7Y1632D01*
X2354Y1632D02*
X2361Y1632D01*
X0Y1631D02*
X7Y1631D01*
X2354Y1631D02*
X2361Y1631D01*
X0Y1630D02*
X7Y1630D01*
X2354Y1630D02*
X2361Y1630D01*
X0Y1629D02*
X7Y1629D01*
X2354Y1629D02*
X2361Y1629D01*
X0Y1628D02*
X7Y1628D01*
X2354Y1628D02*
X2361Y1628D01*
X0Y1627D02*
X7Y1627D01*
X2354Y1627D02*
X2361Y1627D01*
X0Y1626D02*
X7Y1626D01*
X2354Y1626D02*
X2361Y1626D01*
X0Y1625D02*
X7Y1625D01*
X2354Y1625D02*
X2361Y1625D01*
X0Y1624D02*
X7Y1624D01*
X2354Y1624D02*
X2361Y1624D01*
X0Y1623D02*
X7Y1623D01*
X2354Y1623D02*
X2361Y1623D01*
X0Y1622D02*
X7Y1622D01*
X2354Y1622D02*
X2361Y1622D01*
X0Y1621D02*
X7Y1621D01*
X2354Y1621D02*
X2361Y1621D01*
X0Y1620D02*
X7Y1620D01*
X2354Y1620D02*
X2361Y1620D01*
X0Y1619D02*
X7Y1619D01*
X2354Y1619D02*
X2361Y1619D01*
X0Y1618D02*
X7Y1618D01*
X2354Y1618D02*
X2361Y1618D01*
X0Y1617D02*
X7Y1617D01*
X2354Y1617D02*
X2361Y1617D01*
X0Y1616D02*
X7Y1616D01*
X2354Y1616D02*
X2361Y1616D01*
X0Y1615D02*
X7Y1615D01*
X2354Y1615D02*
X2361Y1615D01*
X0Y1614D02*
X7Y1614D01*
X2354Y1614D02*
X2361Y1614D01*
X0Y1613D02*
X7Y1613D01*
X2354Y1613D02*
X2361Y1613D01*
X0Y1612D02*
X7Y1612D01*
X2354Y1612D02*
X2361Y1612D01*
X0Y1611D02*
X7Y1611D01*
X2354Y1611D02*
X2361Y1611D01*
X0Y1610D02*
X7Y1610D01*
X2354Y1610D02*
X2361Y1610D01*
X0Y1609D02*
X7Y1609D01*
X2354Y1609D02*
X2361Y1609D01*
X0Y1608D02*
X7Y1608D01*
X2354Y1608D02*
X2361Y1608D01*
X0Y1607D02*
X7Y1607D01*
X2354Y1607D02*
X2361Y1607D01*
X0Y1606D02*
X7Y1606D01*
X2354Y1606D02*
X2361Y1606D01*
X0Y1605D02*
X7Y1605D01*
X2354Y1605D02*
X2361Y1605D01*
X0Y1604D02*
X7Y1604D01*
X2354Y1604D02*
X2361Y1604D01*
X0Y1603D02*
X7Y1603D01*
X2354Y1603D02*
X2361Y1603D01*
X0Y1602D02*
X7Y1602D01*
X2354Y1602D02*
X2361Y1602D01*
X0Y1601D02*
X7Y1601D01*
X2354Y1601D02*
X2361Y1601D01*
X0Y1600D02*
X7Y1600D01*
X2354Y1600D02*
X2361Y1600D01*
X0Y1599D02*
X7Y1599D01*
X2354Y1599D02*
X2361Y1599D01*
X0Y1598D02*
X7Y1598D01*
X2354Y1598D02*
X2361Y1598D01*
X0Y1597D02*
X7Y1597D01*
X2354Y1597D02*
X2361Y1597D01*
X0Y1596D02*
X7Y1596D01*
X2354Y1596D02*
X2361Y1596D01*
X0Y1595D02*
X7Y1595D01*
X2354Y1595D02*
X2361Y1595D01*
X0Y1594D02*
X7Y1594D01*
X2354Y1594D02*
X2361Y1594D01*
X0Y1593D02*
X7Y1593D01*
X2354Y1593D02*
X2361Y1593D01*
X0Y1592D02*
X7Y1592D01*
X2354Y1592D02*
X2361Y1592D01*
X0Y1591D02*
X7Y1591D01*
X2354Y1591D02*
X2361Y1591D01*
X0Y1590D02*
X7Y1590D01*
X2354Y1590D02*
X2361Y1590D01*
X0Y1589D02*
X7Y1589D01*
X2354Y1589D02*
X2361Y1589D01*
X0Y1588D02*
X7Y1588D01*
X2354Y1588D02*
X2361Y1588D01*
X0Y1587D02*
X7Y1587D01*
X2354Y1587D02*
X2361Y1587D01*
X0Y1586D02*
X7Y1586D01*
X2354Y1586D02*
X2361Y1586D01*
X0Y1585D02*
X7Y1585D01*
X2354Y1585D02*
X2361Y1585D01*
X0Y1584D02*
X7Y1584D01*
X2354Y1584D02*
X2361Y1584D01*
X0Y1583D02*
X7Y1583D01*
X2354Y1583D02*
X2361Y1583D01*
X0Y1582D02*
X7Y1582D01*
X2354Y1582D02*
X2361Y1582D01*
X0Y1581D02*
X7Y1581D01*
X2354Y1581D02*
X2361Y1581D01*
X0Y1580D02*
X7Y1580D01*
X2354Y1580D02*
X2361Y1580D01*
X0Y1579D02*
X7Y1579D01*
X2354Y1579D02*
X2361Y1579D01*
X0Y1578D02*
X7Y1578D01*
X2354Y1578D02*
X2361Y1578D01*
X0Y1577D02*
X7Y1577D01*
X2354Y1577D02*
X2361Y1577D01*
X0Y1576D02*
X7Y1576D01*
X2354Y1576D02*
X2361Y1576D01*
X0Y1575D02*
X7Y1575D01*
X2354Y1575D02*
X2361Y1575D01*
X0Y1574D02*
X7Y1574D01*
X2354Y1574D02*
X2361Y1574D01*
X0Y1573D02*
X7Y1573D01*
X2354Y1573D02*
X2361Y1573D01*
X0Y1572D02*
X7Y1572D01*
X2354Y1572D02*
X2361Y1572D01*
X0Y1571D02*
X7Y1571D01*
X2354Y1571D02*
X2361Y1571D01*
X0Y1570D02*
X7Y1570D01*
X2354Y1570D02*
X2361Y1570D01*
X0Y1569D02*
X7Y1569D01*
X2354Y1569D02*
X2361Y1569D01*
X0Y1568D02*
X7Y1568D01*
X2354Y1568D02*
X2361Y1568D01*
X0Y1567D02*
X7Y1567D01*
X2354Y1567D02*
X2361Y1567D01*
X0Y1566D02*
X7Y1566D01*
X2354Y1566D02*
X2361Y1566D01*
X0Y1565D02*
X7Y1565D01*
X2354Y1565D02*
X2361Y1565D01*
X0Y1564D02*
X7Y1564D01*
X2354Y1564D02*
X2361Y1564D01*
X0Y1563D02*
X7Y1563D01*
X2354Y1563D02*
X2361Y1563D01*
X0Y1562D02*
X7Y1562D01*
X2354Y1562D02*
X2361Y1562D01*
X0Y1561D02*
X7Y1561D01*
X2354Y1561D02*
X2361Y1561D01*
X0Y1560D02*
X7Y1560D01*
X2354Y1560D02*
X2361Y1560D01*
X0Y1559D02*
X7Y1559D01*
X2354Y1559D02*
X2361Y1559D01*
X0Y1558D02*
X7Y1558D01*
X2354Y1558D02*
X2361Y1558D01*
X0Y1557D02*
X7Y1557D01*
X2354Y1557D02*
X2361Y1557D01*
X0Y1556D02*
X7Y1556D01*
X2354Y1556D02*
X2361Y1556D01*
X0Y1555D02*
X7Y1555D01*
X2354Y1555D02*
X2361Y1555D01*
X0Y1554D02*
X7Y1554D01*
X2354Y1554D02*
X2361Y1554D01*
X0Y1553D02*
X7Y1553D01*
X2354Y1553D02*
X2361Y1553D01*
X0Y1552D02*
X7Y1552D01*
X2354Y1552D02*
X2361Y1552D01*
X0Y1551D02*
X7Y1551D01*
X2354Y1551D02*
X2361Y1551D01*
X0Y1550D02*
X7Y1550D01*
X2354Y1550D02*
X2361Y1550D01*
X0Y1549D02*
X7Y1549D01*
X2354Y1549D02*
X2361Y1549D01*
X0Y1548D02*
X7Y1548D01*
X2354Y1548D02*
X2361Y1548D01*
X0Y1547D02*
X7Y1547D01*
X2354Y1547D02*
X2361Y1547D01*
X0Y1546D02*
X7Y1546D01*
X2354Y1546D02*
X2361Y1546D01*
X0Y1545D02*
X7Y1545D01*
X2354Y1545D02*
X2361Y1545D01*
X0Y1544D02*
X7Y1544D01*
X2354Y1544D02*
X2361Y1544D01*
X0Y1543D02*
X7Y1543D01*
X2354Y1543D02*
X2361Y1543D01*
X0Y1542D02*
X7Y1542D01*
X2354Y1542D02*
X2361Y1542D01*
X0Y1541D02*
X7Y1541D01*
X2354Y1541D02*
X2361Y1541D01*
X0Y1540D02*
X7Y1540D01*
X2354Y1540D02*
X2361Y1540D01*
X0Y1539D02*
X7Y1539D01*
X2354Y1539D02*
X2361Y1539D01*
X0Y1538D02*
X7Y1538D01*
X2354Y1538D02*
X2361Y1538D01*
X0Y1537D02*
X7Y1537D01*
X2354Y1537D02*
X2361Y1537D01*
X0Y1536D02*
X7Y1536D01*
X2354Y1536D02*
X2361Y1536D01*
X0Y1535D02*
X7Y1535D01*
X2354Y1535D02*
X2361Y1535D01*
X0Y1534D02*
X7Y1534D01*
X2354Y1534D02*
X2361Y1534D01*
X0Y1533D02*
X7Y1533D01*
X2354Y1533D02*
X2361Y1533D01*
X0Y1532D02*
X7Y1532D01*
X2354Y1532D02*
X2361Y1532D01*
X0Y1531D02*
X7Y1531D01*
X2354Y1531D02*
X2361Y1531D01*
X0Y1530D02*
X7Y1530D01*
X2354Y1530D02*
X2361Y1530D01*
X0Y1529D02*
X7Y1529D01*
X2354Y1529D02*
X2361Y1529D01*
X0Y1528D02*
X7Y1528D01*
X2354Y1528D02*
X2361Y1528D01*
X0Y1527D02*
X7Y1527D01*
X2354Y1527D02*
X2361Y1527D01*
X0Y1526D02*
X7Y1526D01*
X2354Y1526D02*
X2361Y1526D01*
X0Y1525D02*
X7Y1525D01*
X2354Y1525D02*
X2361Y1525D01*
X0Y1524D02*
X7Y1524D01*
X2354Y1524D02*
X2361Y1524D01*
X0Y1523D02*
X7Y1523D01*
X2354Y1523D02*
X2361Y1523D01*
X0Y1522D02*
X7Y1522D01*
X2354Y1522D02*
X2361Y1522D01*
X0Y1521D02*
X7Y1521D01*
X2354Y1521D02*
X2361Y1521D01*
X0Y1520D02*
X7Y1520D01*
X2354Y1520D02*
X2361Y1520D01*
X0Y1519D02*
X7Y1519D01*
X2354Y1519D02*
X2361Y1519D01*
X0Y1518D02*
X7Y1518D01*
X2354Y1518D02*
X2361Y1518D01*
X0Y1517D02*
X7Y1517D01*
X2354Y1517D02*
X2361Y1517D01*
X0Y1516D02*
X7Y1516D01*
X2354Y1516D02*
X2361Y1516D01*
X0Y1515D02*
X7Y1515D01*
X2354Y1515D02*
X2361Y1515D01*
X0Y1514D02*
X7Y1514D01*
X2354Y1514D02*
X2361Y1514D01*
X0Y1513D02*
X7Y1513D01*
X2354Y1513D02*
X2361Y1513D01*
X0Y1512D02*
X7Y1512D01*
X2354Y1512D02*
X2361Y1512D01*
X0Y1511D02*
X7Y1511D01*
X2354Y1511D02*
X2361Y1511D01*
X0Y1510D02*
X7Y1510D01*
X2354Y1510D02*
X2361Y1510D01*
X0Y1509D02*
X7Y1509D01*
X2354Y1509D02*
X2361Y1509D01*
X0Y1508D02*
X7Y1508D01*
X2354Y1508D02*
X2361Y1508D01*
X0Y1507D02*
X7Y1507D01*
X2354Y1507D02*
X2361Y1507D01*
X0Y1506D02*
X7Y1506D01*
X2354Y1506D02*
X2361Y1506D01*
X0Y1505D02*
X7Y1505D01*
X2354Y1505D02*
X2361Y1505D01*
X0Y1504D02*
X7Y1504D01*
X2354Y1504D02*
X2361Y1504D01*
X0Y1503D02*
X7Y1503D01*
X2354Y1503D02*
X2361Y1503D01*
X0Y1502D02*
X7Y1502D01*
X2354Y1502D02*
X2361Y1502D01*
X0Y1501D02*
X7Y1501D01*
X2354Y1501D02*
X2361Y1501D01*
X0Y1500D02*
X7Y1500D01*
X2354Y1500D02*
X2361Y1500D01*
X0Y1499D02*
X7Y1499D01*
X2354Y1499D02*
X2361Y1499D01*
X0Y1498D02*
X7Y1498D01*
X2354Y1498D02*
X2361Y1498D01*
X0Y1497D02*
X7Y1497D01*
X2354Y1497D02*
X2361Y1497D01*
X0Y1496D02*
X7Y1496D01*
X2354Y1496D02*
X2361Y1496D01*
X0Y1495D02*
X7Y1495D01*
X2354Y1495D02*
X2361Y1495D01*
X0Y1494D02*
X7Y1494D01*
X2354Y1494D02*
X2361Y1494D01*
X0Y1493D02*
X7Y1493D01*
X2354Y1493D02*
X2361Y1493D01*
X0Y1492D02*
X7Y1492D01*
X2354Y1492D02*
X2361Y1492D01*
X0Y1491D02*
X7Y1491D01*
X2354Y1491D02*
X2361Y1491D01*
X0Y1490D02*
X7Y1490D01*
X2354Y1490D02*
X2361Y1490D01*
X0Y1489D02*
X7Y1489D01*
X2354Y1489D02*
X2361Y1489D01*
X0Y1488D02*
X7Y1488D01*
X2354Y1488D02*
X2361Y1488D01*
X0Y1487D02*
X7Y1487D01*
X2354Y1487D02*
X2361Y1487D01*
X0Y1486D02*
X7Y1486D01*
X2354Y1486D02*
X2361Y1486D01*
X0Y1485D02*
X7Y1485D01*
X2354Y1485D02*
X2361Y1485D01*
X0Y1484D02*
X7Y1484D01*
X2354Y1484D02*
X2361Y1484D01*
X0Y1483D02*
X7Y1483D01*
X2354Y1483D02*
X2361Y1483D01*
X0Y1482D02*
X7Y1482D01*
X2354Y1482D02*
X2361Y1482D01*
X0Y1481D02*
X7Y1481D01*
X2354Y1481D02*
X2361Y1481D01*
X0Y1480D02*
X7Y1480D01*
X2354Y1480D02*
X2361Y1480D01*
X0Y1479D02*
X7Y1479D01*
X2354Y1479D02*
X2361Y1479D01*
X0Y1478D02*
X7Y1478D01*
X2354Y1478D02*
X2361Y1478D01*
X0Y1477D02*
X7Y1477D01*
X2354Y1477D02*
X2361Y1477D01*
X0Y1476D02*
X7Y1476D01*
X2354Y1476D02*
X2361Y1476D01*
X0Y1475D02*
X7Y1475D01*
X2354Y1475D02*
X2361Y1475D01*
X0Y1474D02*
X7Y1474D01*
X2354Y1474D02*
X2361Y1474D01*
X0Y1473D02*
X7Y1473D01*
X2354Y1473D02*
X2361Y1473D01*
X0Y1472D02*
X7Y1472D01*
X2354Y1472D02*
X2361Y1472D01*
X0Y1471D02*
X7Y1471D01*
X2354Y1471D02*
X2361Y1471D01*
X0Y1470D02*
X7Y1470D01*
X2354Y1470D02*
X2361Y1470D01*
X0Y1469D02*
X7Y1469D01*
X2354Y1469D02*
X2361Y1469D01*
X0Y1468D02*
X7Y1468D01*
X2354Y1468D02*
X2361Y1468D01*
X0Y1467D02*
X7Y1467D01*
X2354Y1467D02*
X2361Y1467D01*
X0Y1466D02*
X7Y1466D01*
X2354Y1466D02*
X2361Y1466D01*
X0Y1465D02*
X7Y1465D01*
X2354Y1465D02*
X2361Y1465D01*
X0Y1464D02*
X7Y1464D01*
X2354Y1464D02*
X2361Y1464D01*
X0Y1463D02*
X7Y1463D01*
X2354Y1463D02*
X2361Y1463D01*
X0Y1462D02*
X7Y1462D01*
X2354Y1462D02*
X2361Y1462D01*
X0Y1461D02*
X7Y1461D01*
X2354Y1461D02*
X2361Y1461D01*
X0Y1460D02*
X7Y1460D01*
X2354Y1460D02*
X2361Y1460D01*
X0Y1459D02*
X7Y1459D01*
X2354Y1459D02*
X2361Y1459D01*
X0Y1458D02*
X7Y1458D01*
X2354Y1458D02*
X2361Y1458D01*
X0Y1457D02*
X7Y1457D01*
X2354Y1457D02*
X2361Y1457D01*
X0Y1456D02*
X7Y1456D01*
X2354Y1456D02*
X2361Y1456D01*
X0Y1455D02*
X7Y1455D01*
X2354Y1455D02*
X2361Y1455D01*
X0Y1454D02*
X7Y1454D01*
X2354Y1454D02*
X2361Y1454D01*
X0Y1453D02*
X7Y1453D01*
X2354Y1453D02*
X2361Y1453D01*
X0Y1452D02*
X7Y1452D01*
X2354Y1452D02*
X2361Y1452D01*
X0Y1451D02*
X7Y1451D01*
X2354Y1451D02*
X2361Y1451D01*
X0Y1450D02*
X7Y1450D01*
X2354Y1450D02*
X2361Y1450D01*
X0Y1449D02*
X7Y1449D01*
X2354Y1449D02*
X2361Y1449D01*
X0Y1448D02*
X7Y1448D01*
X2354Y1448D02*
X2361Y1448D01*
X0Y1447D02*
X7Y1447D01*
X2354Y1447D02*
X2361Y1447D01*
X0Y1446D02*
X7Y1446D01*
X2354Y1446D02*
X2361Y1446D01*
X0Y1445D02*
X7Y1445D01*
X2354Y1445D02*
X2361Y1445D01*
X0Y1444D02*
X7Y1444D01*
X2354Y1444D02*
X2361Y1444D01*
X0Y1443D02*
X7Y1443D01*
X2354Y1443D02*
X2361Y1443D01*
X0Y1442D02*
X7Y1442D01*
X2354Y1442D02*
X2361Y1442D01*
X0Y1441D02*
X7Y1441D01*
X2354Y1441D02*
X2361Y1441D01*
X0Y1440D02*
X7Y1440D01*
X2354Y1440D02*
X2361Y1440D01*
X0Y1439D02*
X7Y1439D01*
X2354Y1439D02*
X2361Y1439D01*
X0Y1438D02*
X7Y1438D01*
X2354Y1438D02*
X2361Y1438D01*
X0Y1437D02*
X7Y1437D01*
X2354Y1437D02*
X2361Y1437D01*
X0Y1436D02*
X7Y1436D01*
X2354Y1436D02*
X2361Y1436D01*
X0Y1435D02*
X7Y1435D01*
X2354Y1435D02*
X2361Y1435D01*
X0Y1434D02*
X7Y1434D01*
X2354Y1434D02*
X2361Y1434D01*
X0Y1433D02*
X7Y1433D01*
X2354Y1433D02*
X2361Y1433D01*
X0Y1432D02*
X7Y1432D01*
X2354Y1432D02*
X2361Y1432D01*
X0Y1431D02*
X7Y1431D01*
X2354Y1431D02*
X2361Y1431D01*
X0Y1430D02*
X7Y1430D01*
X2354Y1430D02*
X2361Y1430D01*
X0Y1429D02*
X7Y1429D01*
X2354Y1429D02*
X2361Y1429D01*
X0Y1428D02*
X7Y1428D01*
X2354Y1428D02*
X2361Y1428D01*
X0Y1427D02*
X7Y1427D01*
X2354Y1427D02*
X2361Y1427D01*
X0Y1426D02*
X7Y1426D01*
X2354Y1426D02*
X2361Y1426D01*
X0Y1425D02*
X7Y1425D01*
X2354Y1425D02*
X2361Y1425D01*
X0Y1424D02*
X7Y1424D01*
X2354Y1424D02*
X2361Y1424D01*
X0Y1423D02*
X7Y1423D01*
X2354Y1423D02*
X2361Y1423D01*
X0Y1422D02*
X7Y1422D01*
X2354Y1422D02*
X2361Y1422D01*
X0Y1421D02*
X7Y1421D01*
X2354Y1421D02*
X2361Y1421D01*
X0Y1420D02*
X7Y1420D01*
X2354Y1420D02*
X2361Y1420D01*
X0Y1419D02*
X7Y1419D01*
X2354Y1419D02*
X2361Y1419D01*
X0Y1418D02*
X7Y1418D01*
X2354Y1418D02*
X2361Y1418D01*
X0Y1417D02*
X7Y1417D01*
X2354Y1417D02*
X2361Y1417D01*
X0Y1416D02*
X7Y1416D01*
X2354Y1416D02*
X2361Y1416D01*
X0Y1415D02*
X7Y1415D01*
X2354Y1415D02*
X2361Y1415D01*
X0Y1414D02*
X7Y1414D01*
X2354Y1414D02*
X2361Y1414D01*
X0Y1413D02*
X7Y1413D01*
X2354Y1413D02*
X2361Y1413D01*
X0Y1412D02*
X7Y1412D01*
X2354Y1412D02*
X2361Y1412D01*
X0Y1411D02*
X7Y1411D01*
X2354Y1411D02*
X2361Y1411D01*
X0Y1410D02*
X7Y1410D01*
X2354Y1410D02*
X2361Y1410D01*
X0Y1409D02*
X7Y1409D01*
X2354Y1409D02*
X2361Y1409D01*
X0Y1408D02*
X7Y1408D01*
X2354Y1408D02*
X2361Y1408D01*
X0Y1407D02*
X7Y1407D01*
X2354Y1407D02*
X2361Y1407D01*
X0Y1406D02*
X7Y1406D01*
X2354Y1406D02*
X2361Y1406D01*
X0Y1405D02*
X7Y1405D01*
X2354Y1405D02*
X2361Y1405D01*
X0Y1404D02*
X7Y1404D01*
X2354Y1404D02*
X2361Y1404D01*
X0Y1403D02*
X7Y1403D01*
X2354Y1403D02*
X2361Y1403D01*
X0Y1402D02*
X7Y1402D01*
X2354Y1402D02*
X2361Y1402D01*
X0Y1401D02*
X7Y1401D01*
X2354Y1401D02*
X2361Y1401D01*
X0Y1400D02*
X7Y1400D01*
X2354Y1400D02*
X2361Y1400D01*
X0Y1399D02*
X7Y1399D01*
X2354Y1399D02*
X2361Y1399D01*
X0Y1398D02*
X7Y1398D01*
X2354Y1398D02*
X2361Y1398D01*
X0Y1397D02*
X7Y1397D01*
X2354Y1397D02*
X2361Y1397D01*
X0Y1396D02*
X7Y1396D01*
X2354Y1396D02*
X2361Y1396D01*
X0Y1395D02*
X7Y1395D01*
X2354Y1395D02*
X2361Y1395D01*
X0Y1394D02*
X7Y1394D01*
X2354Y1394D02*
X2361Y1394D01*
X0Y1393D02*
X7Y1393D01*
X2354Y1393D02*
X2361Y1393D01*
X0Y1392D02*
X7Y1392D01*
X2354Y1392D02*
X2361Y1392D01*
X0Y1391D02*
X7Y1391D01*
X2354Y1391D02*
X2361Y1391D01*
X0Y1390D02*
X7Y1390D01*
X2354Y1390D02*
X2361Y1390D01*
X0Y1389D02*
X7Y1389D01*
X2354Y1389D02*
X2361Y1389D01*
X0Y1388D02*
X7Y1388D01*
X2354Y1388D02*
X2361Y1388D01*
X0Y1387D02*
X7Y1387D01*
X2354Y1387D02*
X2361Y1387D01*
X0Y1386D02*
X7Y1386D01*
X2354Y1386D02*
X2361Y1386D01*
X0Y1385D02*
X7Y1385D01*
X2354Y1385D02*
X2361Y1385D01*
X0Y1384D02*
X7Y1384D01*
X2354Y1384D02*
X2361Y1384D01*
X0Y1383D02*
X7Y1383D01*
X2354Y1383D02*
X2361Y1383D01*
X0Y1382D02*
X7Y1382D01*
X2354Y1382D02*
X2361Y1382D01*
X0Y1381D02*
X7Y1381D01*
X2354Y1381D02*
X2361Y1381D01*
X0Y1380D02*
X7Y1380D01*
X2354Y1380D02*
X2361Y1380D01*
X0Y1379D02*
X7Y1379D01*
X2354Y1379D02*
X2361Y1379D01*
X0Y1378D02*
X7Y1378D01*
X2354Y1378D02*
X2361Y1378D01*
X0Y1377D02*
X7Y1377D01*
X2354Y1377D02*
X2361Y1377D01*
X0Y1376D02*
X7Y1376D01*
X2354Y1376D02*
X2361Y1376D01*
X0Y1375D02*
X7Y1375D01*
X2354Y1375D02*
X2361Y1375D01*
X0Y1374D02*
X7Y1374D01*
X2354Y1374D02*
X2361Y1374D01*
X0Y1373D02*
X7Y1373D01*
X2354Y1373D02*
X2361Y1373D01*
X0Y1372D02*
X7Y1372D01*
X2354Y1372D02*
X2361Y1372D01*
X0Y1371D02*
X7Y1371D01*
X2354Y1371D02*
X2361Y1371D01*
X0Y1370D02*
X7Y1370D01*
X2354Y1370D02*
X2361Y1370D01*
X0Y1369D02*
X7Y1369D01*
X2354Y1369D02*
X2361Y1369D01*
X0Y1368D02*
X7Y1368D01*
X2354Y1368D02*
X2361Y1368D01*
X0Y1367D02*
X7Y1367D01*
X2354Y1367D02*
X2361Y1367D01*
X0Y1366D02*
X7Y1366D01*
X2354Y1366D02*
X2361Y1366D01*
X0Y1365D02*
X7Y1365D01*
X2354Y1365D02*
X2361Y1365D01*
X0Y1364D02*
X7Y1364D01*
X2354Y1364D02*
X2361Y1364D01*
X0Y1363D02*
X7Y1363D01*
X2354Y1363D02*
X2361Y1363D01*
X0Y1362D02*
X7Y1362D01*
X2354Y1362D02*
X2361Y1362D01*
X0Y1361D02*
X7Y1361D01*
X2354Y1361D02*
X2361Y1361D01*
X0Y1360D02*
X7Y1360D01*
X2354Y1360D02*
X2361Y1360D01*
X0Y1359D02*
X7Y1359D01*
X2354Y1359D02*
X2361Y1359D01*
X0Y1358D02*
X7Y1358D01*
X2354Y1358D02*
X2361Y1358D01*
X0Y1357D02*
X7Y1357D01*
X2354Y1357D02*
X2361Y1357D01*
X0Y1356D02*
X7Y1356D01*
X2354Y1356D02*
X2361Y1356D01*
X0Y1355D02*
X7Y1355D01*
X2354Y1355D02*
X2361Y1355D01*
X0Y1354D02*
X7Y1354D01*
X2354Y1354D02*
X2361Y1354D01*
X0Y1353D02*
X7Y1353D01*
X2354Y1353D02*
X2361Y1353D01*
X0Y1352D02*
X7Y1352D01*
X2354Y1352D02*
X2361Y1352D01*
X0Y1351D02*
X7Y1351D01*
X2354Y1351D02*
X2361Y1351D01*
X0Y1350D02*
X7Y1350D01*
X2354Y1350D02*
X2361Y1350D01*
X0Y1349D02*
X7Y1349D01*
X2354Y1349D02*
X2361Y1349D01*
X0Y1348D02*
X7Y1348D01*
X2354Y1348D02*
X2361Y1348D01*
X0Y1347D02*
X7Y1347D01*
X2354Y1347D02*
X2361Y1347D01*
X0Y1346D02*
X7Y1346D01*
X2354Y1346D02*
X2361Y1346D01*
X0Y1345D02*
X7Y1345D01*
X2354Y1345D02*
X2361Y1345D01*
X0Y1344D02*
X7Y1344D01*
X2354Y1344D02*
X2361Y1344D01*
X0Y1343D02*
X7Y1343D01*
X2354Y1343D02*
X2361Y1343D01*
X0Y1342D02*
X7Y1342D01*
X2354Y1342D02*
X2361Y1342D01*
X0Y1341D02*
X7Y1341D01*
X2354Y1341D02*
X2361Y1341D01*
X0Y1340D02*
X7Y1340D01*
X2354Y1340D02*
X2361Y1340D01*
X0Y1339D02*
X7Y1339D01*
X2354Y1339D02*
X2361Y1339D01*
X0Y1338D02*
X7Y1338D01*
X2354Y1338D02*
X2361Y1338D01*
X0Y1337D02*
X7Y1337D01*
X1966Y1337D02*
X2056Y1337D01*
X2354Y1337D02*
X2361Y1337D01*
X0Y1336D02*
X7Y1336D01*
X1966Y1336D02*
X2056Y1336D01*
X2354Y1336D02*
X2361Y1336D01*
X0Y1335D02*
X7Y1335D01*
X1966Y1335D02*
X2056Y1335D01*
X2354Y1335D02*
X2361Y1335D01*
X0Y1334D02*
X7Y1334D01*
X1966Y1334D02*
X1968Y1334D01*
X2054Y1334D02*
X2056Y1334D01*
X2354Y1334D02*
X2361Y1334D01*
X0Y1333D02*
X7Y1333D01*
X1966Y1333D02*
X1968Y1333D01*
X2054Y1333D02*
X2056Y1333D01*
X2354Y1333D02*
X2361Y1333D01*
X0Y1332D02*
X7Y1332D01*
X1966Y1332D02*
X1968Y1332D01*
X2054Y1332D02*
X2056Y1332D01*
X2354Y1332D02*
X2361Y1332D01*
X0Y1331D02*
X7Y1331D01*
X1966Y1331D02*
X1968Y1331D01*
X2054Y1331D02*
X2056Y1331D01*
X2354Y1331D02*
X2361Y1331D01*
X0Y1330D02*
X7Y1330D01*
X1966Y1330D02*
X1968Y1330D01*
X2054Y1330D02*
X2056Y1330D01*
X2354Y1330D02*
X2361Y1330D01*
X0Y1329D02*
X7Y1329D01*
X1966Y1329D02*
X1968Y1329D01*
X2054Y1329D02*
X2056Y1329D01*
X2354Y1329D02*
X2361Y1329D01*
X0Y1328D02*
X7Y1328D01*
X1966Y1328D02*
X1968Y1328D01*
X2054Y1328D02*
X2056Y1328D01*
X2354Y1328D02*
X2361Y1328D01*
X0Y1327D02*
X7Y1327D01*
X1966Y1327D02*
X1968Y1327D01*
X2054Y1327D02*
X2056Y1327D01*
X2354Y1327D02*
X2361Y1327D01*
X0Y1326D02*
X7Y1326D01*
X1966Y1326D02*
X1968Y1326D01*
X2054Y1326D02*
X2056Y1326D01*
X2354Y1326D02*
X2361Y1326D01*
X0Y1325D02*
X7Y1325D01*
X1966Y1325D02*
X1968Y1325D01*
X2054Y1325D02*
X2056Y1325D01*
X2354Y1325D02*
X2361Y1325D01*
X0Y1324D02*
X7Y1324D01*
X1966Y1324D02*
X1968Y1324D01*
X2054Y1324D02*
X2056Y1324D01*
X2354Y1324D02*
X2361Y1324D01*
X0Y1323D02*
X7Y1323D01*
X1966Y1323D02*
X1968Y1323D01*
X2054Y1323D02*
X2056Y1323D01*
X2354Y1323D02*
X2361Y1323D01*
X0Y1322D02*
X7Y1322D01*
X1966Y1322D02*
X1968Y1322D01*
X2054Y1322D02*
X2056Y1322D01*
X2354Y1322D02*
X2361Y1322D01*
X0Y1321D02*
X7Y1321D01*
X1966Y1321D02*
X1968Y1321D01*
X2054Y1321D02*
X2056Y1321D01*
X2354Y1321D02*
X2361Y1321D01*
X0Y1320D02*
X7Y1320D01*
X1966Y1320D02*
X1968Y1320D01*
X2054Y1320D02*
X2056Y1320D01*
X2354Y1320D02*
X2361Y1320D01*
X0Y1319D02*
X7Y1319D01*
X1966Y1319D02*
X1968Y1319D01*
X2054Y1319D02*
X2056Y1319D01*
X2354Y1319D02*
X2361Y1319D01*
X0Y1318D02*
X7Y1318D01*
X1966Y1318D02*
X1968Y1318D01*
X2054Y1318D02*
X2056Y1318D01*
X2354Y1318D02*
X2361Y1318D01*
X0Y1317D02*
X7Y1317D01*
X1966Y1317D02*
X1968Y1317D01*
X2054Y1317D02*
X2056Y1317D01*
X2354Y1317D02*
X2361Y1317D01*
X0Y1316D02*
X7Y1316D01*
X1966Y1316D02*
X1968Y1316D01*
X2054Y1316D02*
X2056Y1316D01*
X2354Y1316D02*
X2361Y1316D01*
X0Y1315D02*
X7Y1315D01*
X1966Y1315D02*
X1968Y1315D01*
X2054Y1315D02*
X2056Y1315D01*
X2354Y1315D02*
X2361Y1315D01*
X0Y1314D02*
X7Y1314D01*
X1966Y1314D02*
X1968Y1314D01*
X2054Y1314D02*
X2056Y1314D01*
X2354Y1314D02*
X2361Y1314D01*
X0Y1313D02*
X7Y1313D01*
X1966Y1313D02*
X1968Y1313D01*
X2054Y1313D02*
X2056Y1313D01*
X2354Y1313D02*
X2361Y1313D01*
X0Y1312D02*
X7Y1312D01*
X1966Y1312D02*
X1968Y1312D01*
X2054Y1312D02*
X2056Y1312D01*
X2354Y1312D02*
X2361Y1312D01*
X0Y1311D02*
X7Y1311D01*
X1966Y1311D02*
X1968Y1311D01*
X2054Y1311D02*
X2056Y1311D01*
X2354Y1311D02*
X2361Y1311D01*
X0Y1310D02*
X7Y1310D01*
X1966Y1310D02*
X1968Y1310D01*
X2054Y1310D02*
X2056Y1310D01*
X2354Y1310D02*
X2361Y1310D01*
X0Y1309D02*
X7Y1309D01*
X1966Y1309D02*
X1968Y1309D01*
X2054Y1309D02*
X2056Y1309D01*
X2354Y1309D02*
X2361Y1309D01*
X0Y1308D02*
X7Y1308D01*
X1966Y1308D02*
X1968Y1308D01*
X2054Y1308D02*
X2056Y1308D01*
X2354Y1308D02*
X2361Y1308D01*
X0Y1307D02*
X7Y1307D01*
X1966Y1307D02*
X1968Y1307D01*
X2054Y1307D02*
X2056Y1307D01*
X2354Y1307D02*
X2361Y1307D01*
X0Y1306D02*
X7Y1306D01*
X1966Y1306D02*
X1968Y1306D01*
X2054Y1306D02*
X2056Y1306D01*
X2354Y1306D02*
X2361Y1306D01*
X0Y1305D02*
X7Y1305D01*
X1966Y1305D02*
X1968Y1305D01*
X2054Y1305D02*
X2056Y1305D01*
X2354Y1305D02*
X2361Y1305D01*
X0Y1304D02*
X7Y1304D01*
X1966Y1304D02*
X1968Y1304D01*
X2054Y1304D02*
X2056Y1304D01*
X2354Y1304D02*
X2361Y1304D01*
X0Y1303D02*
X7Y1303D01*
X1966Y1303D02*
X1968Y1303D01*
X2054Y1303D02*
X2056Y1303D01*
X2354Y1303D02*
X2361Y1303D01*
X0Y1302D02*
X7Y1302D01*
X1966Y1302D02*
X1968Y1302D01*
X2054Y1302D02*
X2056Y1302D01*
X2354Y1302D02*
X2361Y1302D01*
X0Y1301D02*
X7Y1301D01*
X1966Y1301D02*
X1968Y1301D01*
X2054Y1301D02*
X2056Y1301D01*
X2354Y1301D02*
X2361Y1301D01*
X0Y1300D02*
X7Y1300D01*
X1966Y1300D02*
X1968Y1300D01*
X2054Y1300D02*
X2056Y1300D01*
X2354Y1300D02*
X2361Y1300D01*
X0Y1299D02*
X7Y1299D01*
X1966Y1299D02*
X1968Y1299D01*
X2054Y1299D02*
X2056Y1299D01*
X2354Y1299D02*
X2361Y1299D01*
X0Y1298D02*
X7Y1298D01*
X1966Y1298D02*
X1968Y1298D01*
X2054Y1298D02*
X2056Y1298D01*
X2354Y1298D02*
X2361Y1298D01*
X0Y1297D02*
X7Y1297D01*
X1966Y1297D02*
X1968Y1297D01*
X2054Y1297D02*
X2056Y1297D01*
X2354Y1297D02*
X2361Y1297D01*
X0Y1296D02*
X7Y1296D01*
X1966Y1296D02*
X1968Y1296D01*
X2054Y1296D02*
X2056Y1296D01*
X2354Y1296D02*
X2361Y1296D01*
X0Y1295D02*
X7Y1295D01*
X1966Y1295D02*
X1968Y1295D01*
X2054Y1295D02*
X2056Y1295D01*
X2354Y1295D02*
X2361Y1295D01*
X0Y1294D02*
X7Y1294D01*
X1966Y1294D02*
X1968Y1294D01*
X2054Y1294D02*
X2056Y1294D01*
X2354Y1294D02*
X2361Y1294D01*
X0Y1293D02*
X7Y1293D01*
X1966Y1293D02*
X1968Y1293D01*
X2054Y1293D02*
X2056Y1293D01*
X2354Y1293D02*
X2361Y1293D01*
X0Y1292D02*
X7Y1292D01*
X1966Y1292D02*
X1968Y1292D01*
X2054Y1292D02*
X2056Y1292D01*
X2354Y1292D02*
X2361Y1292D01*
X0Y1291D02*
X7Y1291D01*
X1966Y1291D02*
X1968Y1291D01*
X2054Y1291D02*
X2056Y1291D01*
X2354Y1291D02*
X2361Y1291D01*
X0Y1290D02*
X7Y1290D01*
X1966Y1290D02*
X1968Y1290D01*
X2054Y1290D02*
X2056Y1290D01*
X2354Y1290D02*
X2361Y1290D01*
X0Y1289D02*
X7Y1289D01*
X1966Y1289D02*
X1968Y1289D01*
X2054Y1289D02*
X2056Y1289D01*
X2354Y1289D02*
X2361Y1289D01*
X0Y1288D02*
X7Y1288D01*
X1966Y1288D02*
X1968Y1288D01*
X2054Y1288D02*
X2056Y1288D01*
X2354Y1288D02*
X2361Y1288D01*
X0Y1287D02*
X7Y1287D01*
X1966Y1287D02*
X1968Y1287D01*
X2054Y1287D02*
X2056Y1287D01*
X2354Y1287D02*
X2361Y1287D01*
X0Y1286D02*
X7Y1286D01*
X1966Y1286D02*
X1968Y1286D01*
X2054Y1286D02*
X2056Y1286D01*
X2354Y1286D02*
X2361Y1286D01*
X0Y1285D02*
X7Y1285D01*
X1966Y1285D02*
X1968Y1285D01*
X2054Y1285D02*
X2056Y1285D01*
X2354Y1285D02*
X2361Y1285D01*
X0Y1284D02*
X7Y1284D01*
X1966Y1284D02*
X1968Y1284D01*
X2054Y1284D02*
X2056Y1284D01*
X2354Y1284D02*
X2361Y1284D01*
X0Y1283D02*
X7Y1283D01*
X1966Y1283D02*
X1968Y1283D01*
X2054Y1283D02*
X2056Y1283D01*
X2354Y1283D02*
X2361Y1283D01*
X0Y1282D02*
X7Y1282D01*
X1966Y1282D02*
X1968Y1282D01*
X2054Y1282D02*
X2056Y1282D01*
X2354Y1282D02*
X2361Y1282D01*
X0Y1281D02*
X7Y1281D01*
X1966Y1281D02*
X1968Y1281D01*
X2054Y1281D02*
X2056Y1281D01*
X2354Y1281D02*
X2361Y1281D01*
X0Y1280D02*
X7Y1280D01*
X1966Y1280D02*
X1968Y1280D01*
X2054Y1280D02*
X2056Y1280D01*
X2354Y1280D02*
X2361Y1280D01*
X0Y1279D02*
X7Y1279D01*
X1966Y1279D02*
X1968Y1279D01*
X2054Y1279D02*
X2056Y1279D01*
X2354Y1279D02*
X2361Y1279D01*
X0Y1278D02*
X7Y1278D01*
X1966Y1278D02*
X1968Y1278D01*
X2054Y1278D02*
X2056Y1278D01*
X2354Y1278D02*
X2361Y1278D01*
X0Y1277D02*
X7Y1277D01*
X1966Y1277D02*
X1968Y1277D01*
X2054Y1277D02*
X2056Y1277D01*
X2354Y1277D02*
X2361Y1277D01*
X0Y1276D02*
X7Y1276D01*
X1966Y1276D02*
X1968Y1276D01*
X2054Y1276D02*
X2056Y1276D01*
X2354Y1276D02*
X2361Y1276D01*
X0Y1275D02*
X7Y1275D01*
X1966Y1275D02*
X1968Y1275D01*
X2054Y1275D02*
X2056Y1275D01*
X2354Y1275D02*
X2361Y1275D01*
X0Y1274D02*
X7Y1274D01*
X1966Y1274D02*
X1968Y1274D01*
X2054Y1274D02*
X2056Y1274D01*
X2354Y1274D02*
X2361Y1274D01*
X0Y1273D02*
X7Y1273D01*
X1966Y1273D02*
X1968Y1273D01*
X2054Y1273D02*
X2056Y1273D01*
X2354Y1273D02*
X2361Y1273D01*
X0Y1272D02*
X7Y1272D01*
X1966Y1272D02*
X1968Y1272D01*
X2054Y1272D02*
X2056Y1272D01*
X2354Y1272D02*
X2361Y1272D01*
X0Y1271D02*
X7Y1271D01*
X1966Y1271D02*
X1968Y1271D01*
X2054Y1271D02*
X2056Y1271D01*
X2354Y1271D02*
X2361Y1271D01*
X0Y1270D02*
X7Y1270D01*
X1966Y1270D02*
X1968Y1270D01*
X2054Y1270D02*
X2056Y1270D01*
X2354Y1270D02*
X2361Y1270D01*
X0Y1269D02*
X7Y1269D01*
X1966Y1269D02*
X1968Y1269D01*
X2054Y1269D02*
X2056Y1269D01*
X2354Y1269D02*
X2361Y1269D01*
X0Y1268D02*
X7Y1268D01*
X1966Y1268D02*
X1968Y1268D01*
X2054Y1268D02*
X2056Y1268D01*
X2354Y1268D02*
X2361Y1268D01*
X0Y1267D02*
X7Y1267D01*
X1966Y1267D02*
X1968Y1267D01*
X2054Y1267D02*
X2056Y1267D01*
X2354Y1267D02*
X2361Y1267D01*
X0Y1266D02*
X7Y1266D01*
X1966Y1266D02*
X1968Y1266D01*
X2054Y1266D02*
X2056Y1266D01*
X2354Y1266D02*
X2361Y1266D01*
X0Y1265D02*
X7Y1265D01*
X1966Y1265D02*
X1968Y1265D01*
X2054Y1265D02*
X2056Y1265D01*
X2354Y1265D02*
X2361Y1265D01*
X0Y1264D02*
X7Y1264D01*
X1966Y1264D02*
X1968Y1264D01*
X2054Y1264D02*
X2056Y1264D01*
X2354Y1264D02*
X2361Y1264D01*
X0Y1263D02*
X7Y1263D01*
X1966Y1263D02*
X1968Y1263D01*
X2054Y1263D02*
X2056Y1263D01*
X2354Y1263D02*
X2361Y1263D01*
X0Y1262D02*
X7Y1262D01*
X1966Y1262D02*
X1968Y1262D01*
X2054Y1262D02*
X2056Y1262D01*
X2354Y1262D02*
X2361Y1262D01*
X0Y1261D02*
X7Y1261D01*
X1966Y1261D02*
X1969Y1261D01*
X2053Y1261D02*
X2056Y1261D01*
X2354Y1261D02*
X2361Y1261D01*
X0Y1260D02*
X7Y1260D01*
X1966Y1260D02*
X1969Y1260D01*
X2053Y1260D02*
X2056Y1260D01*
X2354Y1260D02*
X2361Y1260D01*
X0Y1259D02*
X7Y1259D01*
X1966Y1259D02*
X1969Y1259D01*
X2053Y1259D02*
X2056Y1259D01*
X2354Y1259D02*
X2361Y1259D01*
X0Y1258D02*
X7Y1258D01*
X1966Y1258D02*
X1969Y1258D01*
X2053Y1258D02*
X2056Y1258D01*
X2354Y1258D02*
X2361Y1258D01*
X0Y1257D02*
X7Y1257D01*
X1966Y1257D02*
X1969Y1257D01*
X2053Y1257D02*
X2056Y1257D01*
X2354Y1257D02*
X2361Y1257D01*
X0Y1256D02*
X7Y1256D01*
X1966Y1256D02*
X1969Y1256D01*
X2053Y1256D02*
X2056Y1256D01*
X2354Y1256D02*
X2361Y1256D01*
X0Y1255D02*
X7Y1255D01*
X1966Y1255D02*
X1969Y1255D01*
X2053Y1255D02*
X2056Y1255D01*
X2354Y1255D02*
X2361Y1255D01*
X0Y1254D02*
X7Y1254D01*
X1966Y1254D02*
X1969Y1254D01*
X2053Y1254D02*
X2056Y1254D01*
X2354Y1254D02*
X2361Y1254D01*
X0Y1253D02*
X7Y1253D01*
X1966Y1253D02*
X1969Y1253D01*
X2053Y1253D02*
X2056Y1253D01*
X2354Y1253D02*
X2361Y1253D01*
X0Y1252D02*
X7Y1252D01*
X1966Y1252D02*
X1969Y1252D01*
X2053Y1252D02*
X2056Y1252D01*
X2354Y1252D02*
X2361Y1252D01*
X0Y1251D02*
X7Y1251D01*
X1966Y1251D02*
X1969Y1251D01*
X2053Y1251D02*
X2056Y1251D01*
X2354Y1251D02*
X2361Y1251D01*
X0Y1250D02*
X7Y1250D01*
X1966Y1250D02*
X1969Y1250D01*
X2053Y1250D02*
X2056Y1250D01*
X2354Y1250D02*
X2361Y1250D01*
X0Y1249D02*
X7Y1249D01*
X1966Y1249D02*
X1969Y1249D01*
X2053Y1249D02*
X2056Y1249D01*
X2354Y1249D02*
X2361Y1249D01*
X0Y1248D02*
X7Y1248D01*
X1966Y1248D02*
X1969Y1248D01*
X2053Y1248D02*
X2056Y1248D01*
X2354Y1248D02*
X2361Y1248D01*
X0Y1247D02*
X7Y1247D01*
X1966Y1247D02*
X1969Y1247D01*
X2053Y1247D02*
X2056Y1247D01*
X2354Y1247D02*
X2361Y1247D01*
X0Y1246D02*
X7Y1246D01*
X1966Y1246D02*
X1969Y1246D01*
X2053Y1246D02*
X2056Y1246D01*
X2354Y1246D02*
X2361Y1246D01*
X0Y1245D02*
X7Y1245D01*
X1966Y1245D02*
X1969Y1245D01*
X2053Y1245D02*
X2056Y1245D01*
X2354Y1245D02*
X2361Y1245D01*
X0Y1244D02*
X7Y1244D01*
X1966Y1244D02*
X1969Y1244D01*
X2053Y1244D02*
X2056Y1244D01*
X2354Y1244D02*
X2361Y1244D01*
X0Y1243D02*
X7Y1243D01*
X1966Y1243D02*
X1969Y1243D01*
X2053Y1243D02*
X2056Y1243D01*
X2354Y1243D02*
X2361Y1243D01*
X0Y1242D02*
X7Y1242D01*
X1966Y1242D02*
X1969Y1242D01*
X2053Y1242D02*
X2056Y1242D01*
X2354Y1242D02*
X2361Y1242D01*
X0Y1241D02*
X7Y1241D01*
X1966Y1241D02*
X1969Y1241D01*
X2053Y1241D02*
X2056Y1241D01*
X2354Y1241D02*
X2361Y1241D01*
X0Y1240D02*
X7Y1240D01*
X1966Y1240D02*
X1969Y1240D01*
X2053Y1240D02*
X2056Y1240D01*
X2354Y1240D02*
X2361Y1240D01*
X0Y1239D02*
X7Y1239D01*
X1966Y1239D02*
X1969Y1239D01*
X2053Y1239D02*
X2056Y1239D01*
X2354Y1239D02*
X2361Y1239D01*
X0Y1238D02*
X7Y1238D01*
X1966Y1238D02*
X1969Y1238D01*
X2053Y1238D02*
X2056Y1238D01*
X2354Y1238D02*
X2361Y1238D01*
X0Y1237D02*
X7Y1237D01*
X1966Y1237D02*
X1969Y1237D01*
X2053Y1237D02*
X2056Y1237D01*
X2354Y1237D02*
X2361Y1237D01*
X0Y1236D02*
X7Y1236D01*
X1966Y1236D02*
X1969Y1236D01*
X2053Y1236D02*
X2056Y1236D01*
X2354Y1236D02*
X2361Y1236D01*
X0Y1235D02*
X7Y1235D01*
X1966Y1235D02*
X1969Y1235D01*
X2053Y1235D02*
X2056Y1235D01*
X2354Y1235D02*
X2361Y1235D01*
X0Y1234D02*
X7Y1234D01*
X1966Y1234D02*
X1969Y1234D01*
X2053Y1234D02*
X2056Y1234D01*
X2354Y1234D02*
X2361Y1234D01*
X0Y1233D02*
X7Y1233D01*
X1966Y1233D02*
X1969Y1233D01*
X2053Y1233D02*
X2056Y1233D01*
X2354Y1233D02*
X2361Y1233D01*
X0Y1232D02*
X7Y1232D01*
X1966Y1232D02*
X1969Y1232D01*
X2053Y1232D02*
X2056Y1232D01*
X2354Y1232D02*
X2361Y1232D01*
X0Y1231D02*
X7Y1231D01*
X1966Y1231D02*
X1969Y1231D01*
X2053Y1231D02*
X2056Y1231D01*
X2354Y1231D02*
X2361Y1231D01*
X0Y1230D02*
X7Y1230D01*
X1966Y1230D02*
X1969Y1230D01*
X2053Y1230D02*
X2056Y1230D01*
X2354Y1230D02*
X2361Y1230D01*
X0Y1229D02*
X7Y1229D01*
X1966Y1229D02*
X1969Y1229D01*
X2053Y1229D02*
X2056Y1229D01*
X2354Y1229D02*
X2361Y1229D01*
X0Y1228D02*
X7Y1228D01*
X1966Y1228D02*
X1969Y1228D01*
X2053Y1228D02*
X2056Y1228D01*
X2354Y1228D02*
X2361Y1228D01*
X0Y1227D02*
X7Y1227D01*
X1966Y1227D02*
X1969Y1227D01*
X2053Y1227D02*
X2056Y1227D01*
X2354Y1227D02*
X2361Y1227D01*
X0Y1226D02*
X7Y1226D01*
X1966Y1226D02*
X1969Y1226D01*
X2053Y1226D02*
X2056Y1226D01*
X2354Y1226D02*
X2361Y1226D01*
X0Y1225D02*
X7Y1225D01*
X1966Y1225D02*
X1969Y1225D01*
X2053Y1225D02*
X2056Y1225D01*
X2354Y1225D02*
X2361Y1225D01*
X0Y1224D02*
X7Y1224D01*
X1966Y1224D02*
X1969Y1224D01*
X2053Y1224D02*
X2056Y1224D01*
X2354Y1224D02*
X2361Y1224D01*
X0Y1223D02*
X7Y1223D01*
X1966Y1223D02*
X1969Y1223D01*
X2053Y1223D02*
X2056Y1223D01*
X2354Y1223D02*
X2361Y1223D01*
X0Y1222D02*
X7Y1222D01*
X1966Y1222D02*
X1969Y1222D01*
X2053Y1222D02*
X2056Y1222D01*
X2354Y1222D02*
X2361Y1222D01*
X0Y1221D02*
X7Y1221D01*
X1966Y1221D02*
X1969Y1221D01*
X2053Y1221D02*
X2056Y1221D01*
X2354Y1221D02*
X2361Y1221D01*
X0Y1220D02*
X7Y1220D01*
X1966Y1220D02*
X1969Y1220D01*
X2053Y1220D02*
X2056Y1220D01*
X2354Y1220D02*
X2361Y1220D01*
X0Y1219D02*
X7Y1219D01*
X1966Y1219D02*
X1969Y1219D01*
X2053Y1219D02*
X2056Y1219D01*
X2354Y1219D02*
X2361Y1219D01*
X0Y1218D02*
X7Y1218D01*
X1966Y1218D02*
X1969Y1218D01*
X2053Y1218D02*
X2056Y1218D01*
X2354Y1218D02*
X2361Y1218D01*
X0Y1217D02*
X7Y1217D01*
X1966Y1217D02*
X1969Y1217D01*
X2053Y1217D02*
X2056Y1217D01*
X2354Y1217D02*
X2361Y1217D01*
X0Y1216D02*
X7Y1216D01*
X1966Y1216D02*
X1969Y1216D01*
X2053Y1216D02*
X2056Y1216D01*
X2354Y1216D02*
X2361Y1216D01*
X0Y1215D02*
X7Y1215D01*
X1966Y1215D02*
X1969Y1215D01*
X1974Y1215D02*
X2048Y1215D01*
X2053Y1215D02*
X2056Y1215D01*
X2354Y1215D02*
X2361Y1215D01*
X0Y1214D02*
X7Y1214D01*
X1966Y1214D02*
X1969Y1214D01*
X1974Y1214D02*
X2048Y1214D01*
X2053Y1214D02*
X2056Y1214D01*
X2354Y1214D02*
X2361Y1214D01*
X0Y1213D02*
X7Y1213D01*
X1966Y1213D02*
X1969Y1213D01*
X1974Y1213D02*
X2048Y1213D01*
X2053Y1213D02*
X2056Y1213D01*
X2354Y1213D02*
X2361Y1213D01*
X0Y1212D02*
X7Y1212D01*
X1966Y1212D02*
X1968Y1212D01*
X2054Y1212D02*
X2056Y1212D01*
X2354Y1212D02*
X2361Y1212D01*
X0Y1211D02*
X7Y1211D01*
X1966Y1211D02*
X1968Y1211D01*
X2054Y1211D02*
X2056Y1211D01*
X2354Y1211D02*
X2361Y1211D01*
X0Y1210D02*
X7Y1210D01*
X1966Y1210D02*
X1968Y1210D01*
X2054Y1210D02*
X2056Y1210D01*
X2354Y1210D02*
X2361Y1210D01*
X0Y1209D02*
X7Y1209D01*
X1966Y1209D02*
X1968Y1209D01*
X2054Y1209D02*
X2056Y1209D01*
X2354Y1209D02*
X2361Y1209D01*
X0Y1208D02*
X7Y1208D01*
X1966Y1208D02*
X1968Y1208D01*
X2054Y1208D02*
X2056Y1208D01*
X2354Y1208D02*
X2361Y1208D01*
X0Y1207D02*
X7Y1207D01*
X1966Y1207D02*
X1968Y1207D01*
X2054Y1207D02*
X2056Y1207D01*
X2354Y1207D02*
X2361Y1207D01*
X0Y1206D02*
X7Y1206D01*
X1966Y1206D02*
X1968Y1206D01*
X2054Y1206D02*
X2056Y1206D01*
X2354Y1206D02*
X2361Y1206D01*
X0Y1205D02*
X7Y1205D01*
X1966Y1205D02*
X1968Y1205D01*
X2054Y1205D02*
X2056Y1205D01*
X2354Y1205D02*
X2361Y1205D01*
X0Y1204D02*
X7Y1204D01*
X1966Y1204D02*
X1968Y1204D01*
X2054Y1204D02*
X2056Y1204D01*
X2354Y1204D02*
X2361Y1204D01*
X0Y1203D02*
X7Y1203D01*
X1966Y1203D02*
X1968Y1203D01*
X2054Y1203D02*
X2056Y1203D01*
X2354Y1203D02*
X2361Y1203D01*
X0Y1202D02*
X7Y1202D01*
X1966Y1202D02*
X1968Y1202D01*
X2054Y1202D02*
X2056Y1202D01*
X2354Y1202D02*
X2361Y1202D01*
X0Y1201D02*
X7Y1201D01*
X1966Y1201D02*
X1968Y1201D01*
X2054Y1201D02*
X2056Y1201D01*
X2354Y1201D02*
X2361Y1201D01*
X0Y1200D02*
X7Y1200D01*
X1966Y1200D02*
X1968Y1200D01*
X2054Y1200D02*
X2056Y1200D01*
X2354Y1200D02*
X2361Y1200D01*
X0Y1199D02*
X7Y1199D01*
X1966Y1199D02*
X1968Y1199D01*
X2054Y1199D02*
X2056Y1199D01*
X2354Y1199D02*
X2361Y1199D01*
X0Y1198D02*
X7Y1198D01*
X1966Y1198D02*
X1968Y1198D01*
X2054Y1198D02*
X2056Y1198D01*
X2354Y1198D02*
X2361Y1198D01*
X0Y1197D02*
X7Y1197D01*
X1966Y1197D02*
X1968Y1197D01*
X2054Y1197D02*
X2056Y1197D01*
X2354Y1197D02*
X2361Y1197D01*
X0Y1196D02*
X7Y1196D01*
X1966Y1196D02*
X1968Y1196D01*
X2054Y1196D02*
X2056Y1196D01*
X2354Y1196D02*
X2361Y1196D01*
X0Y1195D02*
X7Y1195D01*
X1966Y1195D02*
X1968Y1195D01*
X2054Y1195D02*
X2056Y1195D01*
X2354Y1195D02*
X2361Y1195D01*
X0Y1194D02*
X7Y1194D01*
X1966Y1194D02*
X1968Y1194D01*
X2054Y1194D02*
X2056Y1194D01*
X2354Y1194D02*
X2361Y1194D01*
X0Y1193D02*
X7Y1193D01*
X1966Y1193D02*
X1968Y1193D01*
X2054Y1193D02*
X2056Y1193D01*
X2354Y1193D02*
X2361Y1193D01*
X0Y1192D02*
X7Y1192D01*
X1966Y1192D02*
X1968Y1192D01*
X2054Y1192D02*
X2056Y1192D01*
X2354Y1192D02*
X2361Y1192D01*
X0Y1191D02*
X7Y1191D01*
X1966Y1191D02*
X1968Y1191D01*
X2054Y1191D02*
X2056Y1191D01*
X2354Y1191D02*
X2361Y1191D01*
X0Y1190D02*
X7Y1190D01*
X1966Y1190D02*
X1968Y1190D01*
X2054Y1190D02*
X2056Y1190D01*
X2354Y1190D02*
X2361Y1190D01*
X0Y1189D02*
X7Y1189D01*
X1966Y1189D02*
X1968Y1189D01*
X2054Y1189D02*
X2056Y1189D01*
X2354Y1189D02*
X2361Y1189D01*
X0Y1188D02*
X7Y1188D01*
X1966Y1188D02*
X1968Y1188D01*
X2054Y1188D02*
X2056Y1188D01*
X2354Y1188D02*
X2361Y1188D01*
X0Y1187D02*
X7Y1187D01*
X1966Y1187D02*
X1968Y1187D01*
X2054Y1187D02*
X2056Y1187D01*
X2354Y1187D02*
X2361Y1187D01*
X0Y1186D02*
X7Y1186D01*
X1966Y1186D02*
X1968Y1186D01*
X2054Y1186D02*
X2056Y1186D01*
X2354Y1186D02*
X2361Y1186D01*
X0Y1185D02*
X7Y1185D01*
X1966Y1185D02*
X1968Y1185D01*
X2054Y1185D02*
X2056Y1185D01*
X2354Y1185D02*
X2361Y1185D01*
X0Y1184D02*
X7Y1184D01*
X1966Y1184D02*
X1968Y1184D01*
X2054Y1184D02*
X2056Y1184D01*
X2354Y1184D02*
X2361Y1184D01*
X0Y1183D02*
X7Y1183D01*
X1966Y1183D02*
X1968Y1183D01*
X2054Y1183D02*
X2056Y1183D01*
X2354Y1183D02*
X2361Y1183D01*
X0Y1182D02*
X7Y1182D01*
X1966Y1182D02*
X1968Y1182D01*
X2054Y1182D02*
X2056Y1182D01*
X2354Y1182D02*
X2361Y1182D01*
X0Y1181D02*
X7Y1181D01*
X1966Y1181D02*
X1968Y1181D01*
X2054Y1181D02*
X2056Y1181D01*
X2354Y1181D02*
X2361Y1181D01*
X0Y1180D02*
X7Y1180D01*
X1966Y1180D02*
X1968Y1180D01*
X2054Y1180D02*
X2056Y1180D01*
X2354Y1180D02*
X2361Y1180D01*
X0Y1179D02*
X7Y1179D01*
X1966Y1179D02*
X1968Y1179D01*
X2054Y1179D02*
X2056Y1179D01*
X2354Y1179D02*
X2361Y1179D01*
X0Y1178D02*
X7Y1178D01*
X1966Y1178D02*
X1968Y1178D01*
X2054Y1178D02*
X2056Y1178D01*
X2354Y1178D02*
X2361Y1178D01*
X0Y1177D02*
X7Y1177D01*
X1966Y1177D02*
X1968Y1177D01*
X2054Y1177D02*
X2056Y1177D01*
X2354Y1177D02*
X2361Y1177D01*
X0Y1176D02*
X7Y1176D01*
X1966Y1176D02*
X1968Y1176D01*
X2054Y1176D02*
X2056Y1176D01*
X2354Y1176D02*
X2361Y1176D01*
X0Y1175D02*
X7Y1175D01*
X1966Y1175D02*
X1968Y1175D01*
X2054Y1175D02*
X2056Y1175D01*
X2354Y1175D02*
X2361Y1175D01*
X0Y1174D02*
X7Y1174D01*
X1966Y1174D02*
X1968Y1174D01*
X2054Y1174D02*
X2056Y1174D01*
X2354Y1174D02*
X2361Y1174D01*
X0Y1173D02*
X7Y1173D01*
X1966Y1173D02*
X1968Y1173D01*
X2054Y1173D02*
X2056Y1173D01*
X2354Y1173D02*
X2361Y1173D01*
X0Y1172D02*
X7Y1172D01*
X1966Y1172D02*
X1968Y1172D01*
X2054Y1172D02*
X2056Y1172D01*
X2354Y1172D02*
X2361Y1172D01*
X0Y1171D02*
X7Y1171D01*
X1966Y1171D02*
X1968Y1171D01*
X2054Y1171D02*
X2056Y1171D01*
X2354Y1171D02*
X2361Y1171D01*
X0Y1170D02*
X7Y1170D01*
X1966Y1170D02*
X1968Y1170D01*
X2054Y1170D02*
X2056Y1170D01*
X2354Y1170D02*
X2361Y1170D01*
X0Y1169D02*
X7Y1169D01*
X1966Y1169D02*
X1968Y1169D01*
X2054Y1169D02*
X2056Y1169D01*
X2354Y1169D02*
X2361Y1169D01*
X0Y1168D02*
X7Y1168D01*
X1966Y1168D02*
X1968Y1168D01*
X2054Y1168D02*
X2056Y1168D01*
X2354Y1168D02*
X2361Y1168D01*
X0Y1167D02*
X7Y1167D01*
X1966Y1167D02*
X1968Y1167D01*
X2054Y1167D02*
X2056Y1167D01*
X2354Y1167D02*
X2361Y1167D01*
X0Y1166D02*
X7Y1166D01*
X1966Y1166D02*
X1968Y1166D01*
X2054Y1166D02*
X2056Y1166D01*
X2354Y1166D02*
X2361Y1166D01*
X0Y1165D02*
X7Y1165D01*
X1966Y1165D02*
X1968Y1165D01*
X2054Y1165D02*
X2056Y1165D01*
X2354Y1165D02*
X2361Y1165D01*
X0Y1164D02*
X7Y1164D01*
X1966Y1164D02*
X1968Y1164D01*
X2054Y1164D02*
X2056Y1164D01*
X2354Y1164D02*
X2361Y1164D01*
X0Y1163D02*
X7Y1163D01*
X1966Y1163D02*
X1968Y1163D01*
X2054Y1163D02*
X2056Y1163D01*
X2354Y1163D02*
X2361Y1163D01*
X0Y1162D02*
X7Y1162D01*
X1966Y1162D02*
X1968Y1162D01*
X2054Y1162D02*
X2056Y1162D01*
X2354Y1162D02*
X2361Y1162D01*
X0Y1161D02*
X7Y1161D01*
X1966Y1161D02*
X1968Y1161D01*
X2054Y1161D02*
X2056Y1161D01*
X2354Y1161D02*
X2361Y1161D01*
X0Y1160D02*
X7Y1160D01*
X1966Y1160D02*
X1968Y1160D01*
X2054Y1160D02*
X2056Y1160D01*
X2354Y1160D02*
X2361Y1160D01*
X0Y1159D02*
X7Y1159D01*
X1966Y1159D02*
X1968Y1159D01*
X2054Y1159D02*
X2056Y1159D01*
X2354Y1159D02*
X2361Y1159D01*
X0Y1158D02*
X7Y1158D01*
X1966Y1158D02*
X1968Y1158D01*
X2054Y1158D02*
X2056Y1158D01*
X2354Y1158D02*
X2361Y1158D01*
X0Y1157D02*
X7Y1157D01*
X1966Y1157D02*
X1968Y1157D01*
X2054Y1157D02*
X2056Y1157D01*
X2354Y1157D02*
X2361Y1157D01*
X0Y1156D02*
X7Y1156D01*
X1966Y1156D02*
X1968Y1156D01*
X2054Y1156D02*
X2056Y1156D01*
X2354Y1156D02*
X2361Y1156D01*
X0Y1155D02*
X7Y1155D01*
X1966Y1155D02*
X1968Y1155D01*
X2054Y1155D02*
X2056Y1155D01*
X2354Y1155D02*
X2361Y1155D01*
X0Y1154D02*
X7Y1154D01*
X1966Y1154D02*
X1968Y1154D01*
X2054Y1154D02*
X2056Y1154D01*
X2354Y1154D02*
X2361Y1154D01*
X0Y1153D02*
X7Y1153D01*
X1966Y1153D02*
X1968Y1153D01*
X2054Y1153D02*
X2056Y1153D01*
X2354Y1153D02*
X2361Y1153D01*
X0Y1152D02*
X7Y1152D01*
X1966Y1152D02*
X1968Y1152D01*
X2054Y1152D02*
X2056Y1152D01*
X2354Y1152D02*
X2361Y1152D01*
X0Y1151D02*
X7Y1151D01*
X1966Y1151D02*
X1968Y1151D01*
X2054Y1151D02*
X2056Y1151D01*
X2354Y1151D02*
X2361Y1151D01*
X0Y1150D02*
X7Y1150D01*
X1966Y1150D02*
X1968Y1150D01*
X2054Y1150D02*
X2056Y1150D01*
X2354Y1150D02*
X2361Y1150D01*
X0Y1149D02*
X7Y1149D01*
X1966Y1149D02*
X1968Y1149D01*
X2054Y1149D02*
X2056Y1149D01*
X2354Y1149D02*
X2361Y1149D01*
X0Y1148D02*
X7Y1148D01*
X1966Y1148D02*
X1968Y1148D01*
X2054Y1148D02*
X2056Y1148D01*
X2354Y1148D02*
X2361Y1148D01*
X0Y1147D02*
X7Y1147D01*
X1966Y1147D02*
X1968Y1147D01*
X2054Y1147D02*
X2056Y1147D01*
X2354Y1147D02*
X2361Y1147D01*
X0Y1146D02*
X7Y1146D01*
X1966Y1146D02*
X1968Y1146D01*
X2054Y1146D02*
X2056Y1146D01*
X2354Y1146D02*
X2361Y1146D01*
X0Y1145D02*
X7Y1145D01*
X1966Y1145D02*
X1968Y1145D01*
X2054Y1145D02*
X2056Y1145D01*
X2354Y1145D02*
X2361Y1145D01*
X0Y1144D02*
X7Y1144D01*
X1966Y1144D02*
X1968Y1144D01*
X2054Y1144D02*
X2056Y1144D01*
X2354Y1144D02*
X2361Y1144D01*
X0Y1143D02*
X7Y1143D01*
X1966Y1143D02*
X1968Y1143D01*
X2054Y1143D02*
X2056Y1143D01*
X2354Y1143D02*
X2361Y1143D01*
X0Y1142D02*
X7Y1142D01*
X1966Y1142D02*
X1968Y1142D01*
X2054Y1142D02*
X2056Y1142D01*
X2354Y1142D02*
X2361Y1142D01*
X0Y1141D02*
X7Y1141D01*
X1966Y1141D02*
X1968Y1141D01*
X2054Y1141D02*
X2056Y1141D01*
X2354Y1141D02*
X2361Y1141D01*
X0Y1140D02*
X7Y1140D01*
X1966Y1140D02*
X1968Y1140D01*
X2054Y1140D02*
X2056Y1140D01*
X2354Y1140D02*
X2361Y1140D01*
X0Y1139D02*
X7Y1139D01*
X1966Y1139D02*
X2056Y1139D01*
X2354Y1139D02*
X2361Y1139D01*
X0Y1138D02*
X7Y1138D01*
X1966Y1138D02*
X2056Y1138D01*
X2354Y1138D02*
X2361Y1138D01*
X0Y1137D02*
X7Y1137D01*
X1966Y1137D02*
X2056Y1137D01*
X2354Y1137D02*
X2361Y1137D01*
X0Y1136D02*
X7Y1136D01*
X2354Y1136D02*
X2361Y1136D01*
X0Y1135D02*
X7Y1135D01*
X2354Y1135D02*
X2361Y1135D01*
X0Y1134D02*
X7Y1134D01*
X2354Y1134D02*
X2361Y1134D01*
X0Y1133D02*
X7Y1133D01*
X2354Y1133D02*
X2361Y1133D01*
X0Y1132D02*
X7Y1132D01*
X2354Y1132D02*
X2361Y1132D01*
X0Y1131D02*
X7Y1131D01*
X2354Y1131D02*
X2361Y1131D01*
X0Y1130D02*
X7Y1130D01*
X2354Y1130D02*
X2361Y1130D01*
X0Y1129D02*
X7Y1129D01*
X2354Y1129D02*
X2361Y1129D01*
X0Y1128D02*
X7Y1128D01*
X2354Y1128D02*
X2361Y1128D01*
X0Y1127D02*
X7Y1127D01*
X2354Y1127D02*
X2361Y1127D01*
X0Y1126D02*
X7Y1126D01*
X2354Y1126D02*
X2361Y1126D01*
X0Y1125D02*
X7Y1125D01*
X2354Y1125D02*
X2361Y1125D01*
X0Y1124D02*
X7Y1124D01*
X2354Y1124D02*
X2361Y1124D01*
X0Y1123D02*
X7Y1123D01*
X2354Y1123D02*
X2361Y1123D01*
X0Y1122D02*
X7Y1122D01*
X2354Y1122D02*
X2361Y1122D01*
X0Y1121D02*
X7Y1121D01*
X2354Y1121D02*
X2361Y1121D01*
X0Y1120D02*
X7Y1120D01*
X2354Y1120D02*
X2361Y1120D01*
X0Y1119D02*
X7Y1119D01*
X2354Y1119D02*
X2361Y1119D01*
X0Y1118D02*
X7Y1118D01*
X2354Y1118D02*
X2361Y1118D01*
X0Y1117D02*
X7Y1117D01*
X2354Y1117D02*
X2361Y1117D01*
X0Y1116D02*
X7Y1116D01*
X2354Y1116D02*
X2361Y1116D01*
X0Y1115D02*
X7Y1115D01*
X2354Y1115D02*
X2361Y1115D01*
X0Y1114D02*
X7Y1114D01*
X2354Y1114D02*
X2361Y1114D01*
X0Y1113D02*
X7Y1113D01*
X2354Y1113D02*
X2361Y1113D01*
X0Y1112D02*
X7Y1112D01*
X2354Y1112D02*
X2361Y1112D01*
X0Y1111D02*
X7Y1111D01*
X2354Y1111D02*
X2361Y1111D01*
X0Y1110D02*
X7Y1110D01*
X2354Y1110D02*
X2361Y1110D01*
X0Y1109D02*
X7Y1109D01*
X2354Y1109D02*
X2361Y1109D01*
X0Y1108D02*
X7Y1108D01*
X2354Y1108D02*
X2361Y1108D01*
X0Y1107D02*
X7Y1107D01*
X2354Y1107D02*
X2361Y1107D01*
X0Y1106D02*
X7Y1106D01*
X2354Y1106D02*
X2361Y1106D01*
X0Y1105D02*
X7Y1105D01*
X2354Y1105D02*
X2361Y1105D01*
X0Y1104D02*
X7Y1104D01*
X2354Y1104D02*
X2361Y1104D01*
X0Y1103D02*
X7Y1103D01*
X2354Y1103D02*
X2361Y1103D01*
X0Y1102D02*
X7Y1102D01*
X2354Y1102D02*
X2361Y1102D01*
X0Y1101D02*
X7Y1101D01*
X2354Y1101D02*
X2361Y1101D01*
X0Y1100D02*
X7Y1100D01*
X2354Y1100D02*
X2361Y1100D01*
X0Y1099D02*
X7Y1099D01*
X2354Y1099D02*
X2361Y1099D01*
X0Y1098D02*
X7Y1098D01*
X2354Y1098D02*
X2361Y1098D01*
X0Y1097D02*
X7Y1097D01*
X2354Y1097D02*
X2361Y1097D01*
X0Y1096D02*
X7Y1096D01*
X2354Y1096D02*
X2361Y1096D01*
X0Y1095D02*
X7Y1095D01*
X2354Y1095D02*
X2361Y1095D01*
X0Y1094D02*
X7Y1094D01*
X2354Y1094D02*
X2361Y1094D01*
X0Y1093D02*
X7Y1093D01*
X2354Y1093D02*
X2361Y1093D01*
X0Y1092D02*
X7Y1092D01*
X2354Y1092D02*
X2361Y1092D01*
X0Y1091D02*
X7Y1091D01*
X2354Y1091D02*
X2361Y1091D01*
X0Y1090D02*
X7Y1090D01*
X2354Y1090D02*
X2361Y1090D01*
X0Y1089D02*
X7Y1089D01*
X2354Y1089D02*
X2361Y1089D01*
X0Y1088D02*
X7Y1088D01*
X2354Y1088D02*
X2361Y1088D01*
X0Y1087D02*
X7Y1087D01*
X2354Y1087D02*
X2361Y1087D01*
X0Y1086D02*
X7Y1086D01*
X2354Y1086D02*
X2361Y1086D01*
X0Y1085D02*
X7Y1085D01*
X2354Y1085D02*
X2361Y1085D01*
X0Y1084D02*
X7Y1084D01*
X2354Y1084D02*
X2361Y1084D01*
X0Y1083D02*
X7Y1083D01*
X2354Y1083D02*
X2361Y1083D01*
X0Y1082D02*
X7Y1082D01*
X2354Y1082D02*
X2361Y1082D01*
X0Y1081D02*
X7Y1081D01*
X2354Y1081D02*
X2361Y1081D01*
X0Y1080D02*
X7Y1080D01*
X2354Y1080D02*
X2361Y1080D01*
X0Y1079D02*
X7Y1079D01*
X2354Y1079D02*
X2361Y1079D01*
X0Y1078D02*
X7Y1078D01*
X2354Y1078D02*
X2361Y1078D01*
X0Y1077D02*
X7Y1077D01*
X2354Y1077D02*
X2361Y1077D01*
X0Y1076D02*
X7Y1076D01*
X2354Y1076D02*
X2361Y1076D01*
X0Y1075D02*
X7Y1075D01*
X2354Y1075D02*
X2361Y1075D01*
X0Y1074D02*
X7Y1074D01*
X2354Y1074D02*
X2361Y1074D01*
X0Y1073D02*
X7Y1073D01*
X2354Y1073D02*
X2361Y1073D01*
X0Y1072D02*
X7Y1072D01*
X2354Y1072D02*
X2361Y1072D01*
X0Y1071D02*
X7Y1071D01*
X2354Y1071D02*
X2361Y1071D01*
X0Y1070D02*
X7Y1070D01*
X2354Y1070D02*
X2361Y1070D01*
X0Y1069D02*
X7Y1069D01*
X2354Y1069D02*
X2361Y1069D01*
X0Y1068D02*
X7Y1068D01*
X2354Y1068D02*
X2361Y1068D01*
X0Y1067D02*
X7Y1067D01*
X2354Y1067D02*
X2361Y1067D01*
X0Y1066D02*
X7Y1066D01*
X2354Y1066D02*
X2361Y1066D01*
X0Y1065D02*
X7Y1065D01*
X2354Y1065D02*
X2361Y1065D01*
X0Y1064D02*
X7Y1064D01*
X2354Y1064D02*
X2361Y1064D01*
X0Y1063D02*
X7Y1063D01*
X2354Y1063D02*
X2361Y1063D01*
X0Y1062D02*
X7Y1062D01*
X2354Y1062D02*
X2361Y1062D01*
X0Y1061D02*
X7Y1061D01*
X2354Y1061D02*
X2361Y1061D01*
X0Y1060D02*
X7Y1060D01*
X2354Y1060D02*
X2361Y1060D01*
X0Y1059D02*
X7Y1059D01*
X2354Y1059D02*
X2361Y1059D01*
X0Y1058D02*
X7Y1058D01*
X2354Y1058D02*
X2361Y1058D01*
X0Y1057D02*
X7Y1057D01*
X2354Y1057D02*
X2361Y1057D01*
X0Y1056D02*
X7Y1056D01*
X2354Y1056D02*
X2361Y1056D01*
X0Y1055D02*
X7Y1055D01*
X2354Y1055D02*
X2361Y1055D01*
X0Y1054D02*
X7Y1054D01*
X2354Y1054D02*
X2361Y1054D01*
X0Y1053D02*
X7Y1053D01*
X2354Y1053D02*
X2361Y1053D01*
X0Y1052D02*
X7Y1052D01*
X2354Y1052D02*
X2361Y1052D01*
X0Y1051D02*
X7Y1051D01*
X2354Y1051D02*
X2361Y1051D01*
X0Y1050D02*
X7Y1050D01*
X2354Y1050D02*
X2361Y1050D01*
X0Y1049D02*
X7Y1049D01*
X2354Y1049D02*
X2361Y1049D01*
X0Y1048D02*
X7Y1048D01*
X2354Y1048D02*
X2361Y1048D01*
X0Y1047D02*
X7Y1047D01*
X2354Y1047D02*
X2361Y1047D01*
X0Y1046D02*
X7Y1046D01*
X2354Y1046D02*
X2361Y1046D01*
X0Y1045D02*
X7Y1045D01*
X2354Y1045D02*
X2361Y1045D01*
X0Y1044D02*
X7Y1044D01*
X2354Y1044D02*
X2361Y1044D01*
X0Y1043D02*
X7Y1043D01*
X2354Y1043D02*
X2361Y1043D01*
X0Y1042D02*
X7Y1042D01*
X2354Y1042D02*
X2361Y1042D01*
X0Y1041D02*
X7Y1041D01*
X2354Y1041D02*
X2361Y1041D01*
X0Y1040D02*
X7Y1040D01*
X2354Y1040D02*
X2361Y1040D01*
X0Y1039D02*
X7Y1039D01*
X2354Y1039D02*
X2361Y1039D01*
X0Y1038D02*
X7Y1038D01*
X2354Y1038D02*
X2361Y1038D01*
X0Y1037D02*
X7Y1037D01*
X2354Y1037D02*
X2361Y1037D01*
X0Y1036D02*
X7Y1036D01*
X2354Y1036D02*
X2361Y1036D01*
X0Y1035D02*
X7Y1035D01*
X2354Y1035D02*
X2361Y1035D01*
X0Y1034D02*
X7Y1034D01*
X2354Y1034D02*
X2361Y1034D01*
X0Y1033D02*
X7Y1033D01*
X2354Y1033D02*
X2361Y1033D01*
X0Y1032D02*
X7Y1032D01*
X2354Y1032D02*
X2361Y1032D01*
X0Y1031D02*
X7Y1031D01*
X2354Y1031D02*
X2361Y1031D01*
X0Y1030D02*
X7Y1030D01*
X2354Y1030D02*
X2361Y1030D01*
X0Y1029D02*
X7Y1029D01*
X2354Y1029D02*
X2361Y1029D01*
X0Y1028D02*
X7Y1028D01*
X2354Y1028D02*
X2361Y1028D01*
X0Y1027D02*
X7Y1027D01*
X2354Y1027D02*
X2361Y1027D01*
X0Y1026D02*
X7Y1026D01*
X2354Y1026D02*
X2361Y1026D01*
X0Y1025D02*
X7Y1025D01*
X2354Y1025D02*
X2361Y1025D01*
X0Y1024D02*
X7Y1024D01*
X2354Y1024D02*
X2361Y1024D01*
X0Y1023D02*
X7Y1023D01*
X2354Y1023D02*
X2361Y1023D01*
X0Y1022D02*
X7Y1022D01*
X2354Y1022D02*
X2361Y1022D01*
X0Y1021D02*
X7Y1021D01*
X2354Y1021D02*
X2361Y1021D01*
X0Y1020D02*
X7Y1020D01*
X2354Y1020D02*
X2361Y1020D01*
X0Y1019D02*
X7Y1019D01*
X2354Y1019D02*
X2361Y1019D01*
X0Y1018D02*
X7Y1018D01*
X2354Y1018D02*
X2361Y1018D01*
X0Y1017D02*
X7Y1017D01*
X2354Y1017D02*
X2361Y1017D01*
X0Y1016D02*
X7Y1016D01*
X2354Y1016D02*
X2361Y1016D01*
X0Y1015D02*
X7Y1015D01*
X2354Y1015D02*
X2361Y1015D01*
X0Y1014D02*
X7Y1014D01*
X2354Y1014D02*
X2361Y1014D01*
X0Y1013D02*
X7Y1013D01*
X2354Y1013D02*
X2361Y1013D01*
X0Y1012D02*
X7Y1012D01*
X2354Y1012D02*
X2361Y1012D01*
X0Y1011D02*
X7Y1011D01*
X2354Y1011D02*
X2361Y1011D01*
X0Y1010D02*
X7Y1010D01*
X2354Y1010D02*
X2361Y1010D01*
X0Y1009D02*
X7Y1009D01*
X2354Y1009D02*
X2361Y1009D01*
X0Y1008D02*
X7Y1008D01*
X2354Y1008D02*
X2361Y1008D01*
X0Y1007D02*
X7Y1007D01*
X2354Y1007D02*
X2361Y1007D01*
X0Y1006D02*
X7Y1006D01*
X2354Y1006D02*
X2361Y1006D01*
X0Y1005D02*
X7Y1005D01*
X2354Y1005D02*
X2361Y1005D01*
X0Y1004D02*
X7Y1004D01*
X2354Y1004D02*
X2361Y1004D01*
X0Y1003D02*
X7Y1003D01*
X2354Y1003D02*
X2361Y1003D01*
X0Y1002D02*
X7Y1002D01*
X2354Y1002D02*
X2361Y1002D01*
X0Y1001D02*
X7Y1001D01*
X2354Y1001D02*
X2361Y1001D01*
X0Y1000D02*
X7Y1000D01*
X2354Y1000D02*
X2361Y1000D01*
X0Y999D02*
X7Y999D01*
X2354Y999D02*
X2361Y999D01*
X0Y998D02*
X7Y998D01*
X2354Y998D02*
X2361Y998D01*
X0Y997D02*
X7Y997D01*
X2354Y997D02*
X2361Y997D01*
X0Y996D02*
X7Y996D01*
X2354Y996D02*
X2361Y996D01*
X0Y995D02*
X7Y995D01*
X2354Y995D02*
X2361Y995D01*
X0Y994D02*
X7Y994D01*
X2354Y994D02*
X2361Y994D01*
X0Y993D02*
X7Y993D01*
X2354Y993D02*
X2361Y993D01*
X0Y992D02*
X7Y992D01*
X2354Y992D02*
X2361Y992D01*
X0Y991D02*
X7Y991D01*
X2354Y991D02*
X2361Y991D01*
X0Y990D02*
X7Y990D01*
X2354Y990D02*
X2361Y990D01*
X0Y989D02*
X7Y989D01*
X2354Y989D02*
X2361Y989D01*
X0Y988D02*
X7Y988D01*
X2354Y988D02*
X2361Y988D01*
X0Y987D02*
X7Y987D01*
X2354Y987D02*
X2361Y987D01*
X0Y986D02*
X7Y986D01*
X2354Y986D02*
X2361Y986D01*
X0Y985D02*
X7Y985D01*
X2354Y985D02*
X2361Y985D01*
X0Y984D02*
X7Y984D01*
X2354Y984D02*
X2361Y984D01*
X0Y983D02*
X7Y983D01*
X2354Y983D02*
X2361Y983D01*
X0Y982D02*
X7Y982D01*
X2354Y982D02*
X2361Y982D01*
X0Y981D02*
X7Y981D01*
X2354Y981D02*
X2361Y981D01*
X0Y980D02*
X7Y980D01*
X2354Y980D02*
X2361Y980D01*
X0Y979D02*
X7Y979D01*
X2354Y979D02*
X2361Y979D01*
X0Y978D02*
X7Y978D01*
X2354Y978D02*
X2361Y978D01*
X0Y977D02*
X7Y977D01*
X2354Y977D02*
X2361Y977D01*
X0Y976D02*
X7Y976D01*
X2354Y976D02*
X2361Y976D01*
X0Y975D02*
X7Y975D01*
X2354Y975D02*
X2361Y975D01*
X0Y974D02*
X7Y974D01*
X2354Y974D02*
X2361Y974D01*
X0Y973D02*
X7Y973D01*
X2354Y973D02*
X2361Y973D01*
X0Y972D02*
X7Y972D01*
X2354Y972D02*
X2361Y972D01*
X0Y971D02*
X7Y971D01*
X2354Y971D02*
X2361Y971D01*
X0Y970D02*
X7Y970D01*
X2354Y970D02*
X2361Y970D01*
X0Y969D02*
X7Y969D01*
X2354Y969D02*
X2361Y969D01*
X0Y968D02*
X7Y968D01*
X2354Y968D02*
X2361Y968D01*
X0Y967D02*
X7Y967D01*
X2354Y967D02*
X2361Y967D01*
X0Y966D02*
X7Y966D01*
X2354Y966D02*
X2361Y966D01*
X0Y965D02*
X7Y965D01*
X2354Y965D02*
X2361Y965D01*
X0Y964D02*
X7Y964D01*
X2354Y964D02*
X2361Y964D01*
X0Y963D02*
X7Y963D01*
X2354Y963D02*
X2361Y963D01*
X0Y962D02*
X7Y962D01*
X2354Y962D02*
X2361Y962D01*
X0Y961D02*
X7Y961D01*
X2354Y961D02*
X2361Y961D01*
X0Y960D02*
X7Y960D01*
X2354Y960D02*
X2361Y960D01*
X0Y959D02*
X7Y959D01*
X2354Y959D02*
X2361Y959D01*
X0Y958D02*
X7Y958D01*
X2354Y958D02*
X2361Y958D01*
X0Y957D02*
X7Y957D01*
X2354Y957D02*
X2361Y957D01*
X0Y956D02*
X7Y956D01*
X2354Y956D02*
X2361Y956D01*
X0Y955D02*
X7Y955D01*
X2354Y955D02*
X2361Y955D01*
X0Y954D02*
X7Y954D01*
X2354Y954D02*
X2361Y954D01*
X0Y953D02*
X7Y953D01*
X2354Y953D02*
X2361Y953D01*
X0Y952D02*
X7Y952D01*
X2354Y952D02*
X2361Y952D01*
X0Y951D02*
X7Y951D01*
X2354Y951D02*
X2361Y951D01*
X0Y950D02*
X7Y950D01*
X2354Y950D02*
X2361Y950D01*
X0Y949D02*
X7Y949D01*
X2354Y949D02*
X2361Y949D01*
X0Y948D02*
X7Y948D01*
X2354Y948D02*
X2361Y948D01*
X0Y947D02*
X7Y947D01*
X2354Y947D02*
X2361Y947D01*
X0Y946D02*
X7Y946D01*
X2354Y946D02*
X2361Y946D01*
X0Y945D02*
X7Y945D01*
X2354Y945D02*
X2361Y945D01*
X0Y944D02*
X7Y944D01*
X2354Y944D02*
X2361Y944D01*
X0Y943D02*
X7Y943D01*
X2354Y943D02*
X2361Y943D01*
X0Y942D02*
X7Y942D01*
X2354Y942D02*
X2361Y942D01*
X0Y941D02*
X7Y941D01*
X2354Y941D02*
X2361Y941D01*
X0Y940D02*
X7Y940D01*
X2354Y940D02*
X2361Y940D01*
X0Y939D02*
X7Y939D01*
X2354Y939D02*
X2361Y939D01*
X0Y938D02*
X7Y938D01*
X2354Y938D02*
X2361Y938D01*
X0Y937D02*
X7Y937D01*
X2354Y937D02*
X2361Y937D01*
X0Y936D02*
X7Y936D01*
X2354Y936D02*
X2361Y936D01*
X0Y935D02*
X7Y935D01*
X2354Y935D02*
X2361Y935D01*
X0Y934D02*
X7Y934D01*
X2354Y934D02*
X2361Y934D01*
X0Y933D02*
X7Y933D01*
X2354Y933D02*
X2361Y933D01*
X0Y932D02*
X7Y932D01*
X2354Y932D02*
X2361Y932D01*
X0Y931D02*
X7Y931D01*
X2354Y931D02*
X2361Y931D01*
X0Y930D02*
X7Y930D01*
X2354Y930D02*
X2361Y930D01*
X0Y929D02*
X7Y929D01*
X2354Y929D02*
X2361Y929D01*
X0Y928D02*
X7Y928D01*
X2354Y928D02*
X2361Y928D01*
X0Y927D02*
X7Y927D01*
X2354Y927D02*
X2361Y927D01*
X0Y926D02*
X7Y926D01*
X2354Y926D02*
X2361Y926D01*
X0Y925D02*
X7Y925D01*
X2354Y925D02*
X2361Y925D01*
X0Y924D02*
X7Y924D01*
X2354Y924D02*
X2361Y924D01*
X0Y923D02*
X7Y923D01*
X2354Y923D02*
X2361Y923D01*
X0Y922D02*
X7Y922D01*
X2354Y922D02*
X2361Y922D01*
X0Y921D02*
X7Y921D01*
X2354Y921D02*
X2361Y921D01*
X0Y920D02*
X7Y920D01*
X2354Y920D02*
X2361Y920D01*
X0Y919D02*
X7Y919D01*
X2354Y919D02*
X2361Y919D01*
X0Y918D02*
X7Y918D01*
X2354Y918D02*
X2361Y918D01*
X0Y917D02*
X7Y917D01*
X2354Y917D02*
X2361Y917D01*
X0Y916D02*
X7Y916D01*
X2354Y916D02*
X2361Y916D01*
X0Y915D02*
X7Y915D01*
X2354Y915D02*
X2361Y915D01*
X0Y914D02*
X7Y914D01*
X2354Y914D02*
X2361Y914D01*
X0Y913D02*
X7Y913D01*
X2354Y913D02*
X2361Y913D01*
X0Y912D02*
X7Y912D01*
X2354Y912D02*
X2361Y912D01*
X0Y911D02*
X7Y911D01*
X2354Y911D02*
X2361Y911D01*
X0Y910D02*
X7Y910D01*
X2354Y910D02*
X2361Y910D01*
X0Y909D02*
X7Y909D01*
X2354Y909D02*
X2361Y909D01*
X0Y908D02*
X7Y908D01*
X2354Y908D02*
X2361Y908D01*
X0Y907D02*
X7Y907D01*
X2354Y907D02*
X2361Y907D01*
X0Y906D02*
X7Y906D01*
X2354Y906D02*
X2361Y906D01*
X0Y905D02*
X7Y905D01*
X2354Y905D02*
X2361Y905D01*
X0Y904D02*
X7Y904D01*
X2354Y904D02*
X2361Y904D01*
X0Y903D02*
X7Y903D01*
X2354Y903D02*
X2361Y903D01*
X0Y902D02*
X7Y902D01*
X2354Y902D02*
X2361Y902D01*
X0Y901D02*
X7Y901D01*
X2354Y901D02*
X2361Y901D01*
X0Y900D02*
X7Y900D01*
X2354Y900D02*
X2361Y900D01*
X0Y899D02*
X7Y899D01*
X2354Y899D02*
X2361Y899D01*
X0Y898D02*
X7Y898D01*
X2354Y898D02*
X2361Y898D01*
X0Y897D02*
X7Y897D01*
X2354Y897D02*
X2361Y897D01*
X0Y896D02*
X7Y896D01*
X2354Y896D02*
X2361Y896D01*
X0Y895D02*
X7Y895D01*
X2354Y895D02*
X2361Y895D01*
X0Y894D02*
X7Y894D01*
X2354Y894D02*
X2361Y894D01*
X0Y893D02*
X7Y893D01*
X2354Y893D02*
X2361Y893D01*
X0Y892D02*
X7Y892D01*
X2354Y892D02*
X2361Y892D01*
X0Y891D02*
X7Y891D01*
X2354Y891D02*
X2361Y891D01*
X0Y890D02*
X7Y890D01*
X2354Y890D02*
X2361Y890D01*
X0Y889D02*
X7Y889D01*
X2354Y889D02*
X2361Y889D01*
X0Y888D02*
X7Y888D01*
X2354Y888D02*
X2361Y888D01*
X0Y887D02*
X7Y887D01*
X2354Y887D02*
X2361Y887D01*
X0Y886D02*
X7Y886D01*
X2354Y886D02*
X2361Y886D01*
X0Y885D02*
X7Y885D01*
X2354Y885D02*
X2361Y885D01*
X0Y884D02*
X7Y884D01*
X2354Y884D02*
X2361Y884D01*
X0Y883D02*
X7Y883D01*
X2354Y883D02*
X2361Y883D01*
X0Y882D02*
X7Y882D01*
X2354Y882D02*
X2361Y882D01*
X0Y881D02*
X7Y881D01*
X2354Y881D02*
X2361Y881D01*
X0Y880D02*
X7Y880D01*
X2354Y880D02*
X2361Y880D01*
X0Y879D02*
X7Y879D01*
X2354Y879D02*
X2361Y879D01*
X0Y878D02*
X7Y878D01*
X2354Y878D02*
X2361Y878D01*
X0Y877D02*
X7Y877D01*
X2354Y877D02*
X2361Y877D01*
X0Y876D02*
X7Y876D01*
X2354Y876D02*
X2361Y876D01*
X0Y875D02*
X7Y875D01*
X2354Y875D02*
X2361Y875D01*
X0Y874D02*
X7Y874D01*
X2354Y874D02*
X2361Y874D01*
X0Y873D02*
X7Y873D01*
X2354Y873D02*
X2361Y873D01*
X0Y872D02*
X7Y872D01*
X2354Y872D02*
X2361Y872D01*
X0Y871D02*
X7Y871D01*
X2354Y871D02*
X2361Y871D01*
X0Y870D02*
X7Y870D01*
X2354Y870D02*
X2361Y870D01*
X0Y869D02*
X7Y869D01*
X2354Y869D02*
X2361Y869D01*
X0Y868D02*
X7Y868D01*
X2354Y868D02*
X2361Y868D01*
X0Y867D02*
X7Y867D01*
X2354Y867D02*
X2361Y867D01*
X0Y866D02*
X7Y866D01*
X2354Y866D02*
X2361Y866D01*
X0Y865D02*
X7Y865D01*
X2354Y865D02*
X2361Y865D01*
X0Y864D02*
X7Y864D01*
X2354Y864D02*
X2361Y864D01*
X0Y863D02*
X7Y863D01*
X2354Y863D02*
X2361Y863D01*
X0Y862D02*
X7Y862D01*
X2354Y862D02*
X2361Y862D01*
X0Y861D02*
X7Y861D01*
X2354Y861D02*
X2361Y861D01*
X0Y860D02*
X7Y860D01*
X2354Y860D02*
X2361Y860D01*
X0Y859D02*
X7Y859D01*
X2354Y859D02*
X2361Y859D01*
X0Y858D02*
X7Y858D01*
X2354Y858D02*
X2361Y858D01*
X0Y857D02*
X7Y857D01*
X2354Y857D02*
X2361Y857D01*
X0Y856D02*
X7Y856D01*
X2354Y856D02*
X2361Y856D01*
X0Y855D02*
X7Y855D01*
X2354Y855D02*
X2361Y855D01*
X0Y854D02*
X7Y854D01*
X2354Y854D02*
X2361Y854D01*
X0Y853D02*
X7Y853D01*
X2354Y853D02*
X2361Y853D01*
X0Y852D02*
X7Y852D01*
X2354Y852D02*
X2361Y852D01*
X0Y851D02*
X7Y851D01*
X2354Y851D02*
X2361Y851D01*
X0Y850D02*
X7Y850D01*
X2354Y850D02*
X2361Y850D01*
X0Y849D02*
X7Y849D01*
X2354Y849D02*
X2361Y849D01*
X0Y848D02*
X7Y848D01*
X2354Y848D02*
X2361Y848D01*
X0Y847D02*
X7Y847D01*
X2354Y847D02*
X2361Y847D01*
X0Y846D02*
X7Y846D01*
X2354Y846D02*
X2361Y846D01*
X0Y845D02*
X7Y845D01*
X2354Y845D02*
X2361Y845D01*
X0Y844D02*
X7Y844D01*
X2354Y844D02*
X2361Y844D01*
X0Y843D02*
X7Y843D01*
X2354Y843D02*
X2361Y843D01*
X0Y842D02*
X7Y842D01*
X2354Y842D02*
X2361Y842D01*
X0Y841D02*
X7Y841D01*
X2354Y841D02*
X2361Y841D01*
X0Y840D02*
X7Y840D01*
X2354Y840D02*
X2361Y840D01*
X0Y839D02*
X7Y839D01*
X2354Y839D02*
X2361Y839D01*
X0Y838D02*
X7Y838D01*
X2354Y838D02*
X2361Y838D01*
X0Y837D02*
X7Y837D01*
X2354Y837D02*
X2361Y837D01*
X0Y836D02*
X7Y836D01*
X2354Y836D02*
X2361Y836D01*
X0Y835D02*
X7Y835D01*
X2354Y835D02*
X2361Y835D01*
X0Y834D02*
X7Y834D01*
X2354Y834D02*
X2361Y834D01*
X0Y833D02*
X7Y833D01*
X2354Y833D02*
X2361Y833D01*
X0Y832D02*
X7Y832D01*
X2354Y832D02*
X2361Y832D01*
X0Y831D02*
X7Y831D01*
X2354Y831D02*
X2361Y831D01*
X0Y830D02*
X7Y830D01*
X2354Y830D02*
X2361Y830D01*
X0Y829D02*
X7Y829D01*
X2354Y829D02*
X2361Y829D01*
X0Y828D02*
X7Y828D01*
X2354Y828D02*
X2361Y828D01*
X0Y827D02*
X7Y827D01*
X2354Y827D02*
X2361Y827D01*
X0Y826D02*
X7Y826D01*
X2354Y826D02*
X2361Y826D01*
X0Y825D02*
X7Y825D01*
X2354Y825D02*
X2361Y825D01*
X0Y824D02*
X7Y824D01*
X2354Y824D02*
X2361Y824D01*
X0Y823D02*
X7Y823D01*
X2354Y823D02*
X2361Y823D01*
X0Y822D02*
X7Y822D01*
X2354Y822D02*
X2361Y822D01*
X0Y821D02*
X7Y821D01*
X2354Y821D02*
X2361Y821D01*
X0Y820D02*
X7Y820D01*
X2354Y820D02*
X2361Y820D01*
X0Y819D02*
X7Y819D01*
X2354Y819D02*
X2361Y819D01*
X0Y818D02*
X7Y818D01*
X2354Y818D02*
X2361Y818D01*
X0Y817D02*
X7Y817D01*
X2354Y817D02*
X2361Y817D01*
X0Y816D02*
X7Y816D01*
X2354Y816D02*
X2361Y816D01*
X0Y815D02*
X7Y815D01*
X2354Y815D02*
X2361Y815D01*
X0Y814D02*
X7Y814D01*
X2354Y814D02*
X2361Y814D01*
X0Y813D02*
X7Y813D01*
X2354Y813D02*
X2361Y813D01*
X0Y812D02*
X7Y812D01*
X2354Y812D02*
X2361Y812D01*
X0Y811D02*
X7Y811D01*
X2354Y811D02*
X2361Y811D01*
X0Y810D02*
X7Y810D01*
X2354Y810D02*
X2361Y810D01*
X0Y809D02*
X7Y809D01*
X2354Y809D02*
X2361Y809D01*
X0Y808D02*
X7Y808D01*
X2354Y808D02*
X2361Y808D01*
X0Y807D02*
X7Y807D01*
X2354Y807D02*
X2361Y807D01*
X0Y806D02*
X7Y806D01*
X2354Y806D02*
X2361Y806D01*
X0Y805D02*
X7Y805D01*
X2354Y805D02*
X2361Y805D01*
X0Y804D02*
X7Y804D01*
X2354Y804D02*
X2361Y804D01*
X0Y803D02*
X7Y803D01*
X2354Y803D02*
X2361Y803D01*
X0Y802D02*
X7Y802D01*
X2354Y802D02*
X2361Y802D01*
X0Y801D02*
X7Y801D01*
X2354Y801D02*
X2361Y801D01*
X0Y800D02*
X7Y800D01*
X2354Y800D02*
X2361Y800D01*
X0Y799D02*
X7Y799D01*
X2354Y799D02*
X2361Y799D01*
X0Y798D02*
X7Y798D01*
X2354Y798D02*
X2361Y798D01*
X0Y797D02*
X7Y797D01*
X2354Y797D02*
X2361Y797D01*
X0Y796D02*
X7Y796D01*
X2354Y796D02*
X2361Y796D01*
X0Y795D02*
X7Y795D01*
X2354Y795D02*
X2361Y795D01*
X0Y794D02*
X7Y794D01*
X2354Y794D02*
X2361Y794D01*
X0Y793D02*
X7Y793D01*
X2354Y793D02*
X2361Y793D01*
X0Y792D02*
X7Y792D01*
X2354Y792D02*
X2361Y792D01*
X0Y791D02*
X7Y791D01*
X2354Y791D02*
X2361Y791D01*
X0Y790D02*
X7Y790D01*
X2354Y790D02*
X2361Y790D01*
X0Y789D02*
X7Y789D01*
X2354Y789D02*
X2361Y789D01*
X0Y788D02*
X7Y788D01*
X2354Y788D02*
X2361Y788D01*
X0Y787D02*
X7Y787D01*
X2354Y787D02*
X2361Y787D01*
X0Y786D02*
X7Y786D01*
X2354Y786D02*
X2361Y786D01*
X0Y785D02*
X7Y785D01*
X2354Y785D02*
X2361Y785D01*
X0Y784D02*
X7Y784D01*
X2354Y784D02*
X2361Y784D01*
X0Y783D02*
X7Y783D01*
X2354Y783D02*
X2361Y783D01*
X0Y782D02*
X7Y782D01*
X2354Y782D02*
X2361Y782D01*
X0Y781D02*
X7Y781D01*
X2354Y781D02*
X2361Y781D01*
X0Y780D02*
X7Y780D01*
X2354Y780D02*
X2361Y780D01*
X0Y779D02*
X7Y779D01*
X2354Y779D02*
X2361Y779D01*
X0Y778D02*
X7Y778D01*
X2354Y778D02*
X2361Y778D01*
X0Y777D02*
X7Y777D01*
X2354Y777D02*
X2361Y777D01*
X0Y776D02*
X7Y776D01*
X2354Y776D02*
X2361Y776D01*
X0Y775D02*
X7Y775D01*
X2354Y775D02*
X2361Y775D01*
X0Y774D02*
X7Y774D01*
X2354Y774D02*
X2361Y774D01*
X0Y773D02*
X7Y773D01*
X2354Y773D02*
X2361Y773D01*
X0Y772D02*
X7Y772D01*
X2354Y772D02*
X2361Y772D01*
X0Y771D02*
X7Y771D01*
X2354Y771D02*
X2361Y771D01*
X0Y770D02*
X7Y770D01*
X2354Y770D02*
X2361Y770D01*
X0Y769D02*
X7Y769D01*
X2354Y769D02*
X2361Y769D01*
X0Y768D02*
X7Y768D01*
X2354Y768D02*
X2361Y768D01*
X0Y767D02*
X7Y767D01*
X2354Y767D02*
X2361Y767D01*
X0Y766D02*
X7Y766D01*
X2354Y766D02*
X2361Y766D01*
X0Y765D02*
X7Y765D01*
X2354Y765D02*
X2361Y765D01*
X0Y764D02*
X7Y764D01*
X2354Y764D02*
X2361Y764D01*
X0Y763D02*
X7Y763D01*
X2354Y763D02*
X2361Y763D01*
X0Y762D02*
X7Y762D01*
X2354Y762D02*
X2361Y762D01*
X0Y761D02*
X7Y761D01*
X2354Y761D02*
X2361Y761D01*
X0Y760D02*
X7Y760D01*
X2354Y760D02*
X2361Y760D01*
X0Y759D02*
X7Y759D01*
X2354Y759D02*
X2361Y759D01*
X0Y758D02*
X7Y758D01*
X2354Y758D02*
X2361Y758D01*
X0Y757D02*
X7Y757D01*
X2354Y757D02*
X2361Y757D01*
X0Y756D02*
X7Y756D01*
X2354Y756D02*
X2361Y756D01*
X0Y755D02*
X7Y755D01*
X2354Y755D02*
X2361Y755D01*
X0Y754D02*
X7Y754D01*
X2354Y754D02*
X2361Y754D01*
X0Y753D02*
X7Y753D01*
X2354Y753D02*
X2361Y753D01*
X0Y752D02*
X7Y752D01*
X2354Y752D02*
X2361Y752D01*
X0Y751D02*
X7Y751D01*
X2354Y751D02*
X2361Y751D01*
X0Y750D02*
X7Y750D01*
X2354Y750D02*
X2361Y750D01*
X0Y749D02*
X7Y749D01*
X2354Y749D02*
X2361Y749D01*
X0Y748D02*
X7Y748D01*
X2354Y748D02*
X2361Y748D01*
X0Y747D02*
X7Y747D01*
X2354Y747D02*
X2361Y747D01*
X0Y746D02*
X7Y746D01*
X2354Y746D02*
X2361Y746D01*
X0Y745D02*
X7Y745D01*
X2354Y745D02*
X2361Y745D01*
X0Y744D02*
X7Y744D01*
X2354Y744D02*
X2361Y744D01*
X0Y743D02*
X7Y743D01*
X2354Y743D02*
X2361Y743D01*
X0Y742D02*
X7Y742D01*
X2354Y742D02*
X2361Y742D01*
X0Y741D02*
X7Y741D01*
X2354Y741D02*
X2361Y741D01*
X0Y740D02*
X7Y740D01*
X2354Y740D02*
X2361Y740D01*
X0Y739D02*
X7Y739D01*
X2354Y739D02*
X2361Y739D01*
X0Y738D02*
X7Y738D01*
X2354Y738D02*
X2361Y738D01*
X0Y737D02*
X7Y737D01*
X2354Y737D02*
X2361Y737D01*
X0Y736D02*
X7Y736D01*
X2354Y736D02*
X2361Y736D01*
X0Y735D02*
X7Y735D01*
X2354Y735D02*
X2361Y735D01*
X0Y734D02*
X7Y734D01*
X2354Y734D02*
X2361Y734D01*
X0Y733D02*
X7Y733D01*
X2354Y733D02*
X2361Y733D01*
X0Y732D02*
X7Y732D01*
X2354Y732D02*
X2361Y732D01*
X0Y731D02*
X7Y731D01*
X2354Y731D02*
X2361Y731D01*
X0Y730D02*
X7Y730D01*
X2354Y730D02*
X2361Y730D01*
X0Y729D02*
X7Y729D01*
X2354Y729D02*
X2361Y729D01*
X0Y728D02*
X7Y728D01*
X2354Y728D02*
X2361Y728D01*
X0Y727D02*
X7Y727D01*
X2354Y727D02*
X2361Y727D01*
X0Y726D02*
X7Y726D01*
X2354Y726D02*
X2361Y726D01*
X0Y725D02*
X7Y725D01*
X2354Y725D02*
X2361Y725D01*
X0Y724D02*
X7Y724D01*
X2354Y724D02*
X2361Y724D01*
X0Y723D02*
X7Y723D01*
X2354Y723D02*
X2361Y723D01*
X0Y722D02*
X7Y722D01*
X2354Y722D02*
X2361Y722D01*
X0Y721D02*
X7Y721D01*
X2354Y721D02*
X2361Y721D01*
X0Y720D02*
X7Y720D01*
X2354Y720D02*
X2361Y720D01*
X0Y719D02*
X7Y719D01*
X2354Y719D02*
X2361Y719D01*
X0Y718D02*
X7Y718D01*
X2354Y718D02*
X2361Y718D01*
X0Y717D02*
X7Y717D01*
X2354Y717D02*
X2361Y717D01*
X0Y716D02*
X7Y716D01*
X2354Y716D02*
X2361Y716D01*
X0Y715D02*
X7Y715D01*
X2354Y715D02*
X2361Y715D01*
X0Y714D02*
X7Y714D01*
X2354Y714D02*
X2361Y714D01*
X0Y713D02*
X7Y713D01*
X2354Y713D02*
X2361Y713D01*
X0Y712D02*
X7Y712D01*
X2354Y712D02*
X2361Y712D01*
X0Y711D02*
X7Y711D01*
X2354Y711D02*
X2361Y711D01*
X0Y710D02*
X7Y710D01*
X2354Y710D02*
X2361Y710D01*
X0Y709D02*
X7Y709D01*
X2354Y709D02*
X2361Y709D01*
X0Y708D02*
X7Y708D01*
X2354Y708D02*
X2361Y708D01*
X0Y707D02*
X7Y707D01*
X2354Y707D02*
X2361Y707D01*
X0Y706D02*
X7Y706D01*
X2354Y706D02*
X2361Y706D01*
X0Y705D02*
X7Y705D01*
X2354Y705D02*
X2361Y705D01*
X0Y704D02*
X7Y704D01*
X2354Y704D02*
X2361Y704D01*
X0Y703D02*
X7Y703D01*
X2354Y703D02*
X2361Y703D01*
X0Y702D02*
X7Y702D01*
X2354Y702D02*
X2361Y702D01*
X0Y701D02*
X7Y701D01*
X2354Y701D02*
X2361Y701D01*
X0Y700D02*
X7Y700D01*
X2354Y700D02*
X2361Y700D01*
X0Y699D02*
X7Y699D01*
X2354Y699D02*
X2361Y699D01*
X0Y698D02*
X7Y698D01*
X2354Y698D02*
X2361Y698D01*
X0Y697D02*
X7Y697D01*
X2354Y697D02*
X2361Y697D01*
X0Y696D02*
X7Y696D01*
X2354Y696D02*
X2361Y696D01*
X0Y695D02*
X7Y695D01*
X2354Y695D02*
X2361Y695D01*
X0Y694D02*
X7Y694D01*
X2354Y694D02*
X2361Y694D01*
X0Y693D02*
X7Y693D01*
X2354Y693D02*
X2361Y693D01*
X0Y692D02*
X7Y692D01*
X2354Y692D02*
X2361Y692D01*
X0Y691D02*
X7Y691D01*
X2354Y691D02*
X2361Y691D01*
X0Y690D02*
X7Y690D01*
X2354Y690D02*
X2361Y690D01*
X0Y689D02*
X7Y689D01*
X2354Y689D02*
X2361Y689D01*
X0Y688D02*
X7Y688D01*
X2354Y688D02*
X2361Y688D01*
X0Y687D02*
X7Y687D01*
X2354Y687D02*
X2361Y687D01*
X0Y686D02*
X7Y686D01*
X2354Y686D02*
X2361Y686D01*
X0Y685D02*
X7Y685D01*
X2354Y685D02*
X2361Y685D01*
X0Y684D02*
X7Y684D01*
X2354Y684D02*
X2361Y684D01*
X0Y683D02*
X7Y683D01*
X2354Y683D02*
X2361Y683D01*
X0Y682D02*
X7Y682D01*
X2354Y682D02*
X2361Y682D01*
X0Y681D02*
X7Y681D01*
X2354Y681D02*
X2361Y681D01*
X0Y680D02*
X7Y680D01*
X2354Y680D02*
X2361Y680D01*
X0Y679D02*
X7Y679D01*
X2354Y679D02*
X2361Y679D01*
X0Y678D02*
X7Y678D01*
X2354Y678D02*
X2361Y678D01*
X0Y677D02*
X7Y677D01*
X2354Y677D02*
X2361Y677D01*
X0Y676D02*
X7Y676D01*
X2354Y676D02*
X2361Y676D01*
X0Y675D02*
X7Y675D01*
X2354Y675D02*
X2361Y675D01*
X0Y674D02*
X7Y674D01*
X2354Y674D02*
X2361Y674D01*
X0Y673D02*
X7Y673D01*
X2354Y673D02*
X2361Y673D01*
X0Y672D02*
X7Y672D01*
X2354Y672D02*
X2361Y672D01*
X0Y671D02*
X7Y671D01*
X2354Y671D02*
X2361Y671D01*
X0Y670D02*
X7Y670D01*
X2354Y670D02*
X2361Y670D01*
X0Y669D02*
X7Y669D01*
X2354Y669D02*
X2361Y669D01*
X0Y668D02*
X7Y668D01*
X2354Y668D02*
X2361Y668D01*
X0Y667D02*
X7Y667D01*
X2354Y667D02*
X2361Y667D01*
X0Y666D02*
X7Y666D01*
X2354Y666D02*
X2361Y666D01*
X0Y665D02*
X7Y665D01*
X2354Y665D02*
X2361Y665D01*
X0Y664D02*
X7Y664D01*
X2354Y664D02*
X2361Y664D01*
X0Y663D02*
X7Y663D01*
X2354Y663D02*
X2361Y663D01*
X0Y662D02*
X7Y662D01*
X2354Y662D02*
X2361Y662D01*
X0Y661D02*
X7Y661D01*
X2354Y661D02*
X2361Y661D01*
X0Y660D02*
X7Y660D01*
X2354Y660D02*
X2361Y660D01*
X0Y659D02*
X7Y659D01*
X2354Y659D02*
X2361Y659D01*
X0Y658D02*
X7Y658D01*
X2354Y658D02*
X2361Y658D01*
X0Y657D02*
X7Y657D01*
X2354Y657D02*
X2361Y657D01*
X0Y656D02*
X7Y656D01*
X2354Y656D02*
X2361Y656D01*
X0Y655D02*
X7Y655D01*
X2354Y655D02*
X2361Y655D01*
X0Y654D02*
X7Y654D01*
X2354Y654D02*
X2361Y654D01*
X0Y653D02*
X7Y653D01*
X2354Y653D02*
X2361Y653D01*
X0Y652D02*
X7Y652D01*
X2354Y652D02*
X2361Y652D01*
X0Y651D02*
X7Y651D01*
X2354Y651D02*
X2361Y651D01*
X0Y650D02*
X7Y650D01*
X2354Y650D02*
X2361Y650D01*
X0Y649D02*
X7Y649D01*
X2354Y649D02*
X2361Y649D01*
X0Y648D02*
X7Y648D01*
X2354Y648D02*
X2361Y648D01*
X0Y647D02*
X7Y647D01*
X2354Y647D02*
X2361Y647D01*
X0Y646D02*
X7Y646D01*
X2354Y646D02*
X2361Y646D01*
X0Y645D02*
X7Y645D01*
X2354Y645D02*
X2361Y645D01*
X0Y644D02*
X7Y644D01*
X2354Y644D02*
X2361Y644D01*
X0Y643D02*
X7Y643D01*
X2354Y643D02*
X2361Y643D01*
X0Y642D02*
X7Y642D01*
X2354Y642D02*
X2361Y642D01*
X0Y641D02*
X7Y641D01*
X2354Y641D02*
X2361Y641D01*
X0Y640D02*
X7Y640D01*
X2354Y640D02*
X2361Y640D01*
X0Y639D02*
X7Y639D01*
X2354Y639D02*
X2361Y639D01*
X0Y638D02*
X7Y638D01*
X2354Y638D02*
X2361Y638D01*
X0Y637D02*
X7Y637D01*
X2354Y637D02*
X2361Y637D01*
X0Y636D02*
X7Y636D01*
X2354Y636D02*
X2361Y636D01*
X0Y635D02*
X7Y635D01*
X2354Y635D02*
X2361Y635D01*
X0Y634D02*
X7Y634D01*
X2354Y634D02*
X2361Y634D01*
X0Y633D02*
X7Y633D01*
X2354Y633D02*
X2361Y633D01*
X0Y632D02*
X7Y632D01*
X2354Y632D02*
X2361Y632D01*
X0Y631D02*
X7Y631D01*
X2354Y631D02*
X2361Y631D01*
X0Y630D02*
X7Y630D01*
X2354Y630D02*
X2361Y630D01*
X0Y629D02*
X7Y629D01*
X2354Y629D02*
X2361Y629D01*
X0Y628D02*
X7Y628D01*
X2354Y628D02*
X2361Y628D01*
X0Y627D02*
X7Y627D01*
X2354Y627D02*
X2361Y627D01*
X0Y626D02*
X7Y626D01*
X2354Y626D02*
X2361Y626D01*
X0Y625D02*
X7Y625D01*
X2354Y625D02*
X2361Y625D01*
X0Y624D02*
X7Y624D01*
X2354Y624D02*
X2361Y624D01*
X0Y623D02*
X7Y623D01*
X2354Y623D02*
X2361Y623D01*
X0Y622D02*
X7Y622D01*
X2354Y622D02*
X2361Y622D01*
X0Y621D02*
X7Y621D01*
X2354Y621D02*
X2361Y621D01*
X0Y620D02*
X7Y620D01*
X2354Y620D02*
X2361Y620D01*
X0Y619D02*
X7Y619D01*
X2354Y619D02*
X2361Y619D01*
X0Y618D02*
X7Y618D01*
X2354Y618D02*
X2361Y618D01*
X0Y617D02*
X7Y617D01*
X2354Y617D02*
X2361Y617D01*
X0Y616D02*
X7Y616D01*
X2354Y616D02*
X2361Y616D01*
X0Y615D02*
X7Y615D01*
X2354Y615D02*
X2361Y615D01*
X0Y614D02*
X7Y614D01*
X2354Y614D02*
X2361Y614D01*
X0Y613D02*
X7Y613D01*
X2354Y613D02*
X2361Y613D01*
X0Y612D02*
X7Y612D01*
X2354Y612D02*
X2361Y612D01*
X0Y611D02*
X7Y611D01*
X2354Y611D02*
X2361Y611D01*
X0Y610D02*
X7Y610D01*
X2354Y610D02*
X2361Y610D01*
X0Y609D02*
X7Y609D01*
X2354Y609D02*
X2361Y609D01*
X0Y608D02*
X7Y608D01*
X2354Y608D02*
X2361Y608D01*
X0Y607D02*
X7Y607D01*
X2354Y607D02*
X2361Y607D01*
X0Y606D02*
X7Y606D01*
X2354Y606D02*
X2361Y606D01*
X0Y605D02*
X7Y605D01*
X2354Y605D02*
X2361Y605D01*
X0Y604D02*
X7Y604D01*
X2354Y604D02*
X2361Y604D01*
X0Y603D02*
X7Y603D01*
X2354Y603D02*
X2361Y603D01*
X0Y602D02*
X7Y602D01*
X2354Y602D02*
X2361Y602D01*
X0Y601D02*
X7Y601D01*
X2354Y601D02*
X2361Y601D01*
X0Y600D02*
X7Y600D01*
X2354Y600D02*
X2361Y600D01*
X0Y599D02*
X7Y599D01*
X2354Y599D02*
X2361Y599D01*
X0Y598D02*
X7Y598D01*
X2354Y598D02*
X2361Y598D01*
X0Y597D02*
X7Y597D01*
X2354Y597D02*
X2361Y597D01*
X0Y596D02*
X7Y596D01*
X2354Y596D02*
X2361Y596D01*
X0Y595D02*
X7Y595D01*
X2354Y595D02*
X2361Y595D01*
X0Y594D02*
X7Y594D01*
X2354Y594D02*
X2361Y594D01*
X0Y593D02*
X7Y593D01*
X2354Y593D02*
X2361Y593D01*
X0Y592D02*
X7Y592D01*
X2354Y592D02*
X2361Y592D01*
X0Y591D02*
X7Y591D01*
X2354Y591D02*
X2361Y591D01*
X0Y590D02*
X7Y590D01*
X2354Y590D02*
X2361Y590D01*
X0Y589D02*
X7Y589D01*
X2354Y589D02*
X2361Y589D01*
X0Y588D02*
X7Y588D01*
X2354Y588D02*
X2361Y588D01*
X0Y587D02*
X7Y587D01*
X2354Y587D02*
X2361Y587D01*
X0Y586D02*
X7Y586D01*
X2354Y586D02*
X2361Y586D01*
X0Y585D02*
X7Y585D01*
X2354Y585D02*
X2361Y585D01*
X0Y584D02*
X7Y584D01*
X2354Y584D02*
X2361Y584D01*
X0Y583D02*
X7Y583D01*
X2354Y583D02*
X2361Y583D01*
X0Y582D02*
X7Y582D01*
X2354Y582D02*
X2361Y582D01*
X0Y581D02*
X7Y581D01*
X2354Y581D02*
X2361Y581D01*
X0Y580D02*
X7Y580D01*
X2354Y580D02*
X2361Y580D01*
X0Y579D02*
X7Y579D01*
X2354Y579D02*
X2361Y579D01*
X0Y578D02*
X7Y578D01*
X2354Y578D02*
X2361Y578D01*
X0Y577D02*
X7Y577D01*
X2354Y577D02*
X2361Y577D01*
X0Y576D02*
X7Y576D01*
X2354Y576D02*
X2361Y576D01*
X0Y575D02*
X7Y575D01*
X2354Y575D02*
X2361Y575D01*
X0Y574D02*
X7Y574D01*
X2354Y574D02*
X2361Y574D01*
X0Y573D02*
X7Y573D01*
X2354Y573D02*
X2361Y573D01*
X0Y572D02*
X7Y572D01*
X2354Y572D02*
X2361Y572D01*
X0Y571D02*
X7Y571D01*
X2354Y571D02*
X2361Y571D01*
X0Y570D02*
X7Y570D01*
X2354Y570D02*
X2361Y570D01*
X0Y569D02*
X7Y569D01*
X2354Y569D02*
X2361Y569D01*
X0Y568D02*
X7Y568D01*
X2354Y568D02*
X2361Y568D01*
X0Y567D02*
X7Y567D01*
X2354Y567D02*
X2361Y567D01*
X0Y566D02*
X7Y566D01*
X2354Y566D02*
X2361Y566D01*
X0Y565D02*
X7Y565D01*
X2354Y565D02*
X2361Y565D01*
X0Y564D02*
X7Y564D01*
X2354Y564D02*
X2361Y564D01*
X0Y563D02*
X7Y563D01*
X2354Y563D02*
X2361Y563D01*
X0Y562D02*
X7Y562D01*
X2354Y562D02*
X2361Y562D01*
X0Y561D02*
X7Y561D01*
X2354Y561D02*
X2361Y561D01*
X0Y560D02*
X7Y560D01*
X2354Y560D02*
X2361Y560D01*
X0Y559D02*
X7Y559D01*
X2354Y559D02*
X2361Y559D01*
X0Y558D02*
X7Y558D01*
X2354Y558D02*
X2361Y558D01*
X0Y557D02*
X7Y557D01*
X2354Y557D02*
X2361Y557D01*
X0Y556D02*
X7Y556D01*
X2354Y556D02*
X2361Y556D01*
X0Y555D02*
X7Y555D01*
X2354Y555D02*
X2361Y555D01*
X0Y554D02*
X7Y554D01*
X2354Y554D02*
X2361Y554D01*
X0Y553D02*
X7Y553D01*
X2354Y553D02*
X2361Y553D01*
X0Y552D02*
X7Y552D01*
X2354Y552D02*
X2361Y552D01*
X0Y551D02*
X7Y551D01*
X2354Y551D02*
X2361Y551D01*
X0Y550D02*
X7Y550D01*
X2354Y550D02*
X2361Y550D01*
X0Y549D02*
X7Y549D01*
X2354Y549D02*
X2361Y549D01*
X0Y548D02*
X7Y548D01*
X2354Y548D02*
X2361Y548D01*
X0Y547D02*
X7Y547D01*
X2354Y547D02*
X2361Y547D01*
X0Y546D02*
X7Y546D01*
X2354Y546D02*
X2361Y546D01*
X0Y545D02*
X7Y545D01*
X2354Y545D02*
X2361Y545D01*
X0Y544D02*
X7Y544D01*
X2354Y544D02*
X2361Y544D01*
X0Y543D02*
X7Y543D01*
X2354Y543D02*
X2361Y543D01*
X0Y542D02*
X7Y542D01*
X2354Y542D02*
X2361Y542D01*
X0Y541D02*
X7Y541D01*
X2354Y541D02*
X2361Y541D01*
X0Y540D02*
X7Y540D01*
X2354Y540D02*
X2361Y540D01*
X0Y539D02*
X7Y539D01*
X2354Y539D02*
X2361Y539D01*
X0Y538D02*
X7Y538D01*
X2354Y538D02*
X2361Y538D01*
X0Y537D02*
X7Y537D01*
X2354Y537D02*
X2361Y537D01*
X0Y536D02*
X7Y536D01*
X2354Y536D02*
X2361Y536D01*
X0Y535D02*
X7Y535D01*
X2354Y535D02*
X2361Y535D01*
X0Y534D02*
X7Y534D01*
X2354Y534D02*
X2361Y534D01*
X0Y533D02*
X7Y533D01*
X2354Y533D02*
X2361Y533D01*
X0Y532D02*
X7Y532D01*
X2354Y532D02*
X2361Y532D01*
X0Y531D02*
X7Y531D01*
X2354Y531D02*
X2361Y531D01*
X0Y530D02*
X7Y530D01*
X2354Y530D02*
X2361Y530D01*
X0Y529D02*
X7Y529D01*
X2354Y529D02*
X2361Y529D01*
X0Y528D02*
X7Y528D01*
X2354Y528D02*
X2361Y528D01*
X0Y527D02*
X7Y527D01*
X2354Y527D02*
X2361Y527D01*
X0Y526D02*
X7Y526D01*
X2354Y526D02*
X2361Y526D01*
X0Y525D02*
X7Y525D01*
X2354Y525D02*
X2361Y525D01*
X0Y524D02*
X7Y524D01*
X2354Y524D02*
X2361Y524D01*
X0Y523D02*
X7Y523D01*
X2354Y523D02*
X2361Y523D01*
X0Y522D02*
X7Y522D01*
X2354Y522D02*
X2361Y522D01*
X0Y521D02*
X7Y521D01*
X2354Y521D02*
X2361Y521D01*
X0Y520D02*
X7Y520D01*
X2354Y520D02*
X2361Y520D01*
X0Y519D02*
X7Y519D01*
X2354Y519D02*
X2361Y519D01*
X0Y518D02*
X7Y518D01*
X2354Y518D02*
X2361Y518D01*
X0Y517D02*
X7Y517D01*
X2354Y517D02*
X2361Y517D01*
X0Y516D02*
X7Y516D01*
X2354Y516D02*
X2361Y516D01*
X0Y515D02*
X7Y515D01*
X2354Y515D02*
X2361Y515D01*
X0Y514D02*
X7Y514D01*
X2354Y514D02*
X2361Y514D01*
X0Y513D02*
X7Y513D01*
X2354Y513D02*
X2361Y513D01*
X0Y512D02*
X7Y512D01*
X2354Y512D02*
X2361Y512D01*
X0Y511D02*
X7Y511D01*
X2354Y511D02*
X2361Y511D01*
X0Y510D02*
X7Y510D01*
X2354Y510D02*
X2361Y510D01*
X0Y509D02*
X7Y509D01*
X2354Y509D02*
X2361Y509D01*
X0Y508D02*
X7Y508D01*
X2354Y508D02*
X2361Y508D01*
X0Y507D02*
X7Y507D01*
X2354Y507D02*
X2361Y507D01*
X0Y506D02*
X7Y506D01*
X2354Y506D02*
X2361Y506D01*
X0Y505D02*
X7Y505D01*
X2354Y505D02*
X2361Y505D01*
X0Y504D02*
X7Y504D01*
X2354Y504D02*
X2361Y504D01*
X0Y503D02*
X7Y503D01*
X2354Y503D02*
X2361Y503D01*
X0Y502D02*
X7Y502D01*
X2354Y502D02*
X2361Y502D01*
X0Y501D02*
X7Y501D01*
X2354Y501D02*
X2361Y501D01*
X0Y500D02*
X7Y500D01*
X2354Y500D02*
X2361Y500D01*
X0Y499D02*
X7Y499D01*
X2354Y499D02*
X2361Y499D01*
X0Y498D02*
X7Y498D01*
X2354Y498D02*
X2361Y498D01*
X0Y497D02*
X7Y497D01*
X2354Y497D02*
X2361Y497D01*
X0Y496D02*
X7Y496D01*
X2354Y496D02*
X2361Y496D01*
X0Y495D02*
X7Y495D01*
X2354Y495D02*
X2361Y495D01*
X0Y494D02*
X7Y494D01*
X2354Y494D02*
X2361Y494D01*
X0Y493D02*
X7Y493D01*
X2354Y493D02*
X2361Y493D01*
X0Y492D02*
X7Y492D01*
X2354Y492D02*
X2361Y492D01*
X0Y491D02*
X7Y491D01*
X2354Y491D02*
X2361Y491D01*
X0Y490D02*
X7Y490D01*
X2354Y490D02*
X2361Y490D01*
X0Y489D02*
X7Y489D01*
X2354Y489D02*
X2361Y489D01*
X0Y488D02*
X7Y488D01*
X2354Y488D02*
X2361Y488D01*
X0Y487D02*
X7Y487D01*
X2354Y487D02*
X2361Y487D01*
X0Y486D02*
X7Y486D01*
X2354Y486D02*
X2361Y486D01*
X0Y485D02*
X7Y485D01*
X2354Y485D02*
X2361Y485D01*
X0Y484D02*
X7Y484D01*
X2354Y484D02*
X2361Y484D01*
X0Y483D02*
X7Y483D01*
X2354Y483D02*
X2361Y483D01*
X0Y482D02*
X7Y482D01*
X2354Y482D02*
X2361Y482D01*
X0Y481D02*
X7Y481D01*
X2354Y481D02*
X2361Y481D01*
X0Y480D02*
X7Y480D01*
X2354Y480D02*
X2361Y480D01*
X0Y479D02*
X7Y479D01*
X2354Y479D02*
X2361Y479D01*
X0Y478D02*
X7Y478D01*
X2354Y478D02*
X2361Y478D01*
X0Y477D02*
X7Y477D01*
X2354Y477D02*
X2361Y477D01*
X0Y476D02*
X7Y476D01*
X2354Y476D02*
X2361Y476D01*
X0Y475D02*
X7Y475D01*
X2354Y475D02*
X2361Y475D01*
X0Y474D02*
X7Y474D01*
X2354Y474D02*
X2361Y474D01*
X0Y473D02*
X7Y473D01*
X2354Y473D02*
X2361Y473D01*
X0Y472D02*
X7Y472D01*
X2354Y472D02*
X2361Y472D01*
X0Y471D02*
X7Y471D01*
X2354Y471D02*
X2361Y471D01*
X0Y470D02*
X7Y470D01*
X2354Y470D02*
X2361Y470D01*
X0Y469D02*
X7Y469D01*
X2354Y469D02*
X2361Y469D01*
X0Y468D02*
X7Y468D01*
X2354Y468D02*
X2361Y468D01*
X0Y467D02*
X7Y467D01*
X2354Y467D02*
X2361Y467D01*
X0Y466D02*
X7Y466D01*
X2354Y466D02*
X2361Y466D01*
X0Y465D02*
X7Y465D01*
X2354Y465D02*
X2361Y465D01*
X0Y464D02*
X7Y464D01*
X2354Y464D02*
X2361Y464D01*
X0Y463D02*
X7Y463D01*
X2354Y463D02*
X2361Y463D01*
X0Y462D02*
X7Y462D01*
X2354Y462D02*
X2361Y462D01*
X0Y461D02*
X7Y461D01*
X2354Y461D02*
X2361Y461D01*
X0Y460D02*
X7Y460D01*
X2354Y460D02*
X2361Y460D01*
X0Y459D02*
X7Y459D01*
X2354Y459D02*
X2361Y459D01*
X0Y458D02*
X7Y458D01*
X2354Y458D02*
X2361Y458D01*
X0Y457D02*
X7Y457D01*
X2354Y457D02*
X2361Y457D01*
X0Y456D02*
X7Y456D01*
X2354Y456D02*
X2361Y456D01*
X0Y455D02*
X7Y455D01*
X2354Y455D02*
X2361Y455D01*
X0Y454D02*
X7Y454D01*
X2354Y454D02*
X2361Y454D01*
X0Y453D02*
X7Y453D01*
X2354Y453D02*
X2361Y453D01*
X0Y452D02*
X7Y452D01*
X2354Y452D02*
X2361Y452D01*
X0Y451D02*
X7Y451D01*
X2354Y451D02*
X2361Y451D01*
X0Y450D02*
X7Y450D01*
X2354Y450D02*
X2361Y450D01*
X0Y449D02*
X7Y449D01*
X2354Y449D02*
X2361Y449D01*
X0Y448D02*
X7Y448D01*
X2354Y448D02*
X2361Y448D01*
X0Y447D02*
X7Y447D01*
X2354Y447D02*
X2361Y447D01*
X0Y446D02*
X7Y446D01*
X2354Y446D02*
X2361Y446D01*
X0Y445D02*
X7Y445D01*
X2354Y445D02*
X2361Y445D01*
X0Y444D02*
X7Y444D01*
X2354Y444D02*
X2361Y444D01*
X0Y443D02*
X7Y443D01*
X2354Y443D02*
X2361Y443D01*
X0Y442D02*
X7Y442D01*
X2354Y442D02*
X2361Y442D01*
X0Y441D02*
X7Y441D01*
X2354Y441D02*
X2361Y441D01*
X0Y440D02*
X7Y440D01*
X2354Y440D02*
X2361Y440D01*
X0Y439D02*
X7Y439D01*
X2354Y439D02*
X2361Y439D01*
X0Y438D02*
X7Y438D01*
X2354Y438D02*
X2361Y438D01*
X0Y437D02*
X7Y437D01*
X2354Y437D02*
X2361Y437D01*
X0Y436D02*
X7Y436D01*
X2354Y436D02*
X2361Y436D01*
X0Y435D02*
X7Y435D01*
X2354Y435D02*
X2361Y435D01*
X0Y434D02*
X7Y434D01*
X2354Y434D02*
X2361Y434D01*
X0Y433D02*
X7Y433D01*
X2354Y433D02*
X2361Y433D01*
X0Y432D02*
X7Y432D01*
X2354Y432D02*
X2361Y432D01*
X0Y431D02*
X7Y431D01*
X2354Y431D02*
X2361Y431D01*
X0Y430D02*
X7Y430D01*
X2354Y430D02*
X2361Y430D01*
X0Y429D02*
X7Y429D01*
X2354Y429D02*
X2361Y429D01*
X0Y428D02*
X7Y428D01*
X2354Y428D02*
X2361Y428D01*
X0Y427D02*
X7Y427D01*
X2354Y427D02*
X2361Y427D01*
X0Y426D02*
X7Y426D01*
X2354Y426D02*
X2361Y426D01*
X0Y425D02*
X7Y425D01*
X2354Y425D02*
X2361Y425D01*
X0Y424D02*
X7Y424D01*
X2354Y424D02*
X2361Y424D01*
X0Y423D02*
X7Y423D01*
X2354Y423D02*
X2361Y423D01*
X0Y422D02*
X7Y422D01*
X2354Y422D02*
X2361Y422D01*
X0Y421D02*
X7Y421D01*
X2354Y421D02*
X2361Y421D01*
X0Y420D02*
X7Y420D01*
X2354Y420D02*
X2361Y420D01*
X0Y419D02*
X7Y419D01*
X2354Y419D02*
X2361Y419D01*
X0Y418D02*
X7Y418D01*
X2354Y418D02*
X2361Y418D01*
X0Y417D02*
X7Y417D01*
X2354Y417D02*
X2361Y417D01*
X0Y416D02*
X7Y416D01*
X2354Y416D02*
X2361Y416D01*
X0Y415D02*
X7Y415D01*
X2354Y415D02*
X2361Y415D01*
X0Y414D02*
X7Y414D01*
X2354Y414D02*
X2361Y414D01*
X0Y413D02*
X7Y413D01*
X2354Y413D02*
X2361Y413D01*
X0Y412D02*
X7Y412D01*
X2354Y412D02*
X2361Y412D01*
X0Y411D02*
X7Y411D01*
X2354Y411D02*
X2361Y411D01*
X0Y410D02*
X7Y410D01*
X2354Y410D02*
X2361Y410D01*
X0Y409D02*
X7Y409D01*
X2354Y409D02*
X2361Y409D01*
X0Y408D02*
X7Y408D01*
X2354Y408D02*
X2361Y408D01*
X0Y407D02*
X7Y407D01*
X2354Y407D02*
X2361Y407D01*
X0Y406D02*
X7Y406D01*
X2354Y406D02*
X2361Y406D01*
X0Y405D02*
X7Y405D01*
X2354Y405D02*
X2361Y405D01*
X0Y404D02*
X7Y404D01*
X2354Y404D02*
X2361Y404D01*
X0Y403D02*
X7Y403D01*
X2354Y403D02*
X2361Y403D01*
X0Y402D02*
X7Y402D01*
X2354Y402D02*
X2361Y402D01*
X0Y401D02*
X7Y401D01*
X2354Y401D02*
X2361Y401D01*
X0Y400D02*
X7Y400D01*
X2354Y400D02*
X2361Y400D01*
X0Y399D02*
X7Y399D01*
X2354Y399D02*
X2361Y399D01*
X0Y398D02*
X7Y398D01*
X2354Y398D02*
X2361Y398D01*
X0Y397D02*
X7Y397D01*
X2354Y397D02*
X2361Y397D01*
X0Y396D02*
X7Y396D01*
X2354Y396D02*
X2361Y396D01*
X0Y395D02*
X7Y395D01*
X2354Y395D02*
X2361Y395D01*
X0Y394D02*
X7Y394D01*
X2354Y394D02*
X2361Y394D01*
X0Y393D02*
X7Y393D01*
X2354Y393D02*
X2361Y393D01*
X0Y392D02*
X7Y392D01*
X2354Y392D02*
X2361Y392D01*
X0Y391D02*
X7Y391D01*
X2354Y391D02*
X2361Y391D01*
X0Y390D02*
X7Y390D01*
X2354Y390D02*
X2361Y390D01*
X0Y389D02*
X7Y389D01*
X2354Y389D02*
X2361Y389D01*
X0Y388D02*
X7Y388D01*
X2354Y388D02*
X2361Y388D01*
X0Y387D02*
X7Y387D01*
X2354Y387D02*
X2361Y387D01*
X0Y386D02*
X7Y386D01*
X2354Y386D02*
X2361Y386D01*
X0Y385D02*
X7Y385D01*
X2354Y385D02*
X2361Y385D01*
X0Y384D02*
X7Y384D01*
X2354Y384D02*
X2361Y384D01*
X0Y383D02*
X7Y383D01*
X2354Y383D02*
X2361Y383D01*
X0Y382D02*
X7Y382D01*
X2354Y382D02*
X2361Y382D01*
X0Y381D02*
X7Y381D01*
X2354Y381D02*
X2361Y381D01*
X0Y380D02*
X7Y380D01*
X2354Y380D02*
X2361Y380D01*
X0Y379D02*
X7Y379D01*
X2354Y379D02*
X2361Y379D01*
X0Y378D02*
X7Y378D01*
X2354Y378D02*
X2361Y378D01*
X0Y377D02*
X7Y377D01*
X2354Y377D02*
X2361Y377D01*
X0Y376D02*
X7Y376D01*
X2354Y376D02*
X2361Y376D01*
X0Y375D02*
X7Y375D01*
X2354Y375D02*
X2361Y375D01*
X0Y374D02*
X7Y374D01*
X2354Y374D02*
X2361Y374D01*
X0Y373D02*
X7Y373D01*
X2354Y373D02*
X2361Y373D01*
X0Y372D02*
X7Y372D01*
X2354Y372D02*
X2361Y372D01*
X0Y371D02*
X7Y371D01*
X2354Y371D02*
X2361Y371D01*
X0Y370D02*
X7Y370D01*
X2354Y370D02*
X2361Y370D01*
X0Y369D02*
X7Y369D01*
X2354Y369D02*
X2361Y369D01*
X0Y368D02*
X7Y368D01*
X2354Y368D02*
X2361Y368D01*
X0Y367D02*
X7Y367D01*
X2354Y367D02*
X2361Y367D01*
X0Y366D02*
X7Y366D01*
X2354Y366D02*
X2361Y366D01*
X0Y365D02*
X7Y365D01*
X2354Y365D02*
X2361Y365D01*
X0Y364D02*
X7Y364D01*
X2354Y364D02*
X2361Y364D01*
X0Y363D02*
X7Y363D01*
X2354Y363D02*
X2361Y363D01*
X0Y362D02*
X7Y362D01*
X2354Y362D02*
X2361Y362D01*
X0Y361D02*
X7Y361D01*
X2354Y361D02*
X2361Y361D01*
X0Y360D02*
X7Y360D01*
X2354Y360D02*
X2361Y360D01*
X0Y359D02*
X7Y359D01*
X2354Y359D02*
X2361Y359D01*
X0Y358D02*
X7Y358D01*
X2354Y358D02*
X2361Y358D01*
X0Y357D02*
X7Y357D01*
X2354Y357D02*
X2361Y357D01*
X0Y356D02*
X7Y356D01*
X2354Y356D02*
X2361Y356D01*
X0Y355D02*
X7Y355D01*
X2354Y355D02*
X2361Y355D01*
X0Y354D02*
X7Y354D01*
X2354Y354D02*
X2361Y354D01*
X0Y353D02*
X7Y353D01*
X2354Y353D02*
X2361Y353D01*
X0Y352D02*
X7Y352D01*
X2354Y352D02*
X2361Y352D01*
X0Y351D02*
X7Y351D01*
X2354Y351D02*
X2361Y351D01*
X0Y350D02*
X7Y350D01*
X2354Y350D02*
X2361Y350D01*
X0Y349D02*
X7Y349D01*
X2354Y349D02*
X2361Y349D01*
X0Y348D02*
X7Y348D01*
X2354Y348D02*
X2361Y348D01*
X0Y347D02*
X7Y347D01*
X2354Y347D02*
X2361Y347D01*
X0Y346D02*
X7Y346D01*
X2354Y346D02*
X2361Y346D01*
X0Y345D02*
X7Y345D01*
X2354Y345D02*
X2361Y345D01*
X0Y344D02*
X7Y344D01*
X2354Y344D02*
X2361Y344D01*
X0Y343D02*
X7Y343D01*
X2354Y343D02*
X2361Y343D01*
X0Y342D02*
X7Y342D01*
X2354Y342D02*
X2361Y342D01*
X0Y341D02*
X7Y341D01*
X2354Y341D02*
X2361Y341D01*
X0Y340D02*
X7Y340D01*
X2354Y340D02*
X2361Y340D01*
X0Y339D02*
X7Y339D01*
X2354Y339D02*
X2361Y339D01*
X0Y338D02*
X7Y338D01*
X2354Y338D02*
X2361Y338D01*
X0Y337D02*
X7Y337D01*
X2354Y337D02*
X2361Y337D01*
X0Y336D02*
X7Y336D01*
X2354Y336D02*
X2361Y336D01*
X0Y335D02*
X7Y335D01*
X2354Y335D02*
X2361Y335D01*
X0Y334D02*
X7Y334D01*
X2354Y334D02*
X2361Y334D01*
X0Y333D02*
X7Y333D01*
X2354Y333D02*
X2361Y333D01*
X0Y332D02*
X7Y332D01*
X2354Y332D02*
X2361Y332D01*
X0Y331D02*
X7Y331D01*
X2354Y331D02*
X2361Y331D01*
X0Y330D02*
X7Y330D01*
X2354Y330D02*
X2361Y330D01*
X0Y329D02*
X7Y329D01*
X2354Y329D02*
X2361Y329D01*
X0Y328D02*
X7Y328D01*
X2354Y328D02*
X2361Y328D01*
X0Y327D02*
X7Y327D01*
X2354Y327D02*
X2361Y327D01*
X0Y326D02*
X7Y326D01*
X2354Y326D02*
X2361Y326D01*
X0Y325D02*
X7Y325D01*
X2354Y325D02*
X2361Y325D01*
X0Y324D02*
X7Y324D01*
X2354Y324D02*
X2361Y324D01*
X0Y323D02*
X7Y323D01*
X2354Y323D02*
X2361Y323D01*
X0Y322D02*
X7Y322D01*
X2354Y322D02*
X2361Y322D01*
X0Y321D02*
X7Y321D01*
X2354Y321D02*
X2361Y321D01*
X0Y320D02*
X7Y320D01*
X2354Y320D02*
X2361Y320D01*
X0Y319D02*
X7Y319D01*
X2354Y319D02*
X2361Y319D01*
X0Y318D02*
X7Y318D01*
X2354Y318D02*
X2361Y318D01*
X0Y317D02*
X7Y317D01*
X2354Y317D02*
X2361Y317D01*
X0Y316D02*
X7Y316D01*
X2354Y316D02*
X2361Y316D01*
X0Y315D02*
X7Y315D01*
X2354Y315D02*
X2361Y315D01*
X0Y314D02*
X7Y314D01*
X2354Y314D02*
X2361Y314D01*
X0Y313D02*
X7Y313D01*
X2354Y313D02*
X2361Y313D01*
X0Y312D02*
X7Y312D01*
X2354Y312D02*
X2361Y312D01*
X0Y311D02*
X7Y311D01*
X2354Y311D02*
X2361Y311D01*
X0Y310D02*
X7Y310D01*
X2354Y310D02*
X2361Y310D01*
X0Y309D02*
X7Y309D01*
X2354Y309D02*
X2361Y309D01*
X0Y308D02*
X7Y308D01*
X2354Y308D02*
X2361Y308D01*
X0Y307D02*
X7Y307D01*
X2354Y307D02*
X2361Y307D01*
X0Y306D02*
X7Y306D01*
X2354Y306D02*
X2361Y306D01*
X0Y305D02*
X7Y305D01*
X2354Y305D02*
X2361Y305D01*
X0Y304D02*
X7Y304D01*
X2354Y304D02*
X2361Y304D01*
X0Y303D02*
X7Y303D01*
X2354Y303D02*
X2361Y303D01*
X0Y302D02*
X7Y302D01*
X2354Y302D02*
X2361Y302D01*
X0Y301D02*
X7Y301D01*
X2354Y301D02*
X2361Y301D01*
X0Y300D02*
X7Y300D01*
X2354Y300D02*
X2361Y300D01*
X0Y299D02*
X7Y299D01*
X2354Y299D02*
X2361Y299D01*
X0Y298D02*
X7Y298D01*
X2354Y298D02*
X2361Y298D01*
X0Y297D02*
X7Y297D01*
X2354Y297D02*
X2361Y297D01*
X0Y296D02*
X7Y296D01*
X2354Y296D02*
X2361Y296D01*
X0Y295D02*
X7Y295D01*
X2354Y295D02*
X2361Y295D01*
X0Y294D02*
X7Y294D01*
X2354Y294D02*
X2361Y294D01*
X0Y293D02*
X7Y293D01*
X2354Y293D02*
X2361Y293D01*
X0Y292D02*
X7Y292D01*
X2354Y292D02*
X2361Y292D01*
X0Y291D02*
X7Y291D01*
X2354Y291D02*
X2361Y291D01*
X0Y290D02*
X7Y290D01*
X2354Y290D02*
X2361Y290D01*
X0Y289D02*
X7Y289D01*
X2354Y289D02*
X2361Y289D01*
X0Y288D02*
X7Y288D01*
X2354Y288D02*
X2361Y288D01*
X0Y287D02*
X7Y287D01*
X2354Y287D02*
X2361Y287D01*
X0Y286D02*
X7Y286D01*
X2354Y286D02*
X2361Y286D01*
X0Y285D02*
X7Y285D01*
X2354Y285D02*
X2361Y285D01*
X0Y284D02*
X7Y284D01*
X2354Y284D02*
X2361Y284D01*
X0Y283D02*
X7Y283D01*
X2354Y283D02*
X2361Y283D01*
X0Y282D02*
X7Y282D01*
X2354Y282D02*
X2361Y282D01*
X0Y281D02*
X7Y281D01*
X2354Y281D02*
X2361Y281D01*
X0Y280D02*
X7Y280D01*
X2354Y280D02*
X2361Y280D01*
X0Y279D02*
X7Y279D01*
X2354Y279D02*
X2361Y279D01*
X0Y278D02*
X7Y278D01*
X2354Y278D02*
X2361Y278D01*
X0Y277D02*
X7Y277D01*
X2354Y277D02*
X2361Y277D01*
X0Y276D02*
X7Y276D01*
X2354Y276D02*
X2361Y276D01*
X0Y275D02*
X7Y275D01*
X2354Y275D02*
X2361Y275D01*
X0Y274D02*
X7Y274D01*
X2354Y274D02*
X2361Y274D01*
X0Y273D02*
X7Y273D01*
X2354Y273D02*
X2361Y273D01*
X0Y272D02*
X7Y272D01*
X2354Y272D02*
X2361Y272D01*
X0Y271D02*
X7Y271D01*
X2354Y271D02*
X2361Y271D01*
X0Y270D02*
X7Y270D01*
X2354Y270D02*
X2361Y270D01*
X0Y269D02*
X7Y269D01*
X2354Y269D02*
X2361Y269D01*
X0Y268D02*
X7Y268D01*
X2354Y268D02*
X2361Y268D01*
X0Y267D02*
X7Y267D01*
X2354Y267D02*
X2361Y267D01*
X0Y266D02*
X7Y266D01*
X2354Y266D02*
X2361Y266D01*
X0Y265D02*
X7Y265D01*
X2354Y265D02*
X2361Y265D01*
X0Y264D02*
X7Y264D01*
X2354Y264D02*
X2361Y264D01*
X0Y263D02*
X7Y263D01*
X2354Y263D02*
X2361Y263D01*
X0Y262D02*
X7Y262D01*
X2354Y262D02*
X2361Y262D01*
X0Y261D02*
X7Y261D01*
X2354Y261D02*
X2361Y261D01*
X0Y260D02*
X7Y260D01*
X2354Y260D02*
X2361Y260D01*
X0Y259D02*
X7Y259D01*
X2354Y259D02*
X2361Y259D01*
X0Y258D02*
X7Y258D01*
X2354Y258D02*
X2361Y258D01*
X0Y257D02*
X7Y257D01*
X2354Y257D02*
X2361Y257D01*
X0Y256D02*
X7Y256D01*
X2354Y256D02*
X2361Y256D01*
X0Y255D02*
X7Y255D01*
X2354Y255D02*
X2361Y255D01*
X0Y254D02*
X7Y254D01*
X2354Y254D02*
X2361Y254D01*
X0Y253D02*
X7Y253D01*
X2354Y253D02*
X2361Y253D01*
X0Y252D02*
X7Y252D01*
X2354Y252D02*
X2361Y252D01*
X0Y251D02*
X7Y251D01*
X2354Y251D02*
X2361Y251D01*
X0Y250D02*
X7Y250D01*
X2354Y250D02*
X2361Y250D01*
X0Y249D02*
X7Y249D01*
X2354Y249D02*
X2361Y249D01*
X0Y248D02*
X7Y248D01*
X2354Y248D02*
X2361Y248D01*
X0Y247D02*
X7Y247D01*
X2354Y247D02*
X2361Y247D01*
X0Y246D02*
X7Y246D01*
X2354Y246D02*
X2361Y246D01*
X0Y245D02*
X7Y245D01*
X2354Y245D02*
X2361Y245D01*
X0Y244D02*
X7Y244D01*
X2354Y244D02*
X2361Y244D01*
X0Y243D02*
X7Y243D01*
X2354Y243D02*
X2361Y243D01*
X0Y242D02*
X7Y242D01*
X2354Y242D02*
X2361Y242D01*
X0Y241D02*
X7Y241D01*
X2354Y241D02*
X2361Y241D01*
X0Y240D02*
X7Y240D01*
X2354Y240D02*
X2361Y240D01*
X0Y239D02*
X7Y239D01*
X2354Y239D02*
X2361Y239D01*
X0Y238D02*
X7Y238D01*
X2354Y238D02*
X2361Y238D01*
X0Y237D02*
X7Y237D01*
X2354Y237D02*
X2361Y237D01*
X0Y236D02*
X7Y236D01*
X2354Y236D02*
X2361Y236D01*
X0Y235D02*
X7Y235D01*
X2354Y235D02*
X2361Y235D01*
X0Y234D02*
X7Y234D01*
X2354Y234D02*
X2361Y234D01*
X0Y233D02*
X7Y233D01*
X2354Y233D02*
X2361Y233D01*
X0Y232D02*
X7Y232D01*
X2354Y232D02*
X2361Y232D01*
X0Y231D02*
X7Y231D01*
X2354Y231D02*
X2361Y231D01*
X0Y230D02*
X7Y230D01*
X2354Y230D02*
X2361Y230D01*
X0Y229D02*
X7Y229D01*
X2354Y229D02*
X2361Y229D01*
X0Y228D02*
X7Y228D01*
X2354Y228D02*
X2361Y228D01*
X0Y227D02*
X7Y227D01*
X2354Y227D02*
X2361Y227D01*
X0Y226D02*
X7Y226D01*
X2354Y226D02*
X2361Y226D01*
X0Y225D02*
X7Y225D01*
X2354Y225D02*
X2361Y225D01*
X0Y224D02*
X7Y224D01*
X2354Y224D02*
X2361Y224D01*
X0Y223D02*
X7Y223D01*
X2354Y223D02*
X2361Y223D01*
X0Y222D02*
X7Y222D01*
X2354Y222D02*
X2361Y222D01*
X0Y221D02*
X7Y221D01*
X2354Y221D02*
X2361Y221D01*
X0Y220D02*
X7Y220D01*
X2354Y220D02*
X2361Y220D01*
X0Y219D02*
X7Y219D01*
X2354Y219D02*
X2361Y219D01*
X0Y218D02*
X7Y218D01*
X2354Y218D02*
X2361Y218D01*
X0Y217D02*
X7Y217D01*
X2354Y217D02*
X2361Y217D01*
X0Y216D02*
X7Y216D01*
X2354Y216D02*
X2361Y216D01*
X0Y215D02*
X7Y215D01*
X2354Y215D02*
X2361Y215D01*
X0Y214D02*
X7Y214D01*
X2354Y214D02*
X2361Y214D01*
X0Y213D02*
X7Y213D01*
X2354Y213D02*
X2361Y213D01*
X0Y212D02*
X7Y212D01*
X2354Y212D02*
X2361Y212D01*
X0Y211D02*
X7Y211D01*
X2354Y211D02*
X2361Y211D01*
X0Y210D02*
X7Y210D01*
X2354Y210D02*
X2361Y210D01*
X0Y209D02*
X7Y209D01*
X2354Y209D02*
X2361Y209D01*
X0Y208D02*
X7Y208D01*
X2354Y208D02*
X2361Y208D01*
X0Y207D02*
X7Y207D01*
X2354Y207D02*
X2361Y207D01*
X0Y206D02*
X7Y206D01*
X2354Y206D02*
X2361Y206D01*
X0Y205D02*
X7Y205D01*
X2354Y205D02*
X2361Y205D01*
X0Y204D02*
X7Y204D01*
X2354Y204D02*
X2361Y204D01*
X0Y203D02*
X7Y203D01*
X2354Y203D02*
X2361Y203D01*
X0Y202D02*
X7Y202D01*
X2354Y202D02*
X2361Y202D01*
X0Y201D02*
X7Y201D01*
X2354Y201D02*
X2361Y201D01*
X0Y200D02*
X7Y200D01*
X2354Y200D02*
X2361Y200D01*
X0Y199D02*
X7Y199D01*
X2354Y199D02*
X2361Y199D01*
X0Y198D02*
X7Y198D01*
X2354Y198D02*
X2361Y198D01*
X0Y197D02*
X7Y197D01*
X2354Y197D02*
X2361Y197D01*
X0Y196D02*
X7Y196D01*
X2354Y196D02*
X2361Y196D01*
X0Y195D02*
X7Y195D01*
X2354Y195D02*
X2361Y195D01*
X0Y194D02*
X7Y194D01*
X2354Y194D02*
X2361Y194D01*
X0Y193D02*
X7Y193D01*
X2354Y193D02*
X2361Y193D01*
X0Y192D02*
X7Y192D01*
X2354Y192D02*
X2361Y192D01*
X0Y191D02*
X7Y191D01*
X2354Y191D02*
X2361Y191D01*
X0Y190D02*
X7Y190D01*
X2354Y190D02*
X2361Y190D01*
X0Y189D02*
X7Y189D01*
X2354Y189D02*
X2361Y189D01*
X0Y188D02*
X7Y188D01*
X2354Y188D02*
X2361Y188D01*
X0Y187D02*
X7Y187D01*
X2354Y187D02*
X2361Y187D01*
X0Y186D02*
X7Y186D01*
X2354Y186D02*
X2361Y186D01*
X0Y185D02*
X7Y185D01*
X2354Y185D02*
X2361Y185D01*
X0Y184D02*
X7Y184D01*
X2354Y184D02*
X2361Y184D01*
X0Y183D02*
X7Y183D01*
X2354Y183D02*
X2361Y183D01*
X0Y182D02*
X7Y182D01*
X2354Y182D02*
X2361Y182D01*
X0Y181D02*
X7Y181D01*
X2354Y181D02*
X2361Y181D01*
X0Y180D02*
X7Y180D01*
X2354Y180D02*
X2361Y180D01*
X0Y179D02*
X7Y179D01*
X2354Y179D02*
X2361Y179D01*
X0Y178D02*
X7Y178D01*
X2354Y178D02*
X2361Y178D01*
X0Y177D02*
X7Y177D01*
X2354Y177D02*
X2361Y177D01*
X0Y176D02*
X7Y176D01*
X2354Y176D02*
X2361Y176D01*
X0Y175D02*
X7Y175D01*
X2354Y175D02*
X2361Y175D01*
X0Y174D02*
X7Y174D01*
X2354Y174D02*
X2361Y174D01*
X0Y173D02*
X7Y173D01*
X2354Y173D02*
X2361Y173D01*
X0Y172D02*
X7Y172D01*
X2354Y172D02*
X2361Y172D01*
X0Y171D02*
X7Y171D01*
X2354Y171D02*
X2361Y171D01*
X0Y170D02*
X7Y170D01*
X2354Y170D02*
X2361Y170D01*
X0Y169D02*
X7Y169D01*
X2354Y169D02*
X2361Y169D01*
X0Y168D02*
X7Y168D01*
X2354Y168D02*
X2361Y168D01*
X0Y167D02*
X7Y167D01*
X2354Y167D02*
X2361Y167D01*
X0Y166D02*
X7Y166D01*
X2354Y166D02*
X2361Y166D01*
X0Y165D02*
X7Y165D01*
X2354Y165D02*
X2361Y165D01*
X0Y164D02*
X7Y164D01*
X2354Y164D02*
X2361Y164D01*
X0Y163D02*
X7Y163D01*
X2354Y163D02*
X2361Y163D01*
X0Y162D02*
X7Y162D01*
X2354Y162D02*
X2361Y162D01*
X0Y161D02*
X7Y161D01*
X2354Y161D02*
X2361Y161D01*
X0Y160D02*
X7Y160D01*
X2354Y160D02*
X2361Y160D01*
X0Y159D02*
X7Y159D01*
X2354Y159D02*
X2361Y159D01*
X0Y158D02*
X7Y158D01*
X2354Y158D02*
X2361Y158D01*
X0Y157D02*
X7Y157D01*
X2354Y157D02*
X2361Y157D01*
X0Y156D02*
X7Y156D01*
X2354Y156D02*
X2361Y156D01*
X0Y155D02*
X7Y155D01*
X2354Y155D02*
X2361Y155D01*
X0Y154D02*
X7Y154D01*
X2354Y154D02*
X2361Y154D01*
X0Y153D02*
X7Y153D01*
X2354Y153D02*
X2361Y153D01*
X0Y152D02*
X7Y152D01*
X2354Y152D02*
X2361Y152D01*
X0Y151D02*
X7Y151D01*
X2354Y151D02*
X2361Y151D01*
X0Y150D02*
X7Y150D01*
X2354Y150D02*
X2361Y150D01*
X0Y149D02*
X7Y149D01*
X2354Y149D02*
X2361Y149D01*
X0Y148D02*
X7Y148D01*
X2354Y148D02*
X2361Y148D01*
X0Y147D02*
X7Y147D01*
X2354Y147D02*
X2361Y147D01*
X0Y146D02*
X7Y146D01*
X2354Y146D02*
X2361Y146D01*
X0Y145D02*
X7Y145D01*
X2354Y145D02*
X2361Y145D01*
X0Y144D02*
X7Y144D01*
X2354Y144D02*
X2361Y144D01*
X0Y143D02*
X7Y143D01*
X2354Y143D02*
X2361Y143D01*
X0Y142D02*
X7Y142D01*
X2354Y142D02*
X2361Y142D01*
X0Y141D02*
X7Y141D01*
X2354Y141D02*
X2361Y141D01*
X0Y140D02*
X7Y140D01*
X2354Y140D02*
X2361Y140D01*
X0Y139D02*
X7Y139D01*
X2354Y139D02*
X2361Y139D01*
X0Y138D02*
X7Y138D01*
X2354Y138D02*
X2361Y138D01*
X0Y137D02*
X7Y137D01*
X2354Y137D02*
X2361Y137D01*
X0Y136D02*
X7Y136D01*
X2354Y136D02*
X2361Y136D01*
X0Y135D02*
X7Y135D01*
X2354Y135D02*
X2361Y135D01*
X0Y134D02*
X7Y134D01*
X2354Y134D02*
X2361Y134D01*
X0Y133D02*
X7Y133D01*
X2354Y133D02*
X2361Y133D01*
X0Y132D02*
X7Y132D01*
X2354Y132D02*
X2361Y132D01*
X0Y131D02*
X7Y131D01*
X2354Y131D02*
X2361Y131D01*
X0Y130D02*
X7Y130D01*
X2354Y130D02*
X2361Y130D01*
X0Y129D02*
X7Y129D01*
X2354Y129D02*
X2361Y129D01*
X0Y128D02*
X7Y128D01*
X2354Y128D02*
X2361Y128D01*
X0Y127D02*
X7Y127D01*
X2354Y127D02*
X2361Y127D01*
X0Y126D02*
X7Y126D01*
X2354Y126D02*
X2361Y126D01*
X0Y125D02*
X7Y125D01*
X2354Y125D02*
X2361Y125D01*
X0Y124D02*
X7Y124D01*
X2354Y124D02*
X2361Y124D01*
X0Y123D02*
X7Y123D01*
X2354Y123D02*
X2361Y123D01*
X0Y122D02*
X7Y122D01*
X2354Y122D02*
X2361Y122D01*
X0Y121D02*
X7Y121D01*
X2354Y121D02*
X2361Y121D01*
X0Y120D02*
X7Y120D01*
X2354Y120D02*
X2361Y120D01*
X0Y119D02*
X7Y119D01*
X2354Y119D02*
X2361Y119D01*
X0Y118D02*
X7Y118D01*
X2354Y118D02*
X2361Y118D01*
X0Y117D02*
X7Y117D01*
X2354Y117D02*
X2361Y117D01*
X0Y116D02*
X7Y116D01*
X2354Y116D02*
X2361Y116D01*
X0Y115D02*
X7Y115D01*
X2354Y115D02*
X2361Y115D01*
X0Y114D02*
X7Y114D01*
X2354Y114D02*
X2361Y114D01*
X0Y113D02*
X7Y113D01*
X2354Y113D02*
X2361Y113D01*
X0Y112D02*
X7Y112D01*
X2354Y112D02*
X2361Y112D01*
X0Y111D02*
X7Y111D01*
X2354Y111D02*
X2361Y111D01*
X0Y110D02*
X7Y110D01*
X2354Y110D02*
X2361Y110D01*
X0Y109D02*
X7Y109D01*
X2354Y109D02*
X2361Y109D01*
X0Y108D02*
X7Y108D01*
X2354Y108D02*
X2361Y108D01*
X0Y107D02*
X7Y107D01*
X2354Y107D02*
X2361Y107D01*
X0Y106D02*
X7Y106D01*
X2354Y106D02*
X2361Y106D01*
X0Y105D02*
X7Y105D01*
X2354Y105D02*
X2361Y105D01*
X0Y104D02*
X7Y104D01*
X2354Y104D02*
X2361Y104D01*
X0Y103D02*
X7Y103D01*
X2354Y103D02*
X2361Y103D01*
X0Y102D02*
X7Y102D01*
X2354Y102D02*
X2361Y102D01*
X0Y101D02*
X7Y101D01*
X2354Y101D02*
X2361Y101D01*
X0Y100D02*
X7Y100D01*
X2354Y100D02*
X2361Y100D01*
X0Y99D02*
X7Y99D01*
X2354Y99D02*
X2361Y99D01*
X0Y98D02*
X7Y98D01*
X2354Y98D02*
X2361Y98D01*
X0Y97D02*
X7Y97D01*
X2354Y97D02*
X2361Y97D01*
X0Y96D02*
X7Y96D01*
X2354Y96D02*
X2361Y96D01*
X0Y95D02*
X7Y95D01*
X2354Y95D02*
X2361Y95D01*
X0Y94D02*
X7Y94D01*
X2354Y94D02*
X2361Y94D01*
X0Y93D02*
X7Y93D01*
X2354Y93D02*
X2361Y93D01*
X0Y92D02*
X7Y92D01*
X2354Y92D02*
X2361Y92D01*
X0Y91D02*
X7Y91D01*
X2354Y91D02*
X2361Y91D01*
X0Y90D02*
X7Y90D01*
X2354Y90D02*
X2361Y90D01*
X0Y89D02*
X7Y89D01*
X2354Y89D02*
X2361Y89D01*
X0Y88D02*
X7Y88D01*
X2354Y88D02*
X2361Y88D01*
X0Y87D02*
X7Y87D01*
X2354Y87D02*
X2361Y87D01*
X0Y86D02*
X7Y86D01*
X2354Y86D02*
X2361Y86D01*
X0Y85D02*
X7Y85D01*
X2354Y85D02*
X2361Y85D01*
X0Y84D02*
X7Y84D01*
X2354Y84D02*
X2361Y84D01*
X0Y83D02*
X7Y83D01*
X2354Y83D02*
X2361Y83D01*
X0Y82D02*
X7Y82D01*
X2354Y82D02*
X2361Y82D01*
X0Y81D02*
X7Y81D01*
X2354Y81D02*
X2361Y81D01*
X0Y80D02*
X7Y80D01*
X2354Y80D02*
X2361Y80D01*
X0Y79D02*
X7Y79D01*
X2354Y79D02*
X2361Y79D01*
X0Y78D02*
X7Y78D01*
X2354Y78D02*
X2361Y78D01*
X0Y77D02*
X7Y77D01*
X2354Y77D02*
X2361Y77D01*
X0Y76D02*
X7Y76D01*
X2354Y76D02*
X2361Y76D01*
X0Y75D02*
X7Y75D01*
X2354Y75D02*
X2361Y75D01*
X0Y74D02*
X7Y74D01*
X2354Y74D02*
X2361Y74D01*
X0Y73D02*
X7Y73D01*
X2354Y73D02*
X2361Y73D01*
X0Y72D02*
X7Y72D01*
X2354Y72D02*
X2361Y72D01*
X0Y71D02*
X7Y71D01*
X2354Y71D02*
X2361Y71D01*
X0Y70D02*
X7Y70D01*
X2354Y70D02*
X2361Y70D01*
X0Y69D02*
X7Y69D01*
X2354Y69D02*
X2361Y69D01*
X0Y68D02*
X7Y68D01*
X2354Y68D02*
X2361Y68D01*
X0Y67D02*
X7Y67D01*
X2354Y67D02*
X2361Y67D01*
X0Y66D02*
X7Y66D01*
X2354Y66D02*
X2361Y66D01*
X0Y65D02*
X7Y65D01*
X2354Y65D02*
X2361Y65D01*
X0Y64D02*
X7Y64D01*
X2354Y64D02*
X2361Y64D01*
X0Y63D02*
X7Y63D01*
X2354Y63D02*
X2361Y63D01*
X0Y62D02*
X7Y62D01*
X2354Y62D02*
X2361Y62D01*
X0Y61D02*
X7Y61D01*
X2354Y61D02*
X2361Y61D01*
X0Y60D02*
X7Y60D01*
X2354Y60D02*
X2361Y60D01*
X0Y59D02*
X7Y59D01*
X2354Y59D02*
X2361Y59D01*
X0Y58D02*
X7Y58D01*
X2354Y58D02*
X2361Y58D01*
X0Y57D02*
X7Y57D01*
X2354Y57D02*
X2361Y57D01*
X0Y56D02*
X7Y56D01*
X2354Y56D02*
X2361Y56D01*
X0Y55D02*
X7Y55D01*
X2354Y55D02*
X2361Y55D01*
X0Y54D02*
X7Y54D01*
X2354Y54D02*
X2361Y54D01*
X0Y53D02*
X7Y53D01*
X2354Y53D02*
X2361Y53D01*
X0Y52D02*
X7Y52D01*
X2354Y52D02*
X2361Y52D01*
X0Y51D02*
X7Y51D01*
X2354Y51D02*
X2361Y51D01*
X0Y50D02*
X7Y50D01*
X2354Y50D02*
X2361Y50D01*
X0Y49D02*
X7Y49D01*
X2354Y49D02*
X2361Y49D01*
X0Y48D02*
X7Y48D01*
X2354Y48D02*
X2361Y48D01*
X0Y47D02*
X7Y47D01*
X2354Y47D02*
X2361Y47D01*
X0Y46D02*
X7Y46D01*
X2354Y46D02*
X2361Y46D01*
X0Y45D02*
X7Y45D01*
X2354Y45D02*
X2361Y45D01*
X0Y44D02*
X7Y44D01*
X2354Y44D02*
X2361Y44D01*
X0Y43D02*
X7Y43D01*
X2354Y43D02*
X2361Y43D01*
X0Y42D02*
X7Y42D01*
X2354Y42D02*
X2361Y42D01*
X0Y41D02*
X7Y41D01*
X2354Y41D02*
X2361Y41D01*
X0Y40D02*
X7Y40D01*
X2354Y40D02*
X2361Y40D01*
X0Y39D02*
X7Y39D01*
X2354Y39D02*
X2361Y39D01*
X0Y38D02*
X7Y38D01*
X2354Y38D02*
X2361Y38D01*
X0Y37D02*
X7Y37D01*
X2354Y37D02*
X2361Y37D01*
X0Y36D02*
X7Y36D01*
X2354Y36D02*
X2361Y36D01*
X0Y35D02*
X7Y35D01*
X2354Y35D02*
X2361Y35D01*
X0Y34D02*
X7Y34D01*
X2354Y34D02*
X2361Y34D01*
X0Y33D02*
X7Y33D01*
X2354Y33D02*
X2361Y33D01*
X0Y32D02*
X7Y32D01*
X2354Y32D02*
X2361Y32D01*
X0Y31D02*
X7Y31D01*
X2354Y31D02*
X2361Y31D01*
X0Y30D02*
X7Y30D01*
X2354Y30D02*
X2361Y30D01*
X0Y29D02*
X7Y29D01*
X2354Y29D02*
X2361Y29D01*
X0Y28D02*
X7Y28D01*
X2354Y28D02*
X2361Y28D01*
X0Y27D02*
X7Y27D01*
X2354Y27D02*
X2361Y27D01*
X0Y26D02*
X7Y26D01*
X2354Y26D02*
X2361Y26D01*
X0Y25D02*
X7Y25D01*
X2354Y25D02*
X2361Y25D01*
X0Y24D02*
X7Y24D01*
X2354Y24D02*
X2361Y24D01*
X0Y23D02*
X7Y23D01*
X2354Y23D02*
X2361Y23D01*
X0Y22D02*
X7Y22D01*
X2354Y22D02*
X2361Y22D01*
X0Y21D02*
X7Y21D01*
X2354Y21D02*
X2361Y21D01*
X0Y20D02*
X7Y20D01*
X2354Y20D02*
X2361Y20D01*
X0Y19D02*
X7Y19D01*
X2354Y19D02*
X2361Y19D01*
X0Y18D02*
X7Y18D01*
X2354Y18D02*
X2361Y18D01*
X0Y17D02*
X7Y17D01*
X2354Y17D02*
X2361Y17D01*
X0Y16D02*
X7Y16D01*
X2354Y16D02*
X2361Y16D01*
X0Y15D02*
X7Y15D01*
X2354Y15D02*
X2361Y15D01*
X0Y14D02*
X7Y14D01*
X2354Y14D02*
X2361Y14D01*
X0Y13D02*
X7Y13D01*
X2354Y13D02*
X2361Y13D01*
X0Y12D02*
X7Y12D01*
X2354Y12D02*
X2361Y12D01*
X0Y11D02*
X7Y11D01*
X2354Y11D02*
X2361Y11D01*
X0Y10D02*
X7Y10D01*
X2354Y10D02*
X2361Y10D01*
X0Y9D02*
X7Y9D01*
X2354Y9D02*
X2361Y9D01*
X0Y8D02*
X2361Y8D01*
X0Y7D02*
X2361Y7D01*
X0Y6D02*
X2361Y6D01*
X0Y5D02*
X2361Y5D01*
X0Y4D02*
X2361Y4D01*
X0Y3D02*
X2361Y3D01*
X0Y2D02*
X2361Y2D01*
X0Y1D02*
X2361Y1D01*
D02*
G04 End of Silk0*
M02*