G04 MADE WITH FRITZING*
G04 WWW.FRITZING.ORG*
G04 SINGLE SIDED*
G04 HOLES NOT PLATED*
G04 CONTOUR ON CENTER OF CONTOUR VECTOR*
%ASAXBY*%
%FSLAX23Y23*%
%MOIN*%
%OFA0B0*%
%SFA1.0B1.0*%
%ADD10C,0.070000*%
%ADD11C,0.074000*%
%ADD12C,0.075000*%
%ADD13C,0.078000*%
%ADD14R,0.070000X0.069958*%
%ADD15R,0.075000X0.075000*%
%ADD16R,0.078000X0.078000*%
%ADD17R,0.074803X0.062992*%
%ADD18C,0.024000*%
%LNCOPPER0*%
G90*
G70*
G54D10*
X1612Y1498D03*
X1512Y1498D03*
X1412Y1498D03*
X1312Y1498D03*
X1212Y1498D03*
X1112Y1498D03*
X1012Y1498D03*
X912Y1498D03*
X812Y1498D03*
X712Y1498D03*
X612Y1498D03*
X512Y1498D03*
X412Y1498D03*
X312Y1498D03*
X212Y1498D03*
X1612Y898D03*
X1512Y898D03*
X1412Y898D03*
X1312Y898D03*
X1212Y898D03*
X1112Y898D03*
X1012Y898D03*
X912Y898D03*
X812Y898D03*
X712Y898D03*
X612Y898D03*
X512Y898D03*
X412Y898D03*
X312Y898D03*
X212Y898D03*
X1707Y1297D03*
X1607Y1297D03*
X1707Y1197D03*
X1607Y1197D03*
X1707Y1097D03*
X1607Y1097D03*
G54D11*
X912Y498D03*
X1012Y498D03*
X1112Y498D03*
X1212Y498D03*
X1312Y498D03*
X1412Y498D03*
G54D12*
X1512Y1998D03*
X1512Y1698D03*
X1412Y1998D03*
X1412Y1698D03*
X1312Y1998D03*
X1312Y1698D03*
X1212Y1998D03*
X1212Y1698D03*
X1112Y1998D03*
X1112Y1698D03*
X1012Y1998D03*
X1012Y1698D03*
X912Y1998D03*
X912Y1698D03*
X812Y1998D03*
X812Y1698D03*
G54D13*
X2112Y2098D03*
X2112Y1998D03*
X2212Y398D03*
X2212Y498D03*
X512Y1998D03*
X512Y2098D03*
X312Y398D03*
X212Y398D03*
G54D14*
X1612Y1498D03*
G54D15*
X1512Y1998D03*
G54D16*
X2112Y2098D03*
X2212Y398D03*
X512Y1998D03*
X312Y398D03*
G54D17*
X2012Y1176D03*
X2012Y1298D03*
G54D18*
X919Y1670D02*
X919Y1667D01*
D02*
X919Y1667D02*
X919Y1643D01*
D02*
X919Y1643D02*
X583Y1583D01*
D02*
X583Y1583D02*
X535Y1523D01*
D02*
X535Y1523D02*
X532Y1519D01*
D02*
X901Y1724D02*
X895Y1739D01*
D02*
X895Y1739D02*
X895Y1763D01*
D02*
X895Y1763D02*
X751Y1763D01*
D02*
X751Y1763D02*
X487Y1595D01*
D02*
X487Y1595D02*
X487Y1523D01*
D02*
X487Y1523D02*
X492Y1518D01*
D02*
X999Y1723D02*
X991Y1739D01*
D02*
X991Y1739D02*
X979Y1739D01*
D02*
X979Y1739D02*
X955Y1763D01*
D02*
X955Y1763D02*
X751Y1931D01*
D02*
X751Y1931D02*
X535Y1955D01*
D02*
X535Y1955D02*
X526Y1971D01*
D02*
X1014Y1726D02*
X1015Y1739D01*
D02*
X1015Y1739D02*
X1039Y1739D01*
D02*
X1039Y1739D02*
X1039Y1811D01*
D02*
X1039Y1811D02*
X1591Y1907D01*
D02*
X1591Y1907D02*
X1591Y2075D01*
D02*
X1591Y2075D02*
X655Y2075D01*
D02*
X655Y2075D02*
X655Y2027D01*
D02*
X655Y2027D02*
X535Y2027D01*
D02*
X535Y2027D02*
X531Y2021D01*
D02*
X1521Y1470D02*
X1519Y1475D01*
D02*
X1519Y1475D02*
X1519Y1463D01*
D02*
X1519Y1463D02*
X1531Y1451D01*
D02*
X1531Y1451D02*
X1543Y1043D01*
D02*
X1543Y1043D02*
X1687Y1043D01*
D02*
X1687Y1043D02*
X1663Y827D01*
D02*
X1663Y827D02*
X1231Y827D01*
D02*
X1231Y827D02*
X1231Y539D01*
D02*
X1231Y539D02*
X1225Y526D01*
D02*
X1616Y1469D02*
X1615Y1475D01*
D02*
X1615Y1475D02*
X1615Y1451D01*
D02*
X1615Y1451D02*
X1783Y1355D01*
D02*
X1783Y1355D02*
X1771Y1067D01*
D02*
X1771Y1067D02*
X1747Y1043D01*
D02*
X1747Y1043D02*
X1711Y779D01*
D02*
X1711Y779D02*
X1327Y779D01*
D02*
X1327Y779D02*
X1327Y539D01*
D02*
X1327Y539D02*
X1323Y527D01*
D02*
X1641Y1499D02*
X1639Y1499D01*
D02*
X1639Y1499D02*
X1735Y1499D01*
D02*
X1735Y1499D02*
X1831Y1403D01*
D02*
X1831Y1403D02*
X1819Y995D01*
D02*
X1819Y995D02*
X1795Y971D01*
D02*
X1795Y971D02*
X1759Y707D01*
D02*
X1759Y707D02*
X1519Y695D01*
D02*
X1519Y695D02*
X1399Y563D01*
D02*
X1399Y563D02*
X1471Y563D01*
D02*
X1471Y563D02*
X1471Y419D01*
D02*
X1471Y419D02*
X1327Y419D01*
D02*
X1327Y419D02*
X1327Y467D01*
D02*
X1327Y467D02*
X1326Y470D01*
D02*
X1534Y1516D02*
X1543Y1523D01*
D02*
X1543Y1523D02*
X1543Y1571D01*
D02*
X1543Y1571D02*
X1783Y1571D01*
D02*
X1783Y1571D02*
X1879Y1475D01*
D02*
X1879Y1475D02*
X1879Y947D01*
D02*
X1879Y947D02*
X1831Y683D01*
D02*
X1831Y683D02*
X1519Y371D01*
D02*
X1519Y371D02*
X1231Y371D01*
D02*
X1231Y371D02*
X1231Y467D01*
D02*
X1231Y467D02*
X1228Y471D01*
D02*
X1289Y915D02*
X1279Y923D01*
D02*
X1279Y923D02*
X1279Y971D01*
D02*
X1279Y971D02*
X175Y971D01*
D02*
X175Y971D02*
X151Y947D01*
D02*
X151Y947D02*
X151Y827D01*
D02*
X151Y827D02*
X1183Y827D01*
D02*
X1183Y827D02*
X1015Y635D01*
D02*
X1015Y635D02*
X1015Y539D01*
D02*
X1015Y539D02*
X1014Y529D01*
D02*
X1327Y922D02*
X1327Y923D01*
D02*
X1327Y923D02*
X1327Y1019D01*
D02*
X1327Y1019D02*
X127Y1019D01*
D02*
X127Y1019D02*
X103Y995D01*
D02*
X103Y995D02*
X103Y779D01*
D02*
X103Y779D02*
X1039Y779D01*
D02*
X1039Y779D02*
X967Y707D01*
D02*
X967Y707D02*
X967Y539D01*
D02*
X967Y539D02*
X991Y539D01*
D02*
X991Y539D02*
X998Y525D01*
D02*
X1332Y1718D02*
X1447Y1835D01*
D02*
X1447Y1835D02*
X1639Y1835D01*
D02*
X1639Y1835D02*
X1639Y2123D01*
D02*
X1639Y2123D02*
X535Y2123D01*
D02*
X535Y2123D02*
X532Y2120D01*
D02*
X1400Y1672D02*
X1375Y1619D01*
D02*
X1375Y1619D02*
X1543Y1619D01*
D02*
X1543Y1619D02*
X1687Y1787D01*
D02*
X1687Y1787D02*
X1687Y2171D01*
D02*
X1687Y2171D02*
X463Y2171D01*
D02*
X463Y2171D02*
X439Y2147D01*
D02*
X439Y2147D02*
X439Y1571D01*
D02*
X439Y1571D02*
X175Y1571D01*
D02*
X175Y1571D02*
X151Y1547D01*
D02*
X151Y1547D02*
X151Y1451D01*
D02*
X151Y1451D02*
X175Y1427D01*
D02*
X175Y1427D02*
X655Y1427D01*
D02*
X655Y1427D02*
X627Y1473D01*
D02*
X1225Y1672D02*
X1299Y1524D01*
D02*
X1103Y468D02*
X1087Y419D01*
D02*
X1087Y419D02*
X871Y419D01*
D02*
X871Y419D02*
X55Y731D01*
D02*
X55Y731D02*
X55Y1043D01*
D02*
X55Y1043D02*
X79Y1067D01*
D02*
X79Y1067D02*
X1495Y1067D01*
D02*
X1495Y1067D02*
X1509Y927D01*
D02*
X2183Y390D02*
X1927Y323D01*
D02*
X1927Y323D02*
X1183Y323D01*
D02*
X1183Y323D02*
X1124Y469D01*
D02*
X2083Y2107D02*
X1735Y2219D01*
D02*
X1735Y2219D02*
X415Y2219D01*
D02*
X415Y2219D02*
X103Y1595D01*
D02*
X103Y1595D02*
X103Y1379D01*
D02*
X103Y1379D02*
X703Y1379D01*
D02*
X703Y1379D02*
X1351Y1427D01*
D02*
X1351Y1427D02*
X1326Y1472D01*
G04 End of Copper0*
M02*