G04 MADE WITH FRITZING*
G04 WWW.FRITZING.ORG*
G04 SINGLE SIDED*
G04 HOLES NOT PLATED*
G04 CONTOUR ON CENTER OF CONTOUR VECTOR*
%ASAXBY*%
%FSLAX23Y23*%
%MOIN*%
%OFA0B0*%
%SFA1.0B1.0*%
%ADD10C,0.080000*%
%ADD11C,0.084000*%
%ADD12C,0.085000*%
%ADD13C,0.088000*%
%ADD14R,0.080000X0.079958*%
%ADD15R,0.085000X0.085000*%
%ADD16R,0.088000X0.088000*%
%ADD17R,0.084803X0.072992*%
%LNMASK0*%
G90*
G70*
G54D10*
X1612Y1498D03*
X1512Y1498D03*
X1412Y1498D03*
X1312Y1498D03*
X1212Y1498D03*
X1112Y1498D03*
X1012Y1498D03*
X912Y1498D03*
X812Y1498D03*
X712Y1498D03*
X612Y1498D03*
X512Y1498D03*
X412Y1498D03*
X312Y1498D03*
X212Y1498D03*
X1612Y898D03*
X1512Y898D03*
X1412Y898D03*
X1312Y898D03*
X1212Y898D03*
X1112Y898D03*
X1012Y898D03*
X912Y898D03*
X812Y898D03*
X712Y898D03*
X612Y898D03*
X512Y898D03*
X412Y898D03*
X312Y898D03*
X212Y898D03*
X1707Y1297D03*
X1607Y1297D03*
X1707Y1197D03*
X1607Y1197D03*
X1707Y1097D03*
X1607Y1097D03*
G54D11*
X912Y498D03*
X1012Y498D03*
X1112Y498D03*
X1212Y498D03*
X1312Y498D03*
X1412Y498D03*
G54D12*
X1512Y1998D03*
X1512Y1698D03*
X1412Y1998D03*
X1412Y1698D03*
X1312Y1998D03*
X1312Y1698D03*
X1212Y1998D03*
X1212Y1698D03*
X1112Y1998D03*
X1112Y1698D03*
X1012Y1998D03*
X1012Y1698D03*
X912Y1998D03*
X912Y1698D03*
X812Y1998D03*
X812Y1698D03*
G54D13*
X2112Y2098D03*
X2112Y1998D03*
X2212Y398D03*
X2212Y498D03*
X512Y1998D03*
X512Y2098D03*
X312Y398D03*
X212Y398D03*
G54D14*
X1612Y1498D03*
G54D15*
X1512Y1998D03*
G54D16*
X2112Y2098D03*
X2212Y398D03*
X512Y1998D03*
X312Y398D03*
G54D17*
X2012Y1176D03*
X2012Y1298D03*
G04 End of Mask0*
M02*