; NON-PLATED HOLES START AT T1
; THROUGH (PLATED) HOLES START AT T100
M48
INCH
T100C0.038000
T101C0.035000
T102C0.040000
T103C0.036000
%
T100
X022117Y004975
X002117Y003975
X003117Y003975
X005117Y020975
X021117Y019975
X022117Y003975
X005117Y019975
X021117Y020975
T101
X011117Y016975
X015117Y016975
X010117Y016975
X009117Y019975
X011117Y019975
X013117Y016975
X014117Y016975
X008117Y016975
X008117Y019975
X012117Y016975
X012117Y019975
X010117Y019975
X013117Y019975
X014117Y019975
X015117Y019975
X009117Y016975
T102
X014117Y004975
X011117Y004975
X013117Y004975
X012117Y004975
X010117Y004975
X009117Y004975
T103
X017073Y012973
X012117Y014975
X015117Y014975
X007117Y014975
X011117Y008975
X016074Y010970
X017073Y010970
X009117Y014975
X004117Y014975
X010117Y014975
X016117Y008975
X017073Y011972
X003117Y008975
X006117Y014975
X008117Y008975
X016074Y011972
X007117Y008975
X005117Y014975
X006117Y008975
X016074Y012973
X011117Y014975
X010117Y008975
X015117Y008975
X005117Y008975
X013117Y014975
X003117Y014975
X002117Y014975
X014117Y014975
X004117Y008975
X008117Y014975
X013117Y008975
X014117Y008975
X002117Y008975
X012117Y008975
X009117Y008975
X016117Y014975
T00
M30
